# Blender 5.2.1 LTS
# www.blender.org
mtllib Human.mtl
o 立方体.002
v -0.286728 1.344783 0.051259
v -0.286728 1.344783 0.051259
v -0.286728 1.344783 0.051259
v -0.286728 1.344783 0.051259
v -0.264164 2.242447 0.509491
v -0.264164 2.242447 0.509491
v -0.264164 2.242447 0.509491
v -0.264164 2.242447 0.509491
v -0.193481 1.390434 -0.214423
v -0.193481 1.390434 -0.214423
v -0.193481 1.390434 -0.214423
v -0.193481 1.390434 -0.214423
v -0.305975 2.283525 0.321953
v -0.305975 2.283525 0.321953
v -0.305975 2.283525 0.321953
v -0.305975 2.283525 0.321953
v 0.224910 1.450939 0.269724
v 0.224910 1.450939 0.269724
v 0.224910 1.450939 0.269724
v 0.224910 1.450939 0.269724
v 0.294235 2.277088 0.476240
v 0.294235 2.277088 0.476240
v 0.294235 2.277088 0.476240
v 0.294235 2.277088 0.476240
v 0.227452 1.304150 0.041237
v 0.227452 1.304150 0.041237
v 0.227452 1.304150 0.041237
v 0.227452 1.304150 0.041237
v 0.265803 2.414707 0.360111
v 0.265803 2.414707 0.360111
v 0.265803 2.414707 0.360111
v 0.265803 2.414707 0.360111
v 0.125677 1.296019 0.015292
v 0.125677 1.296019 0.015292
v 0.125677 1.296019 0.015292
v 0.125677 1.296019 0.015292
v 0.125677 1.296019 0.015292
v 0.022823 1.392949 -0.111276
v 0.022823 1.392949 -0.111276
v 0.022823 1.392949 -0.111276
v 0.022823 1.392949 -0.111276
v -0.089908 1.374508 -0.191187
v -0.089908 1.374508 -0.191187
v -0.089908 1.374508 -0.191187
v -0.089908 1.374508 -0.191187
v -0.089908 1.374508 -0.191187
v -0.165157 2.412040 0.375930
v -0.165157 2.412040 0.375930
v -0.165157 2.412040 0.375930
v -0.165157 2.412040 0.375930
v -0.011155 2.424723 0.377917
v -0.011155 2.424723 0.377917
v 0.140966 2.433472 0.382043
v 0.140966 2.433472 0.382043
v 0.140966 2.433472 0.382043
v 0.140966 2.433472 0.382043
v -0.168590 1.336394 0.090712
v -0.168590 1.336394 0.090712
v -0.168590 1.336394 0.090712
v -0.168590 1.336394 0.090712
v -0.168590 1.336394 0.090712
v -0.033281 1.454474 0.146072
v -0.033281 1.454474 0.146072
v -0.033281 1.454474 0.146072
v -0.033281 1.454474 0.146072
v 0.101811 1.445057 0.261412
v 0.101811 1.445057 0.261412
v 0.101811 1.445057 0.261412
v 0.101811 1.445057 0.261412
v 0.101811 1.445057 0.261412
v 0.153221 2.196814 0.590327
v 0.153221 2.196814 0.590327
v 0.153221 2.196814 0.590327
v 0.153221 2.196814 0.590327
v 0.003663 2.187348 0.590260
v 0.003663 2.187348 0.590260
v -0.142514 2.177144 0.589385
v -0.142514 2.177144 0.589385
v -0.142514 2.177144 0.589385
v -0.142514 2.177144 0.589385
v -0.273422 1.575088 0.066044
v -0.273422 1.575088 0.066044
v -0.273422 1.575088 0.066044
v -0.273422 1.575088 0.066044
v -0.187247 1.756244 0.140855
v -0.187247 1.756244 0.140855
v -0.187247 1.756244 0.140855
v -0.187247 1.756244 0.140855
v -0.220985 2.184652 0.468466
v -0.220985 2.184652 0.468466
v -0.220985 2.184652 0.468466
v -0.220985 2.184652 0.468466
v -0.220985 2.184652 0.468466
v -0.261358 2.239619 0.325119
v -0.261358 2.239619 0.325119
v -0.261358 2.239619 0.325119
v -0.261358 2.239619 0.325119
v -0.261358 2.239619 0.325119
v -0.128267 1.843398 -0.036919
v -0.128267 1.843398 -0.036919
v -0.128267 1.843398 -0.036919
v -0.128267 1.843398 -0.036919
v -0.188247 1.648924 -0.207108
v -0.188247 1.648924 -0.207108
v -0.188247 1.648924 -0.207108
v -0.188247 1.648924 -0.207108
v 0.233638 2.358272 0.352813
v 0.233638 2.358272 0.352813
v 0.233638 2.358272 0.352813
v 0.233638 2.358272 0.352813
v 0.233638 2.358272 0.352813
v 0.206250 1.807227 0.031619
v 0.206250 1.807227 0.031619
v 0.206250 1.807227 0.031619
v 0.206250 1.807227 0.031619
v 0.277689 1.552274 -0.080468
v 0.277689 1.552274 -0.080468
v 0.277689 1.552274 -0.080468
v 0.277689 1.552274 -0.080468
v 0.269734 2.219861 0.417755
v 0.269734 2.219861 0.417755
v 0.269734 2.219861 0.417755
v 0.269734 2.219861 0.417755
v 0.269734 2.219861 0.417755
v 0.171771 1.716952 0.216003
v 0.171771 1.716952 0.216003
v 0.171771 1.716952 0.216003
v 0.171771 1.716952 0.216003
v 0.207426 1.524802 0.170720
v 0.207426 1.524802 0.170720
v 0.207426 1.524802 0.170720
v 0.207426 1.524802 0.170720
v 0.161020 2.084832 0.490636
v 0.161020 2.084832 0.490636
v 0.161020 2.084832 0.490636
v 0.161020 2.084832 0.490636
v 0.099451 1.729098 0.189761
v 0.099451 1.729098 0.189761
v 0.099451 1.729098 0.189761
v 0.099451 1.729098 0.189761
v 0.105995 1.528569 0.173907
v 0.105995 1.528569 0.173907
v 0.105995 1.528569 0.173907
v 0.105995 1.528569 0.173907
v 0.011031 2.069249 0.497901
v 0.011031 2.069249 0.497901
v 0.011031 2.069249 0.497901
v 0.011031 2.069249 0.497901
v -0.007846 1.737377 0.177900
v -0.007846 1.737377 0.177900
v -0.007846 1.737377 0.177900
v -0.007846 1.737377 0.177900
v -0.041777 1.535924 0.148310
v -0.041777 1.535924 0.148310
v -0.041777 1.535924 0.148310
v -0.138339 2.065254 0.489640
v -0.138339 2.065254 0.489640
v -0.138339 2.065254 0.489640
v -0.138339 2.065254 0.489640
v -0.110253 1.754764 0.147654
v -0.110253 1.754764 0.147654
v -0.110253 1.754764 0.147654
v -0.110253 1.754764 0.147654
v -0.187102 1.552672 0.113705
v -0.187102 1.552672 0.113705
v -0.187102 1.552672 0.113705
v -0.187102 1.552672 0.113705
v -0.149917 2.254672 0.246354
v -0.149917 2.254672 0.246354
v -0.149917 2.254672 0.246354
v -0.149917 2.254672 0.246354
v -0.061801 1.844393 -0.038194
v -0.061801 1.844393 -0.038194
v -0.061801 1.844393 -0.038194
v -0.061801 1.844393 -0.038194
v -0.066703 1.644350 -0.201759
v -0.066703 1.644350 -0.201759
v -0.066703 1.644350 -0.201759
v -0.066703 1.644350 -0.201759
v -0.000179 2.264450 0.246840
v -0.000179 2.264450 0.246840
v 0.040932 1.835116 -0.017441
v 0.040932 1.835116 -0.017441
v 0.055646 1.623253 -0.163614
v 0.055646 1.623253 -0.163614
v 0.149442 2.274250 0.247351
v 0.149442 2.274250 0.247351
v 0.149442 2.274250 0.247351
v 0.149442 2.274250 0.247351
v 0.146237 1.822418 0.002884
v 0.146237 1.822418 0.002884
v 0.146237 1.822418 0.002884
v 0.146237 1.822418 0.002884
v 0.174252 1.582907 -0.129491
v 0.174252 1.582907 -0.129491
v 0.174252 1.582907 -0.129491
v 0.174252 1.582907 -0.129491
v -0.173375 1.873242 0.885049
v -0.173375 1.873242 0.885049
v -0.173375 1.873242 0.885049
v -0.187029 1.920930 0.844400
v -0.187029 1.920930 0.844400
v -0.187029 1.920930 0.844400
v -0.298813 1.949548 0.869237
v -0.298813 1.949548 0.869237
v -0.298813 1.949548 0.869237
v -0.303892 1.886867 0.902319
v -0.303892 1.886867 0.902319
v -0.303892 1.886867 0.902319
v 0.550757 1.895682 -0.257141
v 0.550757 1.895682 -0.257141
v 0.550757 1.895682 -0.257141
v 0.599075 1.915651 -0.177206
v 0.599075 1.915651 -0.177206
v 0.599075 1.915651 -0.177206
v 0.482293 1.843788 -0.115377
v 0.482293 1.843788 -0.115377
v 0.482293 1.843788 -0.115377
v 0.454249 1.823485 -0.162478
v 0.454249 1.823485 -0.162478
v 0.454249 1.823485 -0.162478
v 0.140625 0.838360 -0.117846
v 0.140625 0.838360 -0.117846
v 0.140625 0.838360 -0.117846
v 0.140625 0.838360 -0.117846
v 0.242628 0.847094 -0.102262
v 0.242628 0.847094 -0.102262
v 0.242628 0.847094 -0.102262
v 0.242628 0.847094 -0.102262
v 0.257194 0.586615 0.035325
v 0.257194 0.586615 0.035325
v 0.257194 0.586615 0.035325
v 0.257194 0.586615 0.035325
v 0.257194 0.586615 0.035325
v 0.139852 0.571716 0.008283
v 0.139852 0.571716 0.008283
v 0.139852 0.571716 0.008283
v 0.139852 0.571716 0.008283
v 0.139852 0.571716 0.008283
v -0.233325 0.358071 -0.775504
v -0.233325 0.358071 -0.775504
v -0.233325 0.358071 -0.775504
v -0.233325 0.358071 -0.775504
v -0.129863 0.350769 -0.763486
v -0.129863 0.350769 -0.763486
v -0.129863 0.350769 -0.763486
v -0.129863 0.350769 -0.763486
v -0.169451 0.231370 -0.517226
v -0.169451 0.231370 -0.517226
v -0.169451 0.231370 -0.517226
v -0.169451 0.231370 -0.517226
v -0.169451 0.231370 -0.517226
v -0.289664 0.232100 -0.535542
v -0.289664 0.232100 -0.535542
v -0.289664 0.232100 -0.535542
v -0.289664 0.232100 -0.535542
v -0.289664 0.232100 -0.535542
v 0.162708 0.698109 -0.316230
v 0.162708 0.698109 -0.316230
v 0.162708 0.698109 -0.316230
v 0.347968 0.721759 -0.270188
v 0.347968 0.721759 -0.270188
v 0.347968 0.721759 -0.270188
v 0.365411 0.502212 -0.091678
v 0.365411 0.502212 -0.091678
v 0.365411 0.502212 -0.091678
v 0.365411 0.502212 -0.091678
v 0.118358 0.469339 -0.154901
v 0.118358 0.469339 -0.154901
v 0.118358 0.469339 -0.154901
v 0.118358 0.469339 -0.154901
v -0.273643 0.082478 -0.836030
v -0.273643 0.082478 -0.836030
v -0.273643 0.082478 -0.836030
v -0.083806 0.082626 -0.807341
v -0.083806 0.082626 -0.807341
v -0.083806 0.082626 -0.807341
v -0.092954 0.061684 -0.522730
v -0.092954 0.061684 -0.522730
v -0.092954 0.061684 -0.522730
v -0.092954 0.061684 -0.522730
v -0.346883 0.060235 -0.561586
v -0.346883 0.060235 -0.561586
v -0.346883 0.060235 -0.561586
v -0.346883 0.060235 -0.561586
v -0.112031 1.998596 0.983000
v -0.112031 1.998596 0.983000
v -0.112031 1.998596 0.983000
v 0.006408 1.949088 0.947570
v 0.006408 1.949088 0.947570
v 0.006408 1.949088 0.947570
v 0.049934 1.896718 1.119726
v 0.049934 1.896718 1.119726
v 0.049934 1.896718 1.119726
v -0.084459 1.832804 1.037927
v -0.084459 1.832804 1.037927
v -0.084459 1.832804 1.037927
v 0.457270 1.576167 -0.262939
v 0.457270 1.576167 -0.262939
v 0.457270 1.576167 -0.262939
v 0.712115 1.610879 -0.154562
v 0.712115 1.610879 -0.154562
v 0.712115 1.610879 -0.154562
v 0.540193 1.544677 -0.175774
v 0.540193 1.544677 -0.175774
v 0.540193 1.544677 -0.175774
v 0.379437 1.660240 -0.246572
v 0.379437 1.660240 -0.246572
v 0.379437 1.660240 -0.246572
v 0.096542 0.155506 0.095883
v 0.096542 0.155506 0.095883
v 0.096542 0.155506 0.095883
v 0.119192 0.144212 0.015027
v 0.119192 0.144212 0.015027
v 0.119192 0.144212 0.015027
v 0.365488 0.178129 0.079803
v 0.365488 0.178129 0.079803
v 0.365488 0.178129 0.079803
v 0.342848 0.189589 0.160534
v 0.342848 0.189589 0.160534
v 0.342848 0.189589 0.160534
v -0.406449 0.091648 -0.173689
v -0.406449 0.091648 -0.173689
v -0.406449 0.091648 -0.173689
v -0.401778 0.012145 -0.203954
v -0.401778 0.012145 -0.203954
v -0.401778 0.012145 -0.203954
v -0.147825 0.010931 -0.165019
v -0.147825 0.010931 -0.165019
v -0.147825 0.010931 -0.165019
v -0.152518 0.091690 -0.134611
v -0.152518 0.091690 -0.134611
v -0.152518 0.091690 -0.134611
v -0.259923 1.434839 -0.174453
v -0.259923 1.434839 -0.174453
v -0.259923 1.434839 -0.174453
v -0.259923 1.434839 -0.174453
v -0.293355 1.425606 -0.028882
v -0.293355 1.425606 -0.028882
v -0.293355 1.425606 -0.028882
v -0.293355 1.425606 -0.028882
v -0.260379 2.321426 0.504716
v -0.260379 2.321426 0.504716
v -0.260379 2.321426 0.504716
v -0.260379 2.321426 0.504716
v -0.294014 2.351799 0.423475
v -0.294014 2.351799 0.423475
v -0.294014 2.351799 0.423475
v -0.294014 2.351799 0.423475
v 0.261526 1.444649 0.159860
v 0.261526 1.444649 0.159860
v 0.261526 1.444649 0.159860
v 0.261526 1.444649 0.159860
v 0.281601 1.366431 0.050746
v 0.281601 1.366431 0.050746
v 0.281601 1.366431 0.050746
v 0.281601 1.366431 0.050746
v 0.279883 2.409526 0.431231
v 0.279883 2.409526 0.431231
v 0.279883 2.409526 0.431231
v 0.279883 2.409526 0.431231
v 0.263601 2.354050 0.494861
v 0.263601 2.354050 0.494861
v 0.263601 2.354050 0.494861
v 0.263601 2.354050 0.494861
v 0.076321 2.460303 0.489862
v 0.076321 2.460303 0.489862
v 0.076321 2.460303 0.489862
v 0.076321 2.460303 0.489862
v 0.076321 2.460303 0.489862
v 0.080588 2.371785 0.610508
v 0.080588 2.371785 0.610508
v 0.080588 2.371785 0.610508
v 0.080588 2.371785 0.610508
v 0.080588 2.371785 0.610508
v -0.012940 2.454432 0.488035
v -0.012940 2.454432 0.488035
v -0.009219 2.367341 0.609678
v -0.009219 2.367341 0.609678
v -0.102718 2.448543 0.487786
v -0.102718 2.448543 0.487786
v -0.102718 2.448543 0.487786
v -0.102718 2.448543 0.487786
v -0.102718 2.448543 0.487786
v -0.098441 2.359999 0.608326
v -0.098441 2.359999 0.608326
v -0.098441 2.359999 0.608326
v -0.098441 2.359999 0.608326
v -0.098441 2.359999 0.608326
v -0.035249 1.390936 -0.058229
v -0.035249 1.390936 -0.058229
v -0.035249 1.390936 -0.058229
v -0.035249 1.390936 -0.058229
v -0.065626 1.416914 0.071433
v -0.065626 1.416914 0.071433
v -0.065626 1.416914 0.071433
v -0.065626 1.416914 0.071433
v 0.005359 1.381998 -0.026634
v 0.005359 1.381998 -0.026634
v -0.020357 1.423322 0.097951
v -0.020357 1.423322 0.097951
v 0.046040 1.373167 0.006959
v 0.046040 1.373167 0.006959
v 0.046040 1.373167 0.006959
v 0.046040 1.373167 0.006959
v 0.025731 1.432896 0.124232
v 0.025731 1.432896 0.124232
v 0.025731 1.432896 0.124232
v 0.025731 1.432896 0.124232
v 0.309896 1.537724 -0.008263
v 0.309896 1.537724 -0.008263
v 0.309896 1.537724 -0.008263
v 0.309896 1.537724 -0.008263
v 0.275527 1.527204 0.116723
v 0.275527 1.527204 0.116723
v 0.275527 1.527204 0.116723
v 0.275527 1.527204 0.116723
v 0.231745 1.774193 0.097704
v 0.231745 1.774193 0.097704
v 0.231745 1.774193 0.097704
v 0.231745 1.774193 0.097704
v 0.212934 1.737639 0.171243
v 0.212934 1.737639 0.171243
v 0.212934 1.737639 0.171243
v 0.212934 1.737639 0.171243
v 0.199619 2.276636 0.345858
v 0.199619 2.276636 0.345858
v 0.199619 2.276636 0.345858
v 0.199619 2.276636 0.345858
v 0.213035 2.222567 0.366661
v 0.213035 2.222567 0.366661
v 0.213035 2.222567 0.366661
v 0.213035 2.222567 0.366661
v -0.301835 1.600856 -0.015927
v -0.301835 1.600856 -0.015927
v -0.301835 1.600856 -0.015927
v -0.301835 1.600856 -0.015927
v -0.259377 1.636491 -0.152759
v -0.259377 1.636491 -0.152759
v -0.259377 1.636491 -0.152759
v -0.259377 1.636491 -0.152759
v -0.201978 1.782108 0.087194
v -0.201978 1.782108 0.087194
v -0.201978 1.782108 0.087194
v -0.201978 1.782108 0.087194
v -0.183978 1.818550 0.014819
v -0.183978 1.818550 0.014819
v -0.183978 1.818550 0.014819
v -0.183978 1.818550 0.014819
v -0.186835 2.162108 0.396939
v -0.186835 2.162108 0.396939
v -0.186835 2.162108 0.396939
v -0.186835 2.162108 0.396939
v -0.205566 2.183771 0.343128
v -0.205566 2.183771 0.343128
v -0.205566 2.183771 0.343128
v -0.205566 2.183771 0.343128
v -0.222860 2.017598 0.825532
v -0.222860 2.017598 0.825532
v -0.222860 2.017598 0.825532
v -0.222860 2.017598 0.825532
v -0.165693 1.956260 0.797141
v -0.165693 1.956260 0.797141
v -0.165693 1.956260 0.797141
v -0.165693 1.956260 0.797141
v -0.210809 1.831766 0.927543
v -0.210809 1.831766 0.927543
v -0.210809 1.831766 0.927543
v -0.210809 1.831766 0.927543
v -0.285484 1.850136 0.939846
v -0.285484 1.850136 0.939846
v -0.285484 1.850136 0.939846
v -0.285484 1.850136 0.939846
v 0.496827 1.863850 -0.066575
v 0.496827 1.863850 -0.066575
v 0.496827 1.863850 -0.066575
v 0.496827 1.863850 -0.066575
v 0.582156 1.897798 -0.084534
v 0.582156 1.897798 -0.084534
v 0.582156 1.897798 -0.084534
v 0.582156 1.897798 -0.084534
v 0.507787 1.864198 -0.282510
v 0.507787 1.864198 -0.282510
v 0.507787 1.864198 -0.282510
v 0.507787 1.864198 -0.282510
v 0.450428 1.825878 -0.239830
v 0.450428 1.825878 -0.239830
v 0.450428 1.825878 -0.239830
v 0.450428 1.825878 -0.239830
v 0.315178 0.657457 0.016952
v 0.315178 0.657457 0.016952
v 0.315178 0.657457 0.016952
v 0.315178 0.657457 0.016952
v 0.317028 0.787439 -0.056183
v 0.317028 0.787439 -0.056183
v 0.317028 0.787439 -0.056183
v 0.317028 0.787439 -0.056183
v 0.066760 0.763803 -0.098988
v 0.066760 0.763803 -0.098988
v 0.066760 0.763803 -0.098988
v 0.066760 0.763803 -0.098988
v 0.066394 0.629533 -0.034394
v 0.066394 0.629533 -0.034394
v 0.066394 0.629533 -0.034394
v 0.066394 0.629533 -0.034394
v -0.085609 0.248615 -0.573449
v -0.085609 0.248615 -0.573449
v -0.085609 0.248615 -0.573449
v -0.085609 0.248615 -0.573449
v -0.064743 0.306067 -0.698397
v -0.064743 0.306067 -0.698397
v -0.064743 0.306067 -0.698397
v -0.064743 0.306067 -0.698397
v -0.318994 0.315472 -0.732972
v -0.318994 0.315472 -0.732972
v -0.318994 0.315472 -0.732972
v -0.318994 0.315472 -0.732972
v -0.339602 0.252313 -0.611033
v -0.339602 0.252313 -0.611033
v -0.339602 0.252313 -0.611033
v -0.339602 0.252313 -0.611033
v 0.342164 0.563756 -0.136254
v 0.342164 0.563756 -0.136254
v 0.342164 0.563756 -0.136254
v 0.342164 0.563756 -0.136254
v 0.353133 0.676281 -0.241386
v 0.353133 0.676281 -0.241386
v 0.353133 0.676281 -0.241386
v 0.353133 0.676281 -0.241386
v 0.150730 0.650213 -0.292066
v 0.150730 0.650213 -0.292066
v 0.150730 0.650213 -0.292066
v 0.150730 0.650213 -0.292066
v 0.140044 0.537188 -0.187715
v 0.140044 0.537188 -0.187715
v 0.140044 0.537188 -0.187715
v 0.140044 0.537188 -0.187715
v -0.106247 0.075887 -0.601133
v -0.106247 0.075887 -0.601133
v -0.106247 0.075887 -0.601133
v -0.106247 0.075887 -0.601133
v -0.082834 0.071723 -0.754069
v -0.082834 0.071723 -0.754069
v -0.082834 0.071723 -0.754069
v -0.082834 0.071723 -0.754069
v -0.290370 0.071555 -0.785370
v -0.290370 0.071555 -0.785370
v -0.290370 0.071555 -0.785370
v -0.290370 0.071555 -0.785370
v -0.313781 0.075190 -0.632352
v -0.313781 0.075190 -0.632352
v -0.313781 0.075190 -0.632352
v -0.313781 0.075190 -0.632352
v 0.034482 1.915309 1.058611
v 0.034482 1.915309 1.058611
v 0.020800 1.931772 1.004493
v 0.020800 1.931772 1.004493
v -0.103446 1.944281 1.000877
v -0.103446 1.944281 1.000877
v -0.094799 1.891489 1.017496
v -0.094799 1.891489 1.017496
v 0.597345 1.566404 -0.168593
v 0.597345 1.566404 -0.168593
v 0.651293 1.587295 -0.161941
v 0.651293 1.587295 -0.161941
v 0.453542 1.610153 -0.222826
v 0.453542 1.610153 -0.222826
v 0.431152 1.634409 -0.220785
v 0.431152 1.634409 -0.220785
v 0.062437 2.619450 0.586896
v 0.062437 2.619450 0.586896
v 0.062437 2.619450 0.586896
v 0.063352 2.539687 0.713971
v 0.063352 2.539687 0.713971
v 0.063352 2.539687 0.713971
v -0.026444 2.612532 0.585887
v -0.026444 2.612532 0.585887
v -0.025426 2.532537 0.711644
v -0.025426 2.532537 0.711644
v -0.116520 2.607614 0.580551
v -0.116520 2.607614 0.580551
v -0.116520 2.607614 0.580551
v -0.115542 2.527673 0.707924
v -0.115542 2.527673 0.707924
v -0.115542 2.527673 0.707924
v -0.439085 1.866604 0.500238
v -0.439085 1.866604 0.500238
v -0.366379 1.838550 0.471171
v -0.366379 1.838550 0.471171
v -0.497896 1.807179 0.408491
v -0.497896 1.807179 0.408491
v -0.497896 1.807179 0.408491
v -0.424289 1.770342 0.392271
v -0.424289 1.770342 0.392271
v -0.424289 1.770342 0.392271
v -0.424289 1.770342 0.392271
v -0.319653 1.794295 0.432243
v -0.319653 1.794295 0.432243
v -0.348569 1.757008 0.396666
v -0.348569 1.757008 0.396666
v -0.348569 1.757008 0.396666
v -0.543307 1.844421 0.457336
v -0.543307 1.844421 0.457336
v -0.543307 1.844421 0.457336
v -0.514156 1.871265 0.505914
v -0.514156 1.871265 0.505914
v -0.514156 1.871265 0.505914
v 0.400065 2.376901 -0.077121
v 0.400065 2.376901 -0.077121
v 0.400065 2.376901 -0.077121
v 0.322710 2.353004 -0.096066
v 0.322710 2.353004 -0.096066
v 0.322710 2.353004 -0.096066
v 0.322710 2.353004 -0.096066
v 0.422917 2.237978 -0.003194
v 0.422917 2.237978 -0.003194
v 0.342133 2.219323 -0.012694
v 0.342133 2.219323 -0.012694
v 0.263306 2.299143 -0.093161
v 0.263306 2.299143 -0.093161
v 0.263306 2.299143 -0.093161
v 0.273306 2.231569 -0.051905
v 0.273306 2.231569 -0.051905
v 0.482898 2.289316 -0.008722
v 0.482898 2.289316 -0.008722
v 0.482898 2.289316 -0.008722
v 0.472191 2.357453 -0.047382
v 0.472191 2.357453 -0.047382
v 0.472191 2.357453 -0.047382
v 0.206026 0.930293 0.602849
v 0.206026 0.930293 0.602849
v 0.206026 0.930293 0.602849
v 0.206026 0.930293 0.602849
v 0.136244 0.930709 0.601805
v 0.136244 0.930709 0.601805
v 0.136244 0.930709 0.601805
v 0.136244 0.930709 0.601805
v 0.216442 0.988328 0.717565
v 0.216442 0.988328 0.717565
v 0.216442 0.988328 0.717565
v 0.216442 0.988328 0.717565
v 0.131628 0.998911 0.718173
v 0.131628 0.998911 0.718173
v 0.131628 0.998911 0.718173
v 0.131628 0.998911 0.718173
v 0.065517 0.937788 0.626990
v 0.065517 0.937788 0.626990
v 0.065517 0.937788 0.626990
v 0.065517 0.937788 0.626990
v 0.063308 0.970709 0.683259
v 0.063308 0.970709 0.683259
v 0.063308 0.970709 0.683259
v 0.063308 0.970709 0.683259
v 0.273754 0.970435 0.686692
v 0.273754 0.970435 0.686692
v 0.273754 0.970435 0.686692
v 0.273754 0.970435 0.686692
v 0.275709 0.946543 0.632115
v 0.275709 0.946543 0.632115
v 0.275709 0.946543 0.632115
v 0.275709 0.946543 0.632115
v -0.198439 0.744366 -0.134885
v -0.198439 0.744366 -0.134885
v -0.198439 0.744366 -0.134885
v -0.198439 0.744366 -0.134885
v -0.266089 0.750308 -0.149829
v -0.266089 0.750308 -0.149829
v -0.266089 0.750308 -0.149829
v -0.266089 0.750308 -0.149829
v -0.240839 0.695627 0.033858
v -0.240839 0.695627 0.033858
v -0.240839 0.695627 0.033858
v -0.240839 0.695627 0.033858
v -0.322982 0.704654 0.015951
v -0.322982 0.704654 0.015951
v -0.322982 0.704654 0.015951
v -0.322982 0.704654 0.015951
v -0.344693 0.743254 -0.125245
v -0.344693 0.743254 -0.125245
v -0.344693 0.743254 -0.125245
v -0.344693 0.743254 -0.125245
v -0.365347 0.720837 -0.043449
v -0.365347 0.720837 -0.043449
v -0.365347 0.720837 -0.043449
v -0.365347 0.720837 -0.043449
v -0.161253 0.701281 0.001881
v -0.161253 0.701281 0.001881
v -0.161253 0.701281 0.001881
v -0.161253 0.701281 0.001881
v -0.140863 0.726819 -0.079476
v -0.140863 0.726819 -0.079476
v -0.140863 0.726819 -0.079476
v -0.140863 0.726819 -0.079476
v 0.180496 3.130640 0.547252
v 0.180496 3.130640 0.547252
v 0.180496 3.130640 0.547252
v 0.186315 2.756532 0.505580
v 0.186315 2.756532 0.505580
v 0.186315 2.756532 0.505580
v 0.183564 3.081636 0.994566
v 0.183564 3.081636 0.994566
v 0.183564 3.081636 0.994566
v 0.186497 2.589652 0.914322
v 0.186497 2.589652 0.914322
v 0.186497 2.589652 0.914322
v -0.269492 3.129012 0.550161
v -0.269492 3.129012 0.550161
v -0.269492 3.129012 0.550161
v -0.262367 2.739871 0.493367
v -0.262367 2.739871 0.493367
v -0.262367 2.739871 0.493367
v -0.266424 3.080009 0.997474
v -0.266424 3.080009 0.997474
v -0.266424 3.080009 0.997474
v -0.262441 2.565917 0.900303
v -0.262441 2.565917 0.900303
v -0.262441 2.565917 0.900303
v -0.292578 2.675957 0.559343
v -0.292578 2.675957 0.559343
v -0.292578 2.675957 0.559343
v -0.292578 2.675957 0.559343
v -0.307916 2.604290 0.669811
v -0.307916 2.604290 0.669811
v -0.307916 2.604290 0.669811
v -0.307916 2.604290 0.669811
v -0.292906 2.565345 0.798983
v -0.292906 2.565345 0.798983
v -0.292906 2.565345 0.798983
v -0.292906 2.565345 0.798983
v 0.097381 2.743032 0.461076
v 0.097381 2.743032 0.461076
v 0.097381 2.743032 0.461076
v 0.097381 2.743032 0.461076
v -0.034376 2.733149 0.435280
v -0.034376 2.733149 0.435280
v -0.034376 2.733149 0.435280
v -0.034376 2.733149 0.435280
v -0.168663 2.733017 0.452809
v -0.168663 2.733017 0.452809
v -0.168663 2.733017 0.452809
v -0.168663 2.733017 0.452809
v 0.212993 3.044742 0.507311
v 0.212993 3.044742 0.507311
v 0.212993 3.044742 0.507311
v 0.212993 3.044742 0.507311
v 0.228692 2.927109 0.489037
v 0.228692 2.927109 0.489037
v 0.228692 2.927109 0.489037
v 0.228692 2.927109 0.489037
v 0.214150 2.828851 0.499474
v 0.214150 2.828851 0.499474
v 0.214150 2.828851 0.499474
v 0.214150 2.828851 0.499474
v -0.299424 2.663445 0.973123
v -0.299424 2.663445 0.973123
v -0.299424 2.663445 0.973123
v -0.299424 2.663445 0.973123
v -0.316966 2.825727 1.023909
v -0.316966 2.825727 1.023909
v -0.316966 2.825727 1.023909
v -0.316966 2.825727 1.023909
v -0.299241 2.981991 1.021710
v -0.299241 2.981991 1.021710
v -0.299241 2.981991 1.021710
v -0.299241 2.981991 1.021710
v 0.216385 2.984702 1.018778
v 0.216385 2.984702 1.018778
v 0.216385 2.984702 1.018778
v 0.216385 2.984702 1.018778
v 0.231262 2.832730 1.025006
v 0.231262 2.832730 1.025006
v 0.231262 2.832730 1.025006
v 0.231262 2.832730 1.025006
v 0.215533 2.680760 0.981233
v 0.215533 2.680760 0.981233
v 0.215533 2.680760 0.981233
v 0.215533 2.680760 0.981233
v -0.302637 3.042374 0.510432
v -0.302637 3.042374 0.510432
v -0.302637 3.042374 0.510432
v -0.302637 3.042374 0.510432
v -0.319688 2.920404 0.489009
v -0.319688 2.920404 0.489009
v -0.319688 2.920404 0.489009
v -0.319688 2.920404 0.489009
v -0.300709 2.814768 0.492306
v -0.300709 2.814768 0.492306
v -0.300709 2.814768 0.492306
v -0.300709 2.814768 0.492306
v 0.092187 3.110356 1.031356
v 0.092187 3.110356 1.031356
v 0.092187 3.110356 1.031356
v 0.092187 3.110356 1.031356
v -0.041236 3.124465 1.050402
v -0.041236 3.124465 1.050402
v -0.041236 3.124465 1.050402
v -0.041236 3.124465 1.050402
v -0.174789 3.109390 1.033081
v -0.174789 3.109390 1.033081
v -0.174789 3.109390 1.033081
v -0.174789 3.109390 1.033081
v 0.213844 3.153418 0.641577
v 0.213844 3.153418 0.641577
v 0.213844 3.153418 0.641577
v 0.213844 3.153418 0.641577
v 0.231192 3.155329 0.775961
v 0.231192 3.155329 0.775961
v 0.231192 3.155329 0.775961
v 0.231192 3.155329 0.775961
v 0.215664 3.124344 0.906967
v 0.215664 3.124344 0.906967
v 0.215664 3.124344 0.906967
v 0.215664 3.124344 0.906967
v -0.169050 2.523294 0.915985
v -0.169050 2.523294 0.915985
v -0.169050 2.523294 0.915985
v -0.169050 2.523294 0.915985
v -0.034827 2.507398 0.927077
v -0.034827 2.507398 0.927077
v -0.034827 2.507398 0.927077
v -0.034827 2.507398 0.927077
v 0.097195 2.538697 0.925600
v 0.097195 2.538697 0.925600
v 0.097195 2.538697 0.925600
v 0.097195 2.538697 0.925600
v -0.299962 3.122479 0.910299
v -0.299962 3.122479 0.910299
v -0.299962 3.122479 0.910299
v -0.299962 3.122479 0.910299
v -0.317405 3.153345 0.779506
v -0.317405 3.153345 0.779506
v -0.317405 3.153345 0.779506
v -0.317405 3.153345 0.779506
v -0.301782 3.151553 0.644909
v -0.301782 3.151553 0.644909
v -0.301782 3.151553 0.644909
v -0.301782 3.151553 0.644909
v -0.178305 3.165542 0.520520
v -0.178305 3.165542 0.520520
v -0.178305 3.165542 0.520520
v -0.178305 3.165542 0.520520
v -0.044977 3.184208 0.505065
v -0.044977 3.184208 0.505065
v -0.044977 3.184208 0.505065
v -0.044977 3.184208 0.505065
v 0.088672 3.166508 0.518794
v 0.088672 3.166508 0.518794
v 0.088672 3.166508 0.518794
v 0.088672 3.166508 0.518794
v 0.221189 2.593145 0.817337
v 0.221189 2.593145 0.817337
v 0.221189 2.593145 0.817337
v 0.221189 2.593145 0.817337
v 0.238757 2.631574 0.690045
v 0.238757 2.631574 0.690045
v 0.238757 2.631574 0.690045
v 0.238757 2.631574 0.690045
v 0.221228 2.697490 0.576473
v 0.221228 2.697490 0.576473
v 0.221228 2.697490 0.576473
v 0.221228 2.697490 0.576473
v 0.098035 3.223764 0.641246
v 0.098035 3.223764 0.641246
v 0.098035 3.223764 0.641246
v 0.098035 3.223764 0.641246
v -0.044353 3.247718 0.637159
v -0.044353 3.247718 0.637159
v -0.044353 3.247718 0.637159
v -0.044353 3.247718 0.637159
v -0.186499 3.222735 0.643085
v -0.186499 3.222735 0.643085
v -0.186499 3.222735 0.643085
v -0.186499 3.222735 0.643085
v 0.106578 3.231935 0.785208
v 0.106578 3.231935 0.785208
v 0.106578 3.231935 0.785208
v 0.106578 3.231935 0.785208
v -0.043406 3.257193 0.789004
v -0.043406 3.257193 0.789004
v -0.043406 3.257193 0.789004
v -0.043406 3.257193 0.789004
v -0.193239 3.230850 0.787146
v -0.193239 3.230850 0.787146
v -0.193239 3.230850 0.787146
v -0.193239 3.230850 0.787146
v 0.099975 3.192778 0.924089
v 0.099975 3.192778 0.924089
v 0.099975 3.192778 0.924089
v 0.099975 3.192778 0.924089
v -0.042308 3.215067 0.935195
v -0.042308 3.215067 0.935195
v -0.042308 3.215067 0.935195
v -0.042308 3.215067 0.935195
v -0.184559 3.191749 0.925928
v -0.184559 3.191749 0.925928
v -0.184559 3.191749 0.925928
v -0.184559 3.191749 0.925928
v 0.100670 2.649512 1.042851
v 0.100670 2.649512 1.042851
v 0.100670 2.649512 1.042851
v 0.100670 2.649512 1.042851
v 0.107390 2.817677 1.099993
v 0.107390 2.817677 1.099993
v 0.107390 2.817677 1.099993
v 0.107390 2.817677 1.099993
v 0.101779 2.987879 1.088519
v 0.101779 2.987879 1.088519
v 0.101779 2.987879 1.088519
v 0.101779 2.987879 1.088519
v -0.041111 2.629469 1.060282
v -0.041111 2.629469 1.060282
v -0.041111 2.629469 1.060282
v -0.041111 2.629469 1.060282
v -0.042244 2.811674 1.124914
v -0.042244 2.811674 1.124914
v -0.042244 2.811674 1.124914
v -0.042244 2.811674 1.124914
v -0.040348 2.992372 1.113907
v -0.040348 2.992372 1.113907
v -0.040348 2.992372 1.113907
v -0.040348 2.992372 1.113907
v -0.183527 2.638854 1.038046
v -0.183527 2.638854 1.038046
v -0.183527 2.638854 1.038046
v -0.183527 2.638854 1.038046
v -0.192243 2.813764 1.099460
v -0.192243 2.813764 1.099460
v -0.192243 2.813764 1.099460
v -0.192243 2.813764 1.099460
v -0.182967 2.985303 1.090910
v -0.182967 2.985303 1.090910
v -0.182967 2.985303 1.090910
v -0.182967 2.985303 1.090910
v -0.369551 2.684551 0.860871
v -0.369551 2.684551 0.860871
v -0.369551 2.684551 0.860871
v -0.369551 2.684551 0.860871
v -0.394985 2.847396 0.902666
v -0.394985 2.847396 0.902666
v -0.394985 2.847396 0.902666
v -0.394985 2.847396 0.902666
v -0.370080 3.004869 0.907925
v -0.370080 3.004869 0.907925
v -0.370080 3.004869 0.907925
v -0.370080 3.004869 0.907925
v -0.393314 2.718057 0.725147
v -0.393314 2.718057 0.725147
v -0.393314 2.718057 0.725147
v -0.393314 2.718057 0.725147
v -0.421662 2.873039 0.756478
v -0.421662 2.873039 0.756478
v -0.421662 2.873039 0.756478
v -0.421662 2.873039 0.756478
v -0.394748 3.028840 0.767331
v -0.394748 3.028840 0.767331
v -0.394748 3.028840 0.767331
v -0.394748 3.028840 0.767331
v -0.370203 2.769705 0.595983
v -0.370203 2.769705 0.595983
v -0.370203 2.769705 0.595983
v -0.370203 2.769705 0.595983
v -0.396489 2.898630 0.610194
v -0.396489 2.898630 0.610194
v -0.396489 2.898630 0.610194
v -0.396489 2.898630 0.610194
v -0.372043 3.037275 0.625895
v -0.372043 3.037275 0.625895
v -0.372043 3.037275 0.625895
v -0.372043 3.037275 0.625895
v -0.170930 2.632155 0.518919
v -0.170930 2.632155 0.518919
v -0.170930 2.632155 0.518919
v -0.170930 2.632155 0.518919
v -0.026199 2.628791 0.505474
v -0.026199 2.628791 0.505474
v -0.026199 2.628791 0.505474
v -0.026199 2.628791 0.505474
v 0.112290 2.646153 0.531386
v 0.112290 2.646153 0.531386
v 0.112290 2.646153 0.531386
v 0.112290 2.646153 0.531386
v -0.175106 2.542143 0.628108
v -0.175106 2.542143 0.628108
v -0.175106 2.542143 0.628108
v -0.175106 2.542143 0.628108
v -0.022227 2.527173 0.621457
v -0.022227 2.527173 0.621457
v -0.022227 2.527173 0.621457
v -0.022227 2.527173 0.621457
v 0.123310 2.560544 0.641469
v 0.123310 2.560544 0.641469
v 0.123310 2.560544 0.641469
v 0.123310 2.560544 0.641469
v -0.171342 2.497625 0.768875
v -0.171342 2.497625 0.768875
v -0.171342 2.497625 0.768875
v -0.171342 2.497625 0.768875
v -0.025315 2.475060 0.762564
v -0.025315 2.475060 0.762564
v -0.025315 2.475060 0.762564
v -0.025315 2.475060 0.762564
v 0.112153 2.515191 0.781885
v 0.112153 2.515191 0.781885
v 0.112153 2.515191 0.781885
v 0.112153 2.515191 0.781885
v 0.284912 2.787812 0.605071
v 0.284912 2.787812 0.605071
v 0.284912 2.787812 0.605071
v 0.284912 2.787812 0.605071
v 0.306928 2.907071 0.609729
v 0.306928 2.907071 0.609729
v 0.306928 2.907071 0.609729
v 0.306928 2.907071 0.609729
v 0.284225 3.039943 0.620603
v 0.284225 3.039943 0.620603
v 0.284225 3.039943 0.620603
v 0.284225 3.039943 0.620603
v 0.309324 2.741560 0.736607
v 0.309324 2.741560 0.736607
v 0.309324 2.741560 0.736607
v 0.309324 2.741560 0.736607
v 0.333636 2.882904 0.756435
v 0.333636 2.882904 0.756435
v 0.333636 2.882904 0.756435
v 0.333636 2.882904 0.756435
v 0.309066 3.031958 0.761911
v 0.309066 3.031958 0.761911
v 0.309066 3.031958 0.761911
v 0.309066 3.031958 0.761911
v 0.285708 2.708145 0.871697
v 0.285708 2.708145 0.871697
v 0.285708 2.708145 0.871697
v 0.285708 2.708145 0.871697
v 0.308260 2.856668 0.903650
v 0.308260 2.856668 0.903650
v 0.308260 2.856668 0.903650
v 0.308260 2.856668 0.903650
v 0.286210 3.008552 0.902977
v 0.286210 3.008552 0.902977
v 0.286210 3.008552 0.902977
v 0.286210 3.008552 0.902977
v -0.185225 2.828308 0.425178
v -0.185225 2.828308 0.425178
v -0.185225 2.828308 0.425178
v -0.185225 2.828308 0.425178
v -0.195645 2.933174 0.411890
v -0.195645 2.933174 0.411890
v -0.195645 2.933174 0.411890
v -0.195645 2.933174 0.411890
v -0.187368 3.058871 0.439309
v -0.187368 3.058871 0.439309
v -0.187368 3.058871 0.439309
v -0.187368 3.058871 0.439309
v -0.042968 2.831015 0.402431
v -0.042968 2.831015 0.402431
v -0.042968 2.831015 0.402431
v -0.042968 2.831015 0.402431
v -0.045854 2.937742 0.385331
v -0.045854 2.937742 0.385331
v -0.045854 2.937742 0.385331
v -0.045854 2.937742 0.385331
v -0.045146 3.068998 0.414462
v -0.045146 3.068998 0.414462
v -0.045146 3.068998 0.414462
v -0.045146 3.068998 0.414462
v 0.098881 2.835007 0.428653
v 0.098881 2.835007 0.428653
v 0.098881 2.835007 0.428653
v 0.098881 2.835007 0.428653
v 0.104043 2.936842 0.411976
v 0.104043 2.936842 0.411976
v 0.104043 2.936842 0.411976
v 0.104043 2.936842 0.411976
v 0.097130 3.060175 0.437821
v 0.097130 3.060175 0.437821
v 0.097130 3.060175 0.437821
v 0.097130 3.060175 0.437821
vn 0.1284 0.4927 -0.8607
vn 0.0944 0.4596 -0.8831
vn 0.2812 0.6285 -0.7252
vn -0.7200 -0.5418 0.4336
vn -0.6848 -0.6046 0.4069
vn -0.7634 -0.4455 0.4678
vn -0.5338 0.0590 0.8436
vn -0.5389 0.0531 0.8407
vn -0.5460 0.0449 0.8366
vn 0.5799 0.0849 0.8103
vn 0.5583 0.1075 0.8226
vn 0.6102 0.0516 0.7906
vn 0.0004 -0.1093 0.9940
vn 0.0013 -0.1076 0.9942
vn 0.0066 -0.1119 0.9937
vn -0.0032 -0.1059 0.9944
vn -0.0050 -0.1076 0.9942
vn 0.4583 -0.8577 0.2330
vn 0.2840 -0.9003 0.3300
vn 0.6253 -0.7715 0.1173
vn -0.2098 -0.9170 0.3393
vn -0.1986 -0.9104 0.3629
vn -0.1187 -0.8478 0.5169
vn 0.7223 -0.5543 0.4136
vn 0.7633 -0.4597 0.4539
vn 0.7906 -0.3755 0.4836
vn 0.0717 -0.6364 0.7681
vn 0.0716 -0.6363 0.7681
vn 0.1044 -0.6572 0.7464
vn 0.0069 -0.6410 0.7675
vn 0.0074 -0.6405 0.7679
vn -0.0234 -0.6657 0.7458
vn -0.1627 0.3613 -0.9181
vn -0.3332 0.4328 -0.8377
vn -0.5435 0.5016 -0.6731
vn -0.0407 0.6316 -0.7742
vn -0.0394 0.6315 -0.7743
vn -0.0388 0.6329 -0.7732
vn -0.0335 0.6353 -0.7715
vn -0.0297 0.6368 -0.7704
vn 0.4199 -0.4122 -0.8086
vn 0.2935 -0.3203 -0.9007
vn 0.4850 -0.4581 -0.7449
vn 0.3287 0.5423 -0.7732
vn 0.2699 0.5424 -0.7956
vn 0.3894 0.4800 -0.7861
vn 0.0014 0.5242 -0.8516
vn 0.1769 0.5198 -0.8357
vn 0.2180 0.5267 -0.8217
vn 0.3687 -0.1957 -0.9087
vn 0.4999 -0.1301 -0.8562
vn 0.5852 -0.0819 -0.8067
vn 0.2473 0.5740 -0.7806
vn 0.3311 0.5924 -0.7344
vn 0.1717 0.5358 -0.8267
vn 0.1678 -0.0347 -0.9852
vn 0.0870 0.0062 -0.9962
vn 0.2103 -0.0563 -0.9760
vn -0.0032 0.6372 -0.7707
vn 0.0448 0.6454 -0.7626
vn 0.0578 0.6473 -0.7600
vn -0.0950 0.5613 -0.8222
vn -0.5246 0.4640 -0.7138
vn -0.0243 0.5662 -0.8239
vn -0.2621 -0.0940 0.9604
vn -0.2666 -0.1017 0.9584
vn -0.2802 -0.1252 0.9518
vn -0.2560 -0.0772 0.9636
vn -0.2745 -0.0830 0.9580
vn -0.2389 -0.0718 0.9684
vn -0.0624 -0.7318 0.6787
vn -0.2564 -0.6734 0.6934
vn -0.3147 -0.6495 0.6922
vn -0.4145 0.4914 0.7659
vn -0.3115 0.2402 0.9194
vn -0.4661 0.6511 0.5991
vn -0.1407 -0.1083 0.9841
vn -0.1564 -0.0966 0.9830
vn -0.1741 -0.0833 0.9812
vn -0.0881 -0.6812 0.7267
vn 0.0712 -0.6594 0.7484
vn -0.1321 -0.6841 0.7173
vn -0.0235 0.7623 0.6468
vn -0.0162 0.7669 0.6415
vn -0.0809 0.7230 0.6861
vn -0.2539 -0.1256 0.9590
vn -0.0654 -0.1958 0.9785
vn 0.0222 -0.2254 0.9740
vn -0.1909 -0.5908 0.7839
vn 0.7310 -0.3944 0.5569
vn -0.3637 -0.5640 0.7413
vn -0.4409 -0.0578 0.8957
vn -0.3697 -0.1003 0.9237
vn -0.3223 -0.1273 0.9380
vn -0.4252 -0.1199 0.8971
vn -0.1908 -0.1299 0.9730
vn -0.5028 -0.1146 0.8568
vn -0.7165 -0.4692 0.5162
vn -0.1845 -0.7227 0.6661
vn -0.0732 -0.7414 0.6671
vn 0.7535 0.4427 0.4861
vn 0.7380 0.4273 0.5223
vn 0.8189 0.5198 0.2432
vn 0.7135 -0.0202 0.7004
vn 0.6427 -0.0185 0.7659
vn 0.6216 -0.0180 0.7831
vn 0.7135 0.1460 -0.6853
vn 0.8245 -0.2223 0.5203
vn 0.7673 -0.2398 0.5948
vn 0.2597 -0.4678 -0.8448
vn 0.2549 -0.4692 -0.8455
vn 0.2531 -0.4697 -0.8458
vn 0.4860 0.4630 -0.7412
vn 0.4782 0.4663 -0.7442
vn 0.4878 0.4622 -0.7405
vn 0.5238 0.4089 -0.7473
vn 0.4819 0.4151 -0.7717
vn 0.4762 0.4158 -0.7748
vn -0.5210 0.0444 -0.8524
vn -0.5875 0.0738 -0.8059
vn -0.4981 0.0346 -0.8664
vn -0.6425 0.6147 -0.4575
vn -0.5468 0.6702 -0.5018
vn -0.5134 0.6865 -0.5149
vn -0.7626 -0.5512 0.3386
vn -0.7806 0.3782 -0.4975
vn -0.7073 0.4490 -0.5460
vn 0.9154 -0.2083 -0.3445
vn 0.5369 0.6648 0.5195
vn 0.5059 0.6334 0.5855
vn 0.6074 -0.7166 -0.3429
vn 0.1339 0.8358 0.5325
vn 0.0801 0.6337 0.7694
vn -0.6576 0.3503 0.6669
vn -0.4465 -0.8391 0.3108
vn -0.3765 -0.8799 0.2899
vn -0.9053 -0.3224 0.2765
vn -0.2328 -0.9522 0.1978
vn -0.1809 -0.9656 0.1866
vn 0.6961 0.2198 -0.6835
vn 0.2154 0.3081 -0.9267
vn 0.1493 0.2708 -0.9510
vn 0.9261 0.3498 0.1415
vn 0.4597 0.7926 -0.4007
vn 0.4420 0.6455 -0.6228
vn -0.8456 0.0271 0.5331
vn 0.1165 -0.7927 0.5984
vn 0.1193 -0.8095 0.5748
vn -0.9345 -0.3318 0.1292
vn -0.3869 -0.8588 0.3358
vn -0.3655 -0.8440 0.3926
vn 0.0377 -0.8803 0.4729
vn 0.9010 -0.1015 -0.4218
vn -0.0611 0.9900 -0.1268
vn 0.0011 0.9930 -0.1178
vn 0.0077 0.9931 -0.1168
vn 0.6128 0.7873 -0.0674
vn -0.0725 0.9721 -0.2229
vn -0.1281 0.9646 -0.2307
vn -0.0149 -0.8615 0.5076
vn -0.0946 -0.8539 0.5118
vn -0.1027 -0.8528 0.5120
vn -0.6640 -0.6469 0.3750
vn 0.0548 -0.8982 0.4361
vn 0.1513 -0.8925 0.4249
vn 0.4627 -0.7614 -0.4542
vn 0.4158 -0.3939 -0.8198
vn 0.1975 -0.3817 -0.9029
vn 0.1243 0.8439 -0.5219
vn 0.1804 0.8421 -0.5082
vn 0.1859 0.8418 -0.5068
vn 0.7202 0.6199 -0.3113
vn 0.6064 0.6910 -0.3936
vn 0.5967 0.6959 -0.3997
vn -0.1102 -0.7662 0.6331
vn -0.2066 -0.7500 0.6283
vn -0.2189 -0.7474 0.6272
vn -0.7763 -0.5013 0.3822
vn -0.7575 -0.5197 0.3950
vn -0.7553 -0.5218 0.3965
vn 0.2764 -0.4922 -0.8254
vn 0.2754 -0.4895 -0.8273
vn 0.2750 -0.4884 -0.8281
vn 0.0273 0.8155 -0.5781
vn 0.0343 0.8141 -0.5797
vn 0.0180 0.8174 -0.5758
vn 0.7349 0.6708 -0.0996
vn 0.9433 0.3301 0.0350
vn 0.6676 0.7333 -0.1285
vn 0.0507 -0.3002 0.9525
vn 0.2410 -0.1934 0.9511
vn 0.0080 -0.3220 0.9467
vn -0.9999 -0.0151 0.0017
vn -0.8251 -0.5566 0.0972
vn -0.6587 -0.7411 0.1299
vn 0.0335 -0.9821 -0.1851
vn 0.0326 -0.9812 -0.1901
vn 0.0322 -0.9808 -0.1922
vn 0.1418 0.1893 -0.9716
vn 0.1340 0.1852 -0.9735
vn 0.1261 0.1812 -0.9753
vn 0.8104 0.1994 -0.5508
vn 0.9859 -0.0025 -0.1674
vn 0.7624 0.2299 -0.6049
vn -0.9254 0.1383 -0.3528
vn 0.5293 -0.1496 -0.8351
vn 0.5847 -0.1566 -0.7960
vn -0.9692 0.2188 -0.1133
vn -0.9450 -0.0538 0.3226
vn -0.8418 -0.1838 0.5076
vn 0.3693 -0.8070 -0.4609
vn -0.2472 0.9124 0.3263
vn 0.3588 -0.8180 -0.4495
vn -0.5503 0.1706 0.8173
vn -0.7589 0.3251 0.5643
vn -0.2902 0.6433 0.7085
vn 0.4195 -0.1750 -0.8907
vn -0.3085 0.5997 0.7383
vn 0.2134 -0.2288 -0.9498
vn 0.4253 0.2698 -0.8639
vn 0.1669 0.7933 0.5855
vn 0.4945 0.0129 -0.8691
vn 0.8445 0.0778 -0.5299
vn 0.8801 0.3111 0.3585
vn 0.1464 -0.1715 0.9743
vn 0.9059 0.3533 0.2335
vn -0.5807 -0.2323 0.7803
vn -0.7519 -0.2153 0.6232
vn -0.9075 0.3948 -0.1436
vn 0.1761 -0.0354 -0.9837
vn -0.9185 0.3913 0.0575
vn 0.0928 -0.9821 0.1636
vn 0.0921 -0.9820 0.1648
vn 0.0931 -0.9822 0.1633
vn -0.9814 0.0445 -0.1866
vn -0.9980 0.0489 0.0394
vn -0.9938 0.0496 0.0998
vn 0.2817 -0.4458 -0.8497
vn 0.2800 -0.4471 -0.8495
vn 0.2771 -0.4493 -0.8493
vn 0.8394 0.2737 0.4696
vn 0.9153 0.2747 0.2946
vn 0.8142 0.2717 0.5132
vn -0.2569 0.2368 0.9370
vn -0.2710 0.2286 0.9350
vn -0.2470 0.2426 0.9382
vn -0.1422 -0.3587 0.9225
vn -0.1430 -0.3567 0.9232
vn -0.1419 -0.3594 0.9223
vn -0.9620 0.1234 -0.2434
vn -0.9492 0.2859 -0.1313
vn -0.9394 0.3279 -0.1001
vn 0.0197 -0.9909 -0.1331
vn 0.0222 -0.9907 -0.1343
vn 0.0265 -0.9903 -0.1364
vn 0.9237 0.3476 0.1608
vn 0.9878 0.1521 0.0345
vn 0.8967 0.3979 0.1940
vn -0.0520 0.9371 0.3452
vn -0.0494 0.9366 0.3469
vn -0.0474 0.9363 0.3481
vn -0.0881 -0.3331 0.9388
vn -0.8159 -0.2833 0.5041
vn -0.8959 -0.2479 0.3687
vn 0.2307 -0.3371 -0.9128
vn 0.1714 -0.7479 -0.6413
vn -0.2551 -0.5658 0.7841
vn -0.1639 -0.7601 0.6288
vn 0.6763 -0.3013 -0.6722
vn 0.0147 -0.8416 0.5398
vn 0.6485 -0.1299 -0.7501
vn 0.7865 -0.2833 -0.5487
vn 0.8631 -0.5046 -0.0193
vn 0.8168 -0.5458 0.1869
vn 0.0585 0.9921 0.1106
vn 0.5770 0.7496 -0.3244
vn 0.6006 0.7204 -0.3470
vn -0.0139 0.9203 0.3910
vn -0.2960 0.7553 0.5848
vn -0.3170 0.7371 0.5968
vn -0.9808 -0.0931 -0.1715
vn -0.9769 -0.1002 -0.1888
vn -0.9853 -0.0837 -0.1488
vn -0.8932 0.0247 -0.4489
vn -0.5920 0.2269 -0.7734
vn -0.5288 0.2551 -0.8095
vn 0.9833 -0.1193 0.1373
vn 0.9842 -0.1241 0.1264
vn 0.9856 -0.1342 0.1029
vn 0.7641 -0.0369 0.6440
vn 0.9400 0.2682 0.2110
vn 0.5736 -0.1960 0.7953
vn -0.0019 -0.9997 0.0249
vn -0.0015 -0.9997 0.0256
vn -0.0007 -0.9996 0.0271
vn 0.0311 -0.9791 -0.2009
vn 0.0311 -0.9791 -0.2008
vn -0.9324 -0.1784 -0.3144
vn -0.9296 -0.1733 -0.3253
vn -0.9363 -0.1863 -0.2976
vn -0.8842 0.1599 -0.4389
vn -0.7323 0.4910 -0.4719
vn -0.6834 0.5581 -0.4706
vn 0.9869 0.0569 0.1510
vn 0.9875 0.0585 0.1466
vn 0.9887 0.0624 0.1360
vn 0.8506 -0.2616 0.4561
vn 0.8763 0.2721 0.3977
vn 0.7483 -0.4991 0.4370
vn 0.2621 -0.6697 -0.6948
vn 0.2629 -0.6705 -0.6938
vn 0.2644 -0.6720 -0.6917
vn 0.2704 -0.4877 -0.8301
vn 0.2690 -0.4922 -0.8279
vn 0.2707 -0.4867 -0.8306
vn -0.9707 0.1036 -0.2167
vn -0.9708 0.1036 -0.2164
vn -0.2734 0.7828 -0.5590
vn -0.5489 0.6932 -0.4671
vn -0.2473 0.7874 -0.5647
vn 0.9678 -0.1497 0.2023
vn 0.9551 -0.1588 0.2501
vn 0.9692 -0.1486 0.1963
vn 0.3217 -0.7214 0.6132
vn 0.5026 -0.6299 0.5921
vn 0.2986 -0.7306 0.6141
vn 0.1043 -0.8987 -0.4259
vn -0.1794 -0.8755 -0.4487
vn -0.2119 -0.4511 -0.8669
vn -0.3979 -0.3430 -0.8509
vn -0.9974 -0.0705 -0.0165
vn -0.9829 -0.1682 -0.0750
vn -0.9985 -0.0548 -0.0071
vn -0.0412 0.9729 -0.2276
vn -0.6871 0.7192 -0.1032
vn 0.0144 0.9724 -0.2330
vn 0.9984 0.0509 0.0236
vn 0.9889 0.1161 0.0927
vn 0.9989 0.0441 0.0165
vn 0.0412 -0.9012 0.4314
vn 0.7437 -0.5579 0.3683
vn -0.0567 -0.9058 0.4198
vn -0.9434 -0.2641 -0.2006
vn -0.9478 -0.2850 -0.1433
vn -0.9378 -0.2441 -0.2469
vn 0.1352 0.4542 -0.8806
vn -0.2166 0.2312 -0.9485
vn -0.2401 0.2138 -0.9469
vn 0.8922 0.3122 0.3264
vn 0.9114 0.1742 0.3730
vn 0.9120 0.1637 0.3761
vn -0.8871 -0.1063 0.4492
vn 0.5517 -0.5461 0.6304
vn 0.5059 -0.5168 0.6906
vn 0.8359 -0.5213 -0.1719
vn 0.8390 -0.3425 -0.4228
vn 0.8357 -0.3429 -0.4290
vn 0.7380 -0.6635 -0.1227
vn 0.8247 0.4040 0.3957
vn 0.8063 0.4668 0.3632
vn -0.8509 0.4392 0.2881
vn -0.7724 0.4335 0.4642
vn -0.8565 0.4390 0.2714
vn -0.6504 0.7331 0.1989
vn -0.8338 -0.5280 -0.1615
vn -0.7974 -0.4600 -0.3906
vn -0.9612 -0.2087 0.1804
vn -0.9830 0.1328 -0.1267
vn -0.9732 0.1674 -0.1578
vn -0.9808 -0.1034 0.1655
vn -0.8389 0.2911 -0.4600
vn -0.9704 -0.1281 0.2046
vn -0.8769 0.4795 -0.0338
vn -0.8677 0.4851 -0.1086
vn -0.8804 0.4739 0.0196
vn -0.8833 0.2653 0.3865
vn -0.8868 0.2675 0.3768
vn -0.8823 0.2648 0.3891
vn -0.9647 0.0079 -0.2633
vn -0.9673 -0.0021 -0.2535
vn -0.9738 -0.0304 -0.2256
vn -0.9652 -0.0359 0.2591
vn -0.9850 0.0225 0.1713
vn -0.9902 0.0488 0.1311
vn 0.9735 0.1462 -0.1760
vn 0.9798 -0.0711 0.1867
vn 0.9658 0.1618 -0.2025
vn 0.9588 0.1673 -0.2297
vn 0.7810 -0.3398 0.5240
vn 0.9440 0.1927 -0.2679
vn 0.9306 0.1891 0.3134
vn 0.9396 0.1885 0.2856
vn 0.9428 0.1883 0.2751
vn 0.8714 0.4039 -0.2784
vn 0.9128 0.3533 -0.2047
vn 0.8582 0.4175 -0.2987
vn 0.9683 -0.0626 0.2417
vn 0.9686 -0.0622 0.2408
vn 0.9633 -0.0699 0.2590
vn 0.8059 -0.3301 -0.4915
vn 0.6575 -0.4253 -0.6219
vn 0.6225 -0.4426 -0.6455
vn -0.1101 -0.9372 0.3310
vn -0.3603 -0.8936 0.2678
vn -0.4583 -0.8216 0.3391
vn -0.4817 -0.8748 -0.0518
vn -0.5637 -0.8255 -0.0274
vn -0.0928 -0.9848 -0.1466
vn -0.0207 -0.9609 0.2763
vn -0.2724 -0.9366 0.2202
vn 0.0406 -0.9992 0.0066
vn -0.0047 -0.9991 -0.0431
vn 0.1063 -0.9912 0.0788
vn 0.9965 0.0774 0.0302
vn 0.9967 0.0743 0.0313
vn 0.9960 0.0854 0.0274
vn -0.0613 0.9620 -0.2660
vn -0.0699 0.9613 -0.2666
vn -0.0602 0.9635 -0.2609
vn 0.0185 -0.5186 0.8548
vn 0.0031 -0.5210 0.8535
vn 0.0288 -0.5083 0.8607
vn -0.0524 0.9628 -0.2651
vn -0.0481 0.9622 -0.2682
vn 0.3957 0.7240 0.5650
vn 0.3740 0.6884 0.6214
vn 0.3554 0.6576 0.6643
vn 0.1974 0.9769 -0.0820
vn 0.1759 0.9842 -0.0177
vn 0.1556 0.9870 0.0411
vn -0.5129 0.7019 0.4943
vn -0.5051 0.6947 0.5122
vn -0.5190 0.7076 0.4794
vn -0.4650 0.8714 -0.1562
vn -0.4979 0.7989 -0.3372
vn -0.4377 0.8978 -0.0487
vn -0.2830 -0.0794 -0.9558
vn -0.5456 -0.0737 -0.8348
vn -0.5635 -0.0730 -0.8229
vn -0.0710 0.8425 0.5340
vn -0.0728 0.8423 0.5340
vn -0.0775 0.8442 0.5304
vn -0.0729 0.8423 0.5340
vn -0.0751 0.8422 0.5339
vn -0.0264 0.5224 -0.8523
vn -0.0270 0.5228 -0.8520
vn -0.0167 0.5194 -0.8543
vn -0.0161 0.5188 -0.8547
vn -0.0119 0.5176 -0.8556
vn 0.0185 -0.5236 0.8517
vn 0.0062 -0.5245 0.8514
vn -0.9967 -0.0760 -0.0290
vn -0.9966 -0.0764 -0.0321
vn -0.9970 -0.0750 -0.0197
vn -0.8846 0.4092 -0.2237
vn -0.8875 0.4240 -0.1806
vn 0.3882 0.6560 -0.6473
vn -0.2596 -0.7939 0.5498
vn 0.3860 0.6587 -0.6458
vn 0.7852 -0.3132 0.5342
vn 0.8051 -0.3344 0.4898
vn -0.1730 -0.9777 0.1192
vn -0.2182 -0.9683 0.1212
vn 0.0402 -0.1536 -0.9873
vn 0.1282 -0.1681 -0.9774
vn 0.1440 -0.1705 -0.9748
vn -0.2360 -0.0783 -0.9686
vn -0.0785 -0.1175 -0.9900
vn -0.0516 -0.1239 -0.9910
vn -0.1008 0.0583 0.9932
vn -0.1111 0.0653 0.9917
vn 0.4620 -0.2313 0.8562
vn 0.4773 -0.2429 0.8445
vn 0.9104 0.2049 0.3593
vn 0.8949 0.2703 0.3550
vn 0.3064 -0.1055 0.9460
vn 0.9580 0.2038 0.2019
vn 0.2508 -0.1224 0.9603
vn -0.8942 0.4322 -0.1168
vn -0.7024 0.6980 -0.1393
vn -0.9138 0.3904 -0.1125
vn -0.6365 -0.0127 -0.7711
vn -0.6012 0.0099 -0.7990
vn -0.0469 -0.9986 -0.0253
vn -0.0251 -0.9994 -0.0251
vn 0.7370 -0.6315 0.2410
vn 0.7677 -0.5883 0.2540
vn 0.2880 0.9576 0.0113
vn 0.2898 0.9570 0.0123
vn -0.8012 0.5716 -0.1773
vn -0.3158 0.9342 -0.1658
vn -0.8457 0.5045 -0.1737
vn 0.8882 0.3493 0.2985
vn 0.5544 0.5769 0.5999
vn 0.8995 0.3349 0.2806
vn 0.9984 0.0177 0.0538
vn 0.7169 0.6855 -0.1271
vn 0.9984 0.0163 0.0542
vn -0.5823 -0.6753 -0.4527
vn -0.2978 -0.8107 -0.5041
vn -0.5974 -0.6650 -0.4482
vn -1.0000 0.0033 -0.0028
vn 0.9355 0.3208 -0.1483
vn -1.0000 0.0017 -0.0021
vn -0.5794 0.5674 0.5851
vn -0.7934 0.4392 0.4214
vn -0.8056 0.4289 0.4088
vn 0.0720 0.6949 0.7155
vn -0.0666 0.7096 0.7014
vn -0.0812 0.7104 0.6991
vn 0.4193 -0.7611 -0.4949
vn 0.7049 -0.5798 -0.4085
vn 0.7207 -0.5654 -0.4011
vn 0.1875 -0.8313 -0.5233
vn 0.0220 -0.8337 -0.5518
vn 0.1991 -0.8302 -0.5207
vn 0.2854 -0.1295 0.9496
vn 0.3692 -0.1245 0.9210
vn 0.2796 -0.1298 0.9513
vn 0.9870 -0.0362 0.1564
vn 0.9744 -0.1095 0.1961
vn 0.9880 -0.0282 0.1520
vn -0.5017 -0.0020 -0.8651
vn -0.3139 -0.0572 -0.9477
vn -0.5145 0.0020 -0.8575
vn -0.9872 0.1067 -0.1182
vn -0.9665 0.1754 -0.1874
vn -0.9882 0.1025 -0.1139
vn -0.8308 0.0202 0.5562
vn -0.9755 0.0926 0.1995
vn -0.9793 0.0964 0.1781
vn -0.2311 -0.0585 0.9712
vn -0.3103 -0.0366 0.9499
vn -0.3188 -0.0342 0.9472
vn 0.7013 -0.1744 -0.6912
vn 0.9091 -0.1392 -0.3926
vn 0.9222 -0.1351 -0.3624
vn 0.2035 -0.1212 -0.9715
vn 0.1998 -0.1212 -0.9723
vn 0.1995 -0.1212 -0.9724
vn 0.1657 0.9841 -0.0640
vn 0.1641 0.9843 -0.0656
vn -0.1736 0.9829 -0.0618
vn -0.1752 0.9827 -0.0602
vn 0.1680 0.9471 0.2733
vn 0.1664 0.9470 0.2749
vn -0.1713 0.9459 0.2755
vn -0.1729 0.9461 0.2739
vn 0.4620 0.7985 -0.3859
vn 0.4844 0.7958 -0.3634
vn 0.1618 0.8891 -0.4282
vn 0.1619 0.8891 -0.4281
vn -0.1737 0.8879 -0.4260
vn -0.1737 0.8879 -0.4261
vn -0.4727 0.7952 -0.3798
vn -0.4501 0.7973 -0.4021
vn -0.5249 0.8481 -0.0723
vn -0.5248 0.8481 -0.0723
vn -0.5226 0.8116 0.2613
vn -0.5225 0.8116 0.2613
vn -0.4663 0.6934 0.5493
vn -0.4434 0.6907 0.5713
vn -0.1666 0.7743 0.6104
vn -0.1666 0.7743 0.6105
vn 0.1689 0.7756 0.6083
vn 0.1690 0.7756 0.6082
vn 0.4684 0.6968 0.5433
vn 0.4905 0.6989 0.5205
vn 0.5200 0.8153 0.2545
vn 0.5201 0.8153 0.2545
vn 0.5178 0.8519 -0.0790
vn 0.5178 0.8518 -0.0790
vn 0.1639 -0.3266 0.9308
vn 0.1650 -0.3257 0.9310
vn 0.1609 -0.3291 0.9305
vn 0.1701 0.0640 0.9833
vn 0.1684 0.0655 0.9835
vn 0.1611 0.0717 0.9843
vn -0.1642 -0.3326 0.9287
vn -0.1649 -0.3320 0.9287
vn -0.1668 -0.3306 0.9289
vn -0.1643 0.0597 0.9846
vn -0.1638 0.0601 0.9847
vn -0.1662 0.0581 0.9844
vn 0.4709 -0.6364 0.6109
vn 0.4761 -0.6315 0.6120
vn 0.4505 -0.6555 0.6061
vn 0.5165 -0.2906 0.8054
vn 0.5176 -0.2896 0.8051
vn 0.5127 -0.2945 0.8064
vn 0.5148 0.0792 0.8537
vn 0.5137 0.0801 0.8542
vn 0.5084 0.0849 0.8569
vn 0.4700 0.3857 0.7940
vn 0.4704 0.3852 0.7939
vn 0.4915 0.3640 0.7911
vn 0.1720 0.4277 0.8874
vn -0.1641 0.4261 0.8897
vn -0.1640 0.4261 0.8897
vn -0.1646 0.4255 0.8898
vn -0.4635 0.3809 0.8001
vn -0.4628 0.3816 0.8001
vn -0.4848 0.3595 0.7974
vn -0.5118 0.0702 0.8562
vn -0.5118 0.0702 0.8563
vn -0.5119 0.0701 0.8562
vn -0.5143 -0.3065 0.8010
vn -0.5142 -0.3066 0.8010
vn -0.5139 -0.3069 0.8011
vn -0.4492 -0.6571 0.6053
vn -0.4399 -0.6646 0.6040
vn -0.4134 -0.6852 0.5997
vn -0.1479 -0.7295 0.6678
vn -0.1464 -0.7304 0.6672
vn -0.1418 -0.7331 0.6652
vn 0.1808 -0.7195 0.6706
vn 0.1816 -0.7189 0.6710
vn 0.1785 -0.7212 0.6693
vn -0.9718 -0.1957 0.1318
vn -0.9717 -0.1947 0.1336
vn -0.9720 -0.2021 0.1203
vn -0.9684 0.1501 0.1991
vn -0.9684 0.1498 0.1994
vn -0.9683 0.1464 0.2024
vn -0.9654 -0.1524 -0.2114
vn -0.9654 -0.1523 -0.2115
vn -0.9655 -0.1311 -0.2252
vn -0.9732 0.1825 -0.1402
vn -0.9732 0.1824 -0.1404
vn -0.9731 0.1868 -0.1348
vn -0.7562 -0.5860 0.2911
vn -0.7550 -0.5799 0.3061
vn -0.7591 -0.6084 0.2317
vn -0.8382 -0.2498 0.4848
vn -0.8374 -0.2486 0.4868
vn -0.8410 -0.2540 0.4777
vn -0.8308 0.1081 0.5460
vn -0.8304 0.1071 0.5467
vn -0.8282 0.1017 0.5511
vn -0.7480 0.4105 0.5214
vn -0.7480 0.4098 0.5220
vn -0.7471 0.3843 0.5424
vn -0.8372 0.4961 0.2301
vn -0.8372 0.4961 0.2302
vn -0.8377 0.4948 0.2313
vn -0.8399 0.5327 -0.1038
vn -0.8396 0.5333 -0.1030
vn -0.7574 0.5093 -0.4087
vn -0.7574 0.5091 -0.4088
vn -0.7572 0.4885 -0.4336
vn -0.8429 0.2051 -0.4975
vn -0.8429 0.2052 -0.4973
vn -0.8124 -0.1282 -0.5689
vn -0.8137 -0.1345 -0.5654
vn -0.8059 -0.1000 -0.5836
vn -0.6954 -0.3446 -0.6306
vn -0.6952 -0.3466 -0.6298
vn -0.6972 -0.3283 -0.6373
vn -0.8027 -0.4689 -0.3686
vn -0.8031 -0.4677 -0.3692
vn -0.8176 -0.4245 -0.3889
vn -0.8271 -0.5610 -0.0355
vn -0.8286 -0.5590 -0.0294
vn -0.8152 -0.5738 -0.0783
vn -0.0905 -0.7585 -0.6454
vn -0.0903 -0.7584 -0.6455
vn -0.1026 -0.7656 -0.6351
vn 0.2342 -0.7411 -0.6292
vn 0.2343 -0.7412 -0.6291
vn 0.2129 -0.7313 -0.6480
vn -0.1320 -0.9377 -0.3214
vn -0.1316 -0.9379 -0.3211
vn -0.1058 -0.9489 -0.2973
vn 0.2787 -0.9118 -0.3015
vn 0.2791 -0.9116 -0.3018
vn 0.3068 -0.8950 -0.3238
vn -0.4069 -0.5230 -0.7489
vn -0.4030 -0.5207 -0.7526
vn -0.4340 -0.5396 -0.7214
vn -0.0976 -0.5519 -0.8282
vn -0.0990 -0.5533 -0.8271
vn -0.0901 -0.5445 -0.8339
vn 0.2110 -0.5439 -0.8122
vn 0.2096 -0.5428 -0.8133
vn 0.2008 -0.5359 -0.8201
vn 0.4887 -0.4956 -0.7180
vn 0.4864 -0.4946 -0.7202
vn 0.4500 -0.4781 -0.7542
vn 0.5657 -0.6471 -0.5111
vn 0.5313 -0.6422 -0.5526
vn 0.5900 -0.7865 -0.1826
vn 0.5900 -0.7865 -0.1825
vn 0.6119 -0.7656 -0.1987
vn 0.5216 -0.8347 0.1765
vn 0.5209 -0.8350 0.1771
vn 0.5046 -0.8422 0.1903
vn 0.2406 -0.9517 0.1907
vn 0.2389 -0.9519 0.1920
vn 0.2281 -0.9528 0.2005
vn -0.1372 -0.9745 0.1778
vn -0.1363 -0.9744 0.1786
vn -0.1432 -0.9746 0.1723
vn -0.4436 -0.8833 0.1515
vn -0.4431 -0.8835 0.1520
vn -0.4547 -0.8793 0.1417
vn -0.4933 -0.8400 -0.2260
vn -0.4920 -0.8410 -0.2250
vn -0.4669 -0.8602 -0.2051
vn -0.4667 -0.6924 -0.5502
vn -0.4650 -0.6920 -0.5522
vn -0.4905 -0.6984 -0.5212
vn 0.9647 -0.1528 -0.2145
vn 0.9647 -0.1505 -0.2160
vn 0.9648 -0.1342 -0.2262
vn 0.9728 0.1723 -0.1547
vn 0.9728 0.1721 -0.1550
vn 0.9728 0.1783 -0.1477
vn 0.9747 -0.1810 0.1309
vn 0.9747 -0.1811 0.1307
vn 0.9748 -0.1851 0.1246
vn 0.9711 0.1474 0.1879
vn 0.9711 0.1476 0.1877
vn 0.9710 0.1418 0.1926
vn 0.7211 -0.3222 -0.6133
vn 0.7213 -0.3202 -0.6142
vn 0.7219 -0.3137 -0.6168
vn 0.8075 -0.1558 -0.5690
vn 0.8058 -0.1473 -0.5736
vn 0.8011 -0.1250 -0.5854
vn 0.8367 0.1883 -0.5143
vn 0.8366 0.1880 -0.5146
vn 0.8378 0.1912 -0.5114
vn 0.7473 0.5140 -0.4212
vn 0.7473 0.5141 -0.4210
vn 0.7467 0.4911 -0.4487
vn 0.8341 0.5393 -0.1158
vn 0.8343 0.5389 -0.1162
vn 0.8365 0.5026 0.2185
vn 0.8366 0.5022 0.2189
vn 0.7522 0.4143 0.5124
vn 0.7522 0.4145 0.5123
vn 0.7519 0.3878 0.5332
vn 0.8342 0.1132 0.5398
vn 0.8346 0.1143 0.5389
vn 0.8304 0.1037 0.5474
vn 0.8430 -0.2298 0.4864
vn 0.8431 -0.2301 0.4859
vn 0.8443 -0.2321 0.4829
vn 0.7801 -0.5387 0.3182
vn 0.7808 -0.5418 0.3111
vn 0.7843 -0.5631 0.2603
vn 0.8584 -0.5129 -0.0057
vn 0.8582 -0.5133 -0.0067
vn 0.8489 -0.5269 -0.0419
vn 0.8340 -0.4352 -0.3391
vn 0.8355 -0.4308 -0.3411
vn 0.8473 -0.3920 -0.3583
vn -0.1625 -0.1482 -0.9755
vn -0.1593 -0.1523 -0.9754
vn -0.1529 -0.1604 -0.9751
vn -0.1796 0.2177 -0.9594
vn -0.1801 0.2172 -0.9594
vn -0.1768 0.2209 -0.9591
vn 0.1789 -0.1574 -0.9712
vn 0.1764 -0.1610 -0.9711
vn 0.1838 -0.1507 -0.9713
vn 0.1717 0.2120 -0.9621
vn 0.1718 0.2119 -0.9621
vn 0.1723 0.2113 -0.9621
vn -0.4376 -0.2777 -0.8552
vn -0.4259 -0.2895 -0.8572
vn -0.3961 -0.3185 -0.8612
vn -0.5025 -0.1342 -0.8541
vn -0.4968 -0.1408 -0.8564
vn -0.4825 -0.1571 -0.8617
vn -0.5330 0.2160 -0.8181
vn -0.5333 0.2157 -0.8180
vn -0.5314 0.2181 -0.8186
vn -0.4776 0.5383 -0.6944
vn -0.4770 0.5389 -0.6943
vn -0.5030 0.5118 -0.6965
vn -0.1767 0.6072 -0.7746
vn -0.1768 0.6072 -0.7746
vn -0.1786 0.6056 -0.7755
vn 0.1629 0.6079 -0.7771
vn 0.1653 0.6058 -0.7783
vn 0.4641 0.5406 -0.7017
vn 0.4648 0.5399 -0.7018
vn 0.4907 0.5131 -0.7042
vn 0.5248 0.2009 -0.8272
vn 0.5251 0.2005 -0.8271
vn 0.5265 0.1987 -0.8266
vn 0.5097 -0.1645 -0.8445
vn 0.5096 -0.1647 -0.8445
vn 0.5100 -0.1641 -0.8444
vn 0.4766 -0.2845 -0.8318
vn 0.4829 -0.2764 -0.8309
vn 0.4629 -0.3014 -0.8336
vn 0.1951 -0.3092 -0.9308
vn 0.1902 -0.3161 -0.9295
vn 0.2049 -0.2952 -0.9332
vn -0.1361 -0.3093 -0.9412
vn -0.1314 -0.3147 -0.9401
vn -0.1221 -0.3254 -0.9376
vn -0.1394 0.2048 -0.9688
vn -0.6119 -0.7078 0.3531
vn -0.5184 0.0763 0.8517
vn 0.5386 0.1275 0.8328
vn 0.0013 -0.1033 0.9946
vn -0.1740 -0.8473 0.5018
vn -0.2593 -0.9387 0.2270
vn 0.6647 -0.6539 0.3614
vn 0.0385 -0.6141 0.7883
vn 0.0381 -0.6141 0.7883
vn 0.2241 0.1584 -0.9616
vn -0.0164 0.6452 -0.7638
vn 0.1908 -0.2433 -0.9510
vn 0.2167 0.5645 -0.7964
vn -0.0282 0.4758 -0.8791
vn 0.2491 -0.2482 -0.9361
vn -0.0342 0.5646 -0.8247
vn 0.0450 0.0274 -0.9986
vn -0.0243 0.6332 -0.7736
vn -0.5548 0.4519 -0.6986
vn -0.2369 -0.0514 0.9702
vn -0.2961 -0.0898 0.9509
vn -0.0173 -0.7410 0.6713
vn -0.1727 -0.0451 0.9839
vn -0.1185 -0.1247 0.9851
vn 0.1042 -0.6527 0.7504
vn 0.0485 0.8047 0.5918
vn -0.3525 -0.0852 0.9319
vn 0.7838 -0.3566 0.5084
vn -0.4887 -0.0277 0.8720
vn -0.0897 -0.1317 0.9872
vn -0.7545 -0.4351 0.4913
vn 0.5874 0.2943 0.7539
vn 0.7407 -0.0208 0.6715
vn 0.6648 0.1630 -0.7291
vn 0.2619 -0.4672 -0.8445
vn 0.4752 0.4675 -0.7454
vn 0.5264 0.4085 -0.7457
vn -0.6143 0.0860 -0.7843
vn -0.6737 0.5933 -0.4405
vn -0.7125 -0.5885 0.3822
vn 0.5787 -0.7566 -0.3044
vn -0.9427 -0.1987 0.2679
vn 0.9104 0.3424 0.2322
vn -0.9575 -0.2858 0.0385
vn -0.1757 -0.8152 0.5519
vn -0.0653 0.9897 -0.1274
vn 0.6456 0.7616 -0.0564
vn -0.0074 -0.8619 0.5070
vn -0.6974 -0.6176 0.3636
vn 0.5724 -0.7330 -0.3677
vn 0.1203 0.8439 -0.5228
vn 0.7273 0.6146 -0.3055
vn -0.1011 -0.7673 0.6333
vn -0.7781 -0.4995 0.3810
vn 0.2767 -0.4930 -0.8249
vn 0.0407 0.8128 -0.5811
vn 0.9816 0.1686 0.0902
vn 0.2693 -0.1761 0.9468
vn -0.9581 0.2818 -0.0506
vn 0.0337 -0.9824 -0.1837
vn 0.1465 0.1917 -0.9705
vn 0.9971 -0.0693 -0.0324
vn -0.9633 0.1540 -0.2200
vn -0.8766 0.3430 -0.3375
vn -0.2601 0.9035 0.3406
vn -0.5631 0.1423 0.8140
vn 0.4098 -0.2347 -0.8815
vn 0.2199 -0.2686 -0.9378
vn 0.3818 0.0732 -0.9213
vn -0.0220 -0.2464 0.9689
vn -0.5422 -0.2659 0.7971
vn 0.3897 -0.1299 -0.9117
vn 0.0918 -0.9820 0.1651
vn -0.9605 0.0421 -0.2750
vn 0.2846 -0.4435 -0.8499
vn 0.9358 0.2725 0.2238
vn -0.2764 0.2254 0.9342
vn -0.1433 -0.3560 0.9234
vn -0.9562 0.0534 -0.2879
vn 0.0153 -0.9913 -0.1309
vn 0.9976 0.0656 -0.0202
vn -0.0532 0.9373 0.3445
vn 0.0040 -0.3232 0.9463
vn -0.0873 -0.7744 0.6267
vn 0.6548 -0.1409 -0.7425
vn 0.1512 0.9557 0.2525
vn -0.9681 -0.1143 -0.2228
vn -0.9460 -0.0420 -0.3214
vn 0.9818 -0.1122 0.1534
vn 0.9078 0.4118 -0.0793
vn -0.0027 -0.9997 0.0233
vn 0.0311 -0.9791 -0.2010
vn -0.9241 -0.1636 -0.3454
vn -0.9121 0.0216 -0.4094
vn 0.9857 0.0535 0.1601
vn 0.7867 0.5284 0.3192
vn 0.2606 -0.6681 -0.6970
vn 0.2686 -0.4934 -0.8273
vn -0.5676 0.6838 -0.4584
vn 0.9535 -0.1598 0.2554
vn 0.5216 -0.6180 0.5882
vn -0.9810 -0.1765 -0.0800
vn -0.7190 0.6888 -0.0928
vn 0.9882 0.1194 0.0962
vn 0.7656 -0.5333 0.3598
vn -0.9465 -0.2897 -0.1425
vn 0.1666 0.4708 -0.8664
vn 0.8899 0.3228 0.3224
vn -0.9471 -0.0735 0.3123
vn 0.8549 -0.4836 -0.1880
vn 0.6876 -0.7196 -0.0967
vn -0.7645 0.4323 0.4781
vn -0.6057 0.7793 0.1607
vn -0.9402 -0.2568 0.2239
vn -0.8170 0.3083 -0.4872
vn -0.8622 0.4867 -0.1408
vn -0.8881 0.2684 0.3731
vn -0.9570 0.0336 -0.2882
vn -0.9491 -0.0687 0.3074
vn 0.9746 -0.0839 0.2076
vn 0.7508 -0.3601 0.5537
vn 0.9246 0.1893 0.3306
vn 0.9219 0.3400 -0.1857
vn 0.9748 -0.0521 0.2167
vn 0.8504 -0.2914 -0.4380
vn -0.6966 -0.7173 0.0168
vn 0.0208 -0.9794 0.2011
vn -0.1013 -0.9838 -0.1482
vn 0.9972 0.0661 0.0343
vn -0.0755 0.9596 -0.2710
vn 0.4074 0.7431 0.5308
vn 0.2086 0.9710 -0.1165
vn -0.4997 0.6896 0.5242
vn -0.5083 0.7412 -0.4385
vn -0.1760 -0.0799 -0.9811
vn -0.0819 0.8439 0.5303
vn 0.0235 0.5051 -0.8627
vn 0.0198 -0.5230 0.8521
vn -0.9962 -0.0773 -0.0409
vn -0.3210 -0.7342 0.5983
vn 0.0306 -0.1520 -0.9879
vn -0.2501 -0.0746 -0.9653
vn 0.9674 0.2215 0.1225
vn -0.6687 0.7299 -0.1413
vn -0.2552 0.9534 -0.1608
vn 0.5179 0.5901 0.6194
vn -0.9895 0.1159 -0.0862
vn -0.2626 -0.8211 -0.5067
vn 0.9435 0.3008 -0.1390
vn -0.5476 0.5804 0.6027
vn 0.0914 0.6918 0.7163
vn 0.3902 -0.7732 -0.4998
vn 0.0033 -0.8325 -0.5540
vn 0.3775 -0.1240 0.9177
vn 0.9710 -0.1247 0.2042
vn -0.2928 -0.0631 -0.9541
vn -0.9641 0.1816 -0.1937
vn -0.8123 0.0138 0.5831
vn -0.2191 -0.0617 0.9738
vn 0.6536 -0.1783 -0.7356
vn 0.2040 -0.1212 -0.9715
vn 0.1673 0.9839 -0.0624
vn -0.1720 0.9830 -0.0634
vn 0.1696 0.9473 0.2717
vn -0.1697 0.9457 0.2771
vn 0.4391 0.8005 -0.4079
vn 0.1617 0.8891 -0.4282
vn -0.1738 0.8879 -0.4259
vn -0.4948 0.7922 -0.3571
vn -0.5249 0.8481 -0.0722
vn -0.5226 0.8115 0.2612
vn -0.4888 0.6954 0.5268
vn -0.1667 0.7744 0.6104
vn 0.1688 0.7755 0.6083
vn 0.4458 0.6939 0.5655
vn 0.5200 0.8153 0.2546
vn 0.5177 0.8519 -0.0791
vn 0.1681 -0.3232 0.9313
vn 0.1773 0.0580 0.9824
vn -0.1622 -0.3341 0.9285
vn -0.1619 0.0617 0.9849
vn 0.4968 -0.6110 0.6163
vn 0.5215 -0.2856 0.8041
vn 0.5199 0.0745 0.8510
vn 0.4483 0.4066 0.7960
vn 0.1719 0.4278 0.8874
vn -0.1635 0.4266 0.8896
vn -0.4409 0.4029 0.8021
vn -0.5116 0.0704 0.8563
vn -0.5145 -0.3063 0.8009
vn -0.4757 -0.6349 0.6087
vn -0.1525 -0.7267 0.6699
vn 0.1840 -0.7171 0.6723
vn -0.9714 -0.1887 0.1442
vn -0.9685 0.1536 0.1961
vn -0.9647 -0.1750 -0.1966
vn -0.9732 0.1783 -0.1456
vn -0.7484 -0.5550 0.3632
vn -0.8347 -0.2446 0.4934
vn -0.8330 0.1137 0.5415
vn -0.7482 0.4359 0.5002
vn -0.8368 0.4974 0.2290
vn -0.8402 0.5321 -0.1046
vn -0.7568 0.5291 -0.3838
vn -0.8428 0.2050 -0.4976
vn -0.8195 -0.1644 -0.5489
vn -0.6930 -0.3636 -0.6225
vn -0.7846 -0.5144 -0.3461
vn -0.8382 -0.5452 0.0121
vn -0.0783 -0.7512 -0.6554
vn 0.2559 -0.7505 -0.6093
vn -0.1579 -0.9252 -0.3451
vn 0.2509 -0.9268 -0.2794
vn -0.3741 -0.5025 -0.7795
vn -0.1066 -0.5607 -0.8211
vn 0.2197 -0.5506 -0.8053
vn 0.5230 -0.5104 -0.6826
vn 0.5975 -0.6500 -0.4695
vn 0.5664 -0.8073 -0.1656
vn 0.5383 -0.8269 0.1628
vn 0.2519 -0.9505 0.1817
vn -0.1306 -0.9742 0.1840
vn -0.4321 -0.8873 0.1616
vn -0.5174 -0.8198 -0.2454
vn -0.4397 -0.6847 -0.5813
vn 0.9642 -0.1700 -0.2035
vn 0.9727 0.1663 -0.1616
vn 0.9747 -0.1773 0.1364
vn 0.9711 0.1534 0.1828
vn 0.7204 -0.3288 -0.6106
vn 0.8117 -0.1792 -0.5559
vn 0.8355 0.1851 -0.5174
vn 0.7469 0.5360 -0.3935
vn 0.8340 0.5396 -0.1153
vn 0.8363 0.5030 0.2181
vn 0.7516 0.4410 0.4905
vn 0.8382 0.1240 0.5310
vn 0.8419 -0.2280 0.4892
vn 0.7740 -0.5161 0.3669
vn 0.8661 -0.4991 0.0280
vn 0.8191 -0.4764 -0.3195
vn -0.1687 -0.1404 -0.9756
vn -0.1829 0.2140 -0.9596
vn 0.1716 -0.1677 -0.9708
vn 0.1711 0.2126 -0.9620
vn -0.4645 -0.2498 -0.8496
vn -0.5154 -0.1191 -0.8487
vn -0.5349 0.2135 -0.8175
vn -0.4509 0.5646 -0.6913
vn -0.1749 0.6088 -0.7738
vn 0.1605 0.6100 -0.7760
vn 0.4377 0.5665 -0.6982
vn 0.5234 0.2028 -0.8276
vn 0.5093 -0.1651 -0.8446
vn 0.4953 -0.2606 -0.8287
vn 0.1806 -0.3296 -0.9267
vn -0.1451 -0.2987 -0.9432
vt 0.625000 0.437500
vt 0.562500 0.500000
vt 0.562500 0.437500
vt 0.625000 0.937500
vt 0.562500 1.000000
vt 0.562500 0.937500
vt 0.875000 0.687500
vt 0.812500 0.750000
vt 0.812500 0.687500
vt 0.625000 0.687500
vt 0.687500 0.750000
vt 0.625000 0.750000
vt 0.687500 0.687500
vt 0.750000 0.750000
vt 0.750000 0.687500
vt 0.187500 0.687500
vt 0.250000 0.750000
vt 0.187500 0.750000
vt 0.312500 0.687500
vt 0.250000 0.687500
vt 0.562500 0.750000
vt 0.625000 0.812500
vt 0.562500 0.812500
vt 0.562500 0.875000
vt 0.562500 0.250000
vt 0.625000 0.312500
vt 0.562500 0.312500
vt 0.562500 0.375000
vt 0.625000 0.375000
vt 0.375000 0.375000
vt 0.437500 0.437500
vt 0.375000 0.437500
vt 0.437500 0.375000
vt 0.500000 0.437500
vt 0.500000 0.375000
vt 0.437500 0.312500
vt 0.375000 0.312500
vt 0.500000 0.312500
vt 0.375000 0.250000
vt 0.500000 0.250000
vt 0.437500 0.250000
vt 0.375000 0.875000
vt 0.437500 0.937500
vt 0.375000 0.937500
vt 0.437500 0.875000
vt 0.500000 0.937500
vt 0.500000 0.875000
vt 0.437500 0.812500
vt 0.375000 0.812500
vt 0.500000 0.812500
vt 0.375000 0.750000
vt 0.500000 0.750000
vt 0.437500 0.750000
vt 0.375000 1.000000
vt 0.500000 1.000000
vt 0.437500 1.000000
vt 0.375000 0.687500
vt 0.500000 0.687500
vt 0.437500 0.687500
vt 0.562500 0.687500
vt 0.375000 0.500000
vt 0.500000 0.500000
vt 0.437500 0.500000
vt 0.375000 0.187500
vt 0.500000 0.187500
vt 0.437500 0.187500
vt 0.562500 0.187500
vt 0.625000 0.000000
vt 0.562500 0.000000
vt 0.625000 0.062500
vt 0.625000 0.250000
vt 0.625000 0.500000
vt 0.625000 0.562500
vt 0.312500 0.500000
vt 0.375000 0.562500
vt 0.312500 0.750000
vt 0.625000 0.187500
vt 0.187500 0.500000
vt 0.125000 0.500000
vt 0.187500 0.562500
vt 0.125000 0.750000
vt 0.125000 0.687500
vt 0.562500 0.562500
vt 0.562500 0.062500
vt 0.125000 0.562500
vt 0.312500 0.562500
vt 0.500000 0.062500
vt 0.500000 0.000000
vt 0.437500 0.062500
vt 0.437500 0.000000
vt 0.375000 0.062500
vt 0.375000 0.000000
vt 0.500000 0.562500
vt 0.437500 0.562500
vt 0.250000 0.562500
vt 0.250000 0.500000
vt 0.687500 0.562500
vt 0.750000 0.500000
vt 0.812500 0.562500
vt 0.750000 0.562500
vt 0.687500 0.500000
vt 0.875000 0.562500
vt 0.812500 0.500000
vt 0.000000 0.000000
vt 0.625000 1.000000
vt 0.875000 0.750000
vt 0.625000 0.875000
vt 0.875000 0.500000
s 1
f 55/1/1 107/2/2 188/3/3
f 80/4/4 92/5/5 159/6/6
f 345/7/7 79/8/8 388/9/9
f 363/10/10 73/11/11 22/12/12
f 372/13/13 76/14/14 71/11/15
f 386/9/16 76/14/14 379/15/17
f 395/16/18 63/17/19 60/18/20
f 407/19/21 65/17/22 400/20/23
f 123/21/24 74/22/25 136/23/26
f 72/22/27 145/24/28 134/23/29
f 147/24/30 78/4/31 157/6/32
f 96/25/33 49/26/34 170/27/35
f 47/26/36 180/28/37 168/27/38
f 51/29/39 186/3/40 180/28/37
f 40/30/41 197/31/42 35/32/43
f 184/33/44 190/34/45 194/31/46
f 181/28/47 191/34/48 183/35/49
f 177/36/50 38/30/51 42/37/52
f 172/38/53 184/33/44 176/36/54
f 173/38/55 181/28/47 183/35/49
f 10/39/56 178/36/57 45/37/58
f 99/40/59 179/36/60 103/41/61
f 100/40/62 171/27/63 175/38/64
f 62/42/65 165/43/66 59/44/67
f 155/45/68 162/46/69 164/43/70
f 148/24/71 163/46/72 152/47/73
f 144/48/74 64/42/75 68/49/76
f 137/50/77 154/45/78 141/48/79
f 138/50/80 146/24/81 150/47/82
f 18/51/83 143/48/84 67/49/85
f 128/52/86 142/48/87 129/53/88
f 125/52/89 135/23/90 140/50/91
f 167/43/92 2/54/93 58/44/94
f 166/43/95 85/55/96 81/56/97
f 158/6/98 86/55/99 161/46/100
f 350/57/101 132/53/102 20/51/103
f 422/58/104 131/53/105 414/59/106
f 432/60/107 127/52/108 423/58/109
f 195/31/110 26/61/111 33/32/112
f 196/31/113 112/62/114 116/63/115
f 189/3/116 113/62/117 193/34/118
f 335/64/119 106/41/120 12/39/121
f 446/65/122 105/41/123 438/66/124
f 456/67/125 102/40/126 447/65/127
f 201/68/128 588/69/129 586/68/130
f 462/70/131 587/68/132 606/70/133
f 207/25/134 590/71/135 593/25/136
f 470/67/137 594/25/138 599/67/139
f 214/72/140 611/2/141 609/72/142
f 478/73/143 608/72/144 628/73/145
f 219/21/146 615/12/147 617/21/148
f 486/60/149 618/21/150 622/60/151
f 201/68/128 286/69/152 198/69/153
f 226/61/154 634/74/155 630/61/156
f 494/75/157 633/61/158 658/75/159
f 235/76/160 638/51/161 642/76/162
f 502/19/163 645/76/164 650/19/165
f 555/77/166 297/25/167 561/67/168
f 244/78/169 666/79/170 662/78/171
f 510/80/172 664/78/173 690/80/174
f 253/81/175 670/18/176 674/81/177
f 518/82/178 677/81/179 682/82/180
f 523/57/181 269/76/182 535/19/183
f 227/61/184 258/74/185 223/74/186
f 495/75/187 263/61/188 228/61/189
f 565/73/190 476/10/191 563/10/192
f 536/19/193 238/76/194 503/19/195
f 539/16/196 283/81/197 551/82/198
f 275/78/199 241/79/200 245/78/201
f 511/80/202 277/78/203 247/78/204
f 300/2/205 485/83/206 212/2/207
f 552/82/208 256/81/209 519/82/210
f 465/70/211 290/68/212 203/68/213
f 295/25/214 205/71/215 207/25/134
f 473/67/216 296/25/217 209/25/218
f 562/10/219 308/21/220 568/60/221
f 214/72/140 298/2/222 210/2/223
f 481/73/224 303/72/225 215/72/226
f 307/21/227 216/12/228 219/21/146
f 489/60/229 309/21/230 221/21/231
f 313/76/232 320/51/233 311/76/234
f 315/76/235 239/76/236 271/76/237
f 317/51/238 268/76/239 264/51/240
f 234/51/241 318/51/242 267/51/243
f 236/76/244 319/51/245 231/51/246
f 325/81/247 332/18/248 323/81/249
f 327/81/250 257/81/251 285/81/252
f 329/18/253 282/81/254 278/18/255
f 252/18/256 330/18/257 281/18/258
f 322/81/259 249/18/260 254/81/261
f 306/12/262 477/10/263 218/12/264
f 568/60/221 564/73/265 562/10/219
f 302/72/266 566/83/267 299/2/268
f 560/67/269 468/84/270 558/84/271
f 287/69/272 469/84/273 200/69/274
f 554/77/275 464/70/276 460/77/277
f 293/71/278 461/77/279 206/71/280
f 553/82/281 516/85/282 549/85/283
f 274/79/284 515/85/285 242/79/286
f 541/16/287 512/80/288 508/16/289
f 251/18/290 540/16/291 507/16/292
f 550/82/293 542/80/294 538/16/295
f 276/78/296 547/85/296 273/79/297
f 537/19/298 500/86/299 533/86/300
f 260/74/301 499/86/302 225/74/303
f 525/57/304 496/75/305 492/57/306
f 233/51/307 524/57/308 491/57/309
f 534/19/310 526/75/311 522/57/312
f 259/74/313 527/75/314 531/86/315
f 681/85/316 341/82/317 337/85/317
f 669/79/318 514/85/319 678/85/320
f 692/80/321 397/16/322 688/16/323
f 673/18/324 506/16/325 686/16/326
f 561/67/168 557/70/327 555/77/166
f 291/68/328 559/84/329 288/69/330
f 652/19/331 405/86/332 648/86/333
f 637/74/334 498/86/335 646/86/336
f 661/75/337 353/57/338 657/57/339
f 641/51/340 490/57/341 654/57/342
f 623/60/343 426/83/344 620/83/345
f 211/2/346 619/83/347 612/2/348
f 626/10/349 361/73/350 365/10/351
f 217/12/352 625/10/353 616/12/354
f 598/84/355 454/67/356 451/84/357
f 199/69/358 597/84/359 589/69/360
f 607/70/361 347/77/362 603/77/363
f 204/71/364 604/77/365 591/71/366
f 453/84/367 449/65/368 445/87/369
f 88/88/370 452/84/371 443/87/372
f 448/65/373 436/89/374 444/87/375
f 83/90/376 442/87/377 434/89/378
f 437/89/379 336/64/380 340/91/381
f 84/90/382 338/91/383 4/92/384
f 433/60/385 421/93/386 428/83/387
f 115/62/388 427/83/389 419/93/390
f 420/93/391 416/59/392 412/94/393
f 118/63/394 418/93/395 410/94/396
f 417/59/397 356/75/398 413/94/399
f 119/63/400 355/75/401 28/61/402
f 406/19/403 399/95/404 402/86/405
f 41/96/406 403/86/407 398/95/408
f 401/20/409 390/80/410 399/95/404
f 39/96/411 391/80/412 43/78/413
f 370/97/414 575/13/415 375/13/416
f 52/98/417 380/99/418 376/100/419
f 378/15/420 583/9/421 385/9/422
f 52/98/417 366/97/423 54/101/424
f 369/97/425 362/10/426 359/73/427
f 56/101/428 358/73/429 29/72/430
f 344/7/431 383/99/432 349/102/433
f 50/103/434 348/102/435 382/99/436
f 567/83/437 488/60/438 484/83/439
f 584/9/440 576/100/441 580/99/442
f 579/15/443 570/97/444 576/100/441
f 377/100/445 571/97/446 367/97/447
f 381/99/448 577/100/449 377/100/445
f 371/13/450 578/15/451 378/15/420
f 389/9/452 582/99/453 384/99/454
f 13/71/455 604/77/365 346/77/456
f 463/70/457 602/77/458 459/77/459
f 589/69/360 450/84/460 90/69/461
f 471/67/462 598/84/355 467/84/463
f 601/67/464 95/25/465 455/67/466
f 596/25/467 14/71/468 94/25/469
f 606/70/133 6/68/470 342/70/471
f 586/68/130 89/69/472 5/68/473
f 24/12/474 625/10/353 364/10/475
f 479/73/476 624/10/477 475/10/478
f 111/2/479 621/83/480 429/83/481
f 487/60/482 620/83/345 483/83/483
f 622/60/151 121/21/484 430/60/485
f 120/21/486 615/12/147 21/12/487
f 628/73/145 30/72/488 360/73/489
f 31/72/490 613/2/491 110/2/492
f 19/51/493 655/57/494 351/57/495
f 497/75/496 656/57/497 493/57/498
f 37/74/499 647/86/500 404/86/501
f 505/19/502 649/86/503 501/86/504
f 651/19/505 70/76/506 408/19/507
f 643/76/508 17/51/509 66/76/510
f 659/75/511 27/61/512 354/75/513
f 25/61/514 635/74/515 34/74/516
f 61/18/517 687/16/518 396/16/519
f 513/80/520 689/16/521 509/16/522
f 11/79/523 679/85/524 334/85/525
f 521/82/526 680/85/527 517/85/528
f 683/82/529 3/81/530 339/82/531
f 675/81/532 57/18/533 1/81/534
f 691/80/535 44/78/536 392/80/537
f 665/78/538 9/79/539 46/78/540
f 863/104/541 879/104/541 875/104/542
f 871/104/543 881/104/543 869/104/544
f 878/104/545 887/104/545 874/104/546
f 880/104/547 895/104/547 893/104/548
f 695/104/549 864/104/549 802/104/550
f 847/104/551 866/104/551 862/104/552
f 839/104/553 868/104/553 845/104/554
f 707/104/555 872/104/555 841/104/556
f 835/104/557 885/104/557 873/104/558
f 884/104/559 827/104/559 897/104/560
f 896/104/561 713/104/561 801/104/562
f 892/104/563 799/104/563 797/104/564
f 890/104/565 791/104/565 886/104/566
f 888/104/567 701/104/567 810/104/568
f 876/104/569 811/104/569 806/104/570
f 803/104/571 877/104/571 807/104/572
f 899/104/573 915/104/574 911/104/575
f 907/104/576 914/104/577 902/104/578
f 917/104/579 923/104/580 913/104/581
f 916/104/582 931/104/583 926/104/584
f 703/104/585 900/104/586 824/104/587
f 775/104/588 905/104/589 901/104/590
f 767/104/591 904/104/592 770/104/593
f 700/104/594 908/104/595 766/104/596
f 790/104/597 918/104/597 906/104/597
f 920/104/598 798/104/599 930/104/600
f 932/104/601 712/104/602 762/104/603
f 928/104/604 763/104/605 758/104/606
f 929/104/607 755/104/608 925/104/609
f 924/104/610 715/104/611 816/104/612
f 912/104/613 814/104/614 820/104/615
f 822/104/616 910/104/617 818/104/618
f 937/104/619 952/104/620 948/104/621
f 945/104/622 951/104/623 940/104/624
f 953/104/625 961/104/626 949/104/627
f 950/104/628 969/104/629 964/104/630
f 717/104/631 934/104/632 728/104/633
f 757/104/634 939/104/635 935/104/636
f 765/104/637 938/104/638 760/104/639
f 714/104/640 942/104/641 764/104/642
f 829/104/643 954/104/644 944/104/645
f 955/104/646 837/104/646 968/104/647
f 966/104/648 708/104/649 780/104/650
f 962/104/651 781/104/651 784/104/652
f 963/104/653 789/104/654 959/104/655
f 958/104/656 711/104/657 720/104/658
f 947/104/659 721/104/660 725/104/661
f 729/104/662 946/104/663 724/104/664
f 971/104/665 989/104/666 983/104/667
f 979/104/668 987/104/669 975/104/670
f 988/104/671 995/104/672 982/104/673
f 986/104/674 1003/104/675 999/104/676
f 710/104/677 972/104/678 718/104/679
f 739/104/680 976/104/681 970/104/682
f 731/104/683 974/104/684 735/104/685
f 698/104/686 980/104/687 732/104/688
f 859/104/689 993/104/689 981/104/690
f 992/104/691 851/104/692 1005/104/693
f 1004/104/694 704/104/695 825/104/696
f 998/104/697 823/104/698 819/104/699
f 1000/104/700 815/104/701 994/104/702
f 996/104/703 716/104/704 726/104/705
f 984/104/706 727/104/707 722/104/708
f 719/104/709 985/104/710 723/104/711
f 1009/104/712 1025/104/713 1021/104/714
f 1017/104/715 1022/104/716 1012/104/717
f 1024/104/718 1033/104/719 1020/104/720
f 1023/104/721 1041/104/722 1036/104/723
f 699/104/724 1006/104/725 860/104/726
f 753/104/727 1011/104/728 1007/104/729
f 745/104/730 1010/104/731 748/104/732
f 696/104/733 1014/104/734 744/104/735
f 805/104/736 1027/104/736 1016/104/737
f 1026/104/738 813/104/738 1040/104/739
f 1038/104/740 702/104/741 768/104/742
f 1034/104/743 769/104/744 772/104/745
f 1035/104/746 777/104/747 1031/104/748
f 1030/104/749 705/104/750 852/104/751
f 1018/104/752 853/104/753 856/104/754
f 861/104/755 1019/104/756 857/104/757
f 1043/104/758 1061/104/759 1057/104/760
f 1051/104/761 1060/104/762 1047/104/763
f 1059/104/764 1067/104/765 1055/104/766
f 1058/104/767 1075/104/768 1071/104/769
f 709/104/770 1044/104/771 741/104/772
f 787/104/773 1049/104/774 1045/104/775
f 779/104/776 1048/104/777 782/104/778
f 706/104/779 1052/104/780 778/104/781
f 838/104/782 1064/104/783 1050/104/784
f 1062/104/785 846/104/785 1074/104/786
f 1076/104/787 694/104/788 742/104/789
f 1072/104/790 743/104/791 746/104/792
f 1073/104/793 751/104/794 1069/104/795
f 1068/104/796 697/104/797 733/104/798
f 1054/104/799 730/104/800 734/104/801
f 738/104/802 1056/104/803 736/104/804
f 55/1/1 32/72/805 107/2/2
f 80/4/4 8/105/806 92/5/5
f 345/7/7 7/106/807 79/8/8
f 363/10/10 374/13/808 73/11/11
f 372/13/13 379/15/17 76/14/14
f 386/9/16 77/8/809 76/14/14
f 395/16/18 400/20/810 63/17/19
f 407/19/21 69/76/811 65/17/22
f 123/21/24 23/12/812 74/22/25
f 72/22/27 75/107/813 145/24/28
f 147/24/30 75/107/814 78/4/31
f 96/25/33 15/71/815 49/26/34
f 47/26/36 51/29/39 180/28/37
f 51/29/39 53/1/816 186/3/40
f 40/30/41 185/33/817 197/31/42
f 184/33/44 182/35/818 190/34/45
f 181/28/47 187/3/819 191/34/48
f 177/36/50 185/33/820 38/30/51
f 172/38/53 182/35/818 184/33/44
f 173/38/55 169/27/821 181/28/47
f 10/39/56 104/41/822 178/36/57
f 99/40/59 174/38/823 179/36/60
f 100/40/62 97/25/824 171/27/63
f 62/42/65 153/45/825 165/43/66
f 155/45/68 151/47/826 162/46/69
f 148/24/71 156/6/827 163/46/72
f 144/48/74 153/45/828 64/42/75
f 137/50/77 149/47/829 154/45/78
f 138/50/80 133/23/830 146/24/81
f 18/51/83 130/53/831 143/48/84
f 128/52/86 139/50/832 142/48/87
f 125/52/89 122/21/833 135/23/90
f 167/43/92 82/56/834 2/54/93
f 166/43/95 160/46/835 85/55/96
f 158/6/98 91/5/836 86/55/99
f 350/57/101 415/59/837 132/53/102
f 422/58/104 126/52/838 131/53/105
f 432/60/107 124/21/839 127/52/108
f 195/31/110 117/63/840 26/61/111
f 196/31/113 192/34/841 112/62/114
f 189/3/116 108/2/842 113/62/117
f 335/64/119 439/66/843 106/41/120
f 446/65/122 101/40/844 105/41/123
f 456/67/125 98/25/845 102/40/126
f 201/68/128 198/69/153 588/69/129
f 462/70/131 202/68/846 587/68/132
f 207/25/134 205/71/215 590/71/135
f 470/67/137 208/25/847 594/25/138
f 214/72/140 210/2/223 611/2/141
f 478/73/143 213/72/848 608/72/144
f 219/21/146 216/12/228 615/12/147
f 486/60/149 220/21/849 618/21/150
f 201/68/128 289/68/850 286/69/152
f 226/61/154 222/74/851 634/74/155
f 494/75/157 229/61/852 633/61/158
f 235/76/160 230/51/853 638/51/161
f 502/19/163 237/76/854 645/76/164
f 555/77/166 294/71/855 297/25/167
f 244/78/169 240/79/856 666/79/170
f 510/80/172 246/78/857 664/78/173
f 253/81/175 248/18/858 670/18/176
f 518/82/178 255/81/859 677/81/179
f 523/57/181 265/51/860 269/76/182
f 227/61/184 261/61/861 258/74/185
f 495/75/187 528/75/862 263/61/188
f 565/73/190 480/73/863 476/10/191
f 536/19/193 270/76/864 238/76/194
f 539/16/196 279/18/865 283/81/197
f 275/78/199 272/79/866 241/79/200
f 511/80/202 544/80/867 277/78/203
f 300/2/205 567/83/868 485/83/206
f 552/82/208 284/81/869 256/81/209
f 465/70/211 556/70/870 290/68/212
f 295/25/214 292/71/871 205/71/215
f 473/67/216 560/67/872 296/25/217
f 562/10/219 305/12/873 308/21/220
f 214/72/140 301/72/874 298/2/222
f 481/73/224 565/73/875 303/72/225
f 307/21/227 304/12/876 216/12/228
f 489/60/229 569/60/877 309/21/230
f 313/76/232 316/51/878 320/51/233
f 315/76/235 312/76/879 239/76/236
f 317/51/238 314/76/880 268/76/239
f 234/51/241 321/51/881 318/51/242
f 236/76/244 310/76/882 319/51/245
f 325/81/247 328/18/883 332/18/248
f 327/81/250 324/81/884 257/81/251
f 329/18/253 326/81/885 282/81/254
f 252/18/256 333/18/886 330/18/257
f 322/81/259 331/18/887 249/18/260
f 306/12/262 563/10/888 477/10/263
f 568/60/221 566/83/267 564/73/265
f 302/72/266 564/73/265 566/83/267
f 560/67/269 472/67/889 468/84/270
f 287/69/272 558/84/890 469/84/273
f 554/77/275 556/70/870 464/70/276
f 293/71/278 554/77/891 461/77/279
f 553/82/281 520/82/892 516/85/282
f 274/79/284 548/85/893 515/85/285
f 541/16/287 545/80/894 512/80/288
f 251/18/290 280/18/895 540/16/291
f 550/82/293 546/85/896 542/80/294
f 276/78/296 543/80/897 547/85/296
f 537/19/298 504/19/898 500/86/299
f 260/74/301 532/86/899 499/86/302
f 525/57/304 529/75/900 496/75/305
f 233/51/307 266/51/901 524/57/308
f 534/19/310 530/86/902 526/75/311
f 259/74/313 262/61/903 527/75/314
f 681/85/316 685/82/316 341/82/317
f 669/79/318 243/79/904 514/85/319
f 692/80/321 393/80/905 397/16/322
f 673/18/324 250/18/906 506/16/325
f 561/67/168 559/84/329 557/70/327
f 291/68/328 557/70/327 559/84/329
f 652/19/331 409/19/907 405/86/332
f 637/74/334 224/74/908 498/86/335
f 661/75/337 357/75/909 353/57/338
f 641/51/340 232/51/910 490/57/341
f 623/60/343 431/60/911 426/83/344
f 211/2/346 482/83/912 619/83/347
f 626/10/349 629/73/913 361/73/350
f 217/12/352 474/10/914 625/10/353
f 598/84/355 600/67/915 454/67/356
f 199/69/358 466/84/916 597/84/359
f 607/70/361 343/70/917 347/77/362
f 204/71/364 458/77/918 604/77/365
f 453/84/367 457/67/919 449/65/368
f 88/88/370 93/69/920 452/84/371
f 448/65/373 440/66/921 436/89/374
f 83/90/376 87/88/922 442/87/377
f 437/89/379 441/66/923 336/64/380
f 84/90/382 435/89/924 338/91/383
f 433/60/385 425/58/925 421/93/386
f 115/62/388 109/2/926 427/83/389
f 420/93/391 424/58/927 416/59/392
f 118/63/394 114/62/928 418/93/395
f 417/59/397 352/57/929 356/75/398
f 119/63/400 411/94/930 355/75/401
f 406/19/403 401/20/409 399/95/404
f 41/96/406 36/74/931 403/86/407
f 401/20/409 394/16/932 390/80/410
f 39/96/411 398/95/933 391/80/412
f 370/97/414 572/97/934 575/13/415
f 52/98/417 48/103/935 380/99/418
f 378/15/420 578/15/451 583/9/421
f 52/98/417 376/100/419 366/97/423
f 369/97/425 373/13/936 362/10/426
f 56/101/428 368/97/937 358/73/429
f 344/7/431 387/9/938 383/99/432
f 50/103/434 16/108/939 348/102/435
f 567/83/437 569/60/940 488/60/438
f 584/9/440 579/15/443 576/100/441
f 579/15/443 574/13/941 570/97/444
f 377/100/445 577/100/449 571/97/446
f 381/99/448 581/99/942 577/100/449
f 371/13/450 573/13/943 578/15/451
f 389/9/452 585/9/944 582/99/453
f 13/71/455 591/71/366 604/77/365
f 463/70/457 605/70/945 602/77/458
f 589/69/360 597/84/359 450/84/460
f 471/67/462 600/67/915 598/84/355
f 601/67/464 595/25/946 95/25/465
f 596/25/467 592/71/947 14/71/468
f 606/70/133 587/68/132 6/68/470
f 586/68/130 588/69/129 89/69/472
f 24/12/474 616/12/354 625/10/353
f 479/73/476 627/73/948 624/10/477
f 111/2/479 614/2/949 621/83/480
f 487/60/482 623/60/343 620/83/345
f 622/60/151 618/21/150 121/21/484
f 120/21/486 617/21/148 615/12/147
f 628/73/145 608/72/144 30/72/488
f 31/72/490 610/72/950 613/2/491
f 19/51/493 640/51/951 655/57/494
f 497/75/496 660/75/952 656/57/497
f 37/74/499 636/74/953 647/86/500
f 505/19/502 653/19/954 649/86/503
f 651/19/505 644/76/955 70/76/506
f 643/76/508 639/51/956 17/51/509
f 659/75/511 632/61/957 27/61/512
f 25/61/514 631/61/958 635/74/515
f 61/18/517 672/18/959 687/16/518
f 513/80/520 693/80/960 689/16/521
f 11/79/523 668/79/961 679/85/524
f 521/82/526 684/82/962 680/85/527
f 683/82/529 676/81/963 3/81/530
f 675/81/532 671/18/964 57/18/533
f 691/80/535 663/78/965 44/78/536
f 665/78/538 667/79/966 9/79/539
f 863/104/541 867/104/967 879/104/541
f 871/104/543 883/104/968 881/104/543
f 878/104/545 891/104/969 887/104/545
f 880/104/547 882/104/970 895/104/547
f 695/104/549 849/104/971 864/104/549
f 847/104/551 843/104/972 866/104/551
f 839/104/553 870/104/973 868/104/553
f 707/104/555 834/104/974 872/104/555
f 835/104/557 831/104/975 885/104/557
f 884/104/559 830/104/976 827/104/559
f 896/104/561 826/104/977 713/104/561
f 892/104/563 894/104/978 799/104/563
f 890/104/565 795/104/979 791/104/565
f 888/104/567 793/104/980 701/104/567
f 876/104/569 889/104/981 811/104/569
f 803/104/571 865/104/982 877/104/571
f 899/104/573 903/104/983 915/104/574
f 907/104/576 919/104/984 914/104/577
f 917/104/579 927/104/985 923/104/580
f 916/104/582 921/104/986 931/104/583
f 703/104/585 774/104/987 900/104/586
f 775/104/588 771/104/988 905/104/589
f 767/104/591 909/104/989 904/104/592
f 700/104/594 792/104/990 908/104/595
f 790/104/597 794/104/991 918/104/597
f 920/104/598 796/104/992 798/104/599
f 932/104/601 800/104/993 712/104/602
f 928/104/604 933/104/994 763/104/605
f 929/104/607 759/104/995 755/104/608
f 924/104/610 754/104/996 715/104/611
f 912/104/613 922/104/997 814/104/614
f 822/104/616 898/104/998 910/104/617
f 937/104/619 941/104/999 952/104/620
f 945/104/622 957/104/1000 951/104/623
f 953/104/625 965/104/1001 961/104/626
f 950/104/628 956/104/1002 969/104/629
f 717/104/631 756/104/1003 934/104/632
f 757/104/634 761/104/1004 939/104/635
f 765/104/637 943/104/1005 938/104/638
f 714/104/640 828/104/1006 942/104/641
f 829/104/643 832/104/1007 954/104/644
f 955/104/646 833/104/1008 837/104/646
f 966/104/648 836/104/1009 708/104/649
f 962/104/651 967/104/1010 781/104/651
f 963/104/653 785/104/1011 789/104/654
f 958/104/656 788/104/1012 711/104/657
f 947/104/659 960/104/1013 721/104/660
f 729/104/662 936/104/1014 946/104/663
f 971/104/665 977/104/1015 989/104/666
f 979/104/668 991/104/1016 987/104/669
f 988/104/671 1001/104/1017 995/104/672
f 986/104/674 990/104/1018 1003/104/675
f 710/104/677 740/104/1019 972/104/678
f 739/104/680 737/104/1020 976/104/681
f 731/104/683 978/104/1021 974/104/684
f 698/104/686 858/104/1022 980/104/687
f 859/104/689 855/104/1023 993/104/689
f 992/104/691 854/104/1024 851/104/692
f 1004/104/694 850/104/1025 704/104/695
f 998/104/697 1002/104/1026 823/104/698
f 1000/104/700 821/104/1027 815/104/701
f 996/104/703 817/104/1028 716/104/704
f 984/104/706 997/104/1029 727/104/707
f 719/104/709 973/104/1030 985/104/710
f 1009/104/712 1013/104/1031 1025/104/713
f 1017/104/715 1028/104/1032 1022/104/716
f 1024/104/718 1037/104/1033 1033/104/719
f 1023/104/721 1029/104/1034 1041/104/722
f 699/104/724 752/104/1035 1006/104/725
f 753/104/727 749/104/1036 1011/104/728
f 745/104/730 1015/104/1037 1010/104/731
f 696/104/733 804/104/1038 1014/104/734
f 805/104/736 809/104/1039 1027/104/736
f 1026/104/738 808/104/1040 813/104/738
f 1038/104/740 812/104/1041 702/104/741
f 1034/104/743 1039/104/1042 769/104/744
f 1035/104/746 773/104/1043 777/104/747
f 1030/104/749 776/104/1044 705/104/750
f 1018/104/752 1032/104/1045 853/104/753
f 861/104/755 1008/104/1046 1019/104/756
f 1043/104/758 1046/104/1047 1061/104/759
f 1051/104/761 1065/104/1048 1060/104/762
f 1059/104/764 1070/104/1049 1067/104/765
f 1058/104/767 1063/104/1050 1075/104/768
f 709/104/770 786/104/1051 1044/104/771
f 787/104/773 783/104/1052 1049/104/774
f 779/104/776 1053/104/1053 1048/104/777
f 706/104/779 840/104/1054 1052/104/780
f 838/104/782 844/104/1055 1064/104/783
f 1062/104/785 842/104/1056 846/104/785
f 1076/104/787 848/104/1057 694/104/788
f 1072/104/790 1077/104/1058 743/104/791
f 1073/104/793 747/104/1059 751/104/794
f 1068/104/796 750/104/1060 697/104/797
f 1054/104/799 1066/104/1061 730/104/800
f 738/104/802 1042/104/1062 1056/104/803
