{
	"asset":{
		"generator":"Khronos glTF Blender I/O v5.2.39",
		"version":"2.0"
	},
	"scene":0,
	"scenes":[
		{
			"name":"Scene",
			"nodes":[
				34
			]
		}
	],
	"nodes":[
		{
			"name":"mixamorig:LeftToe_End",
			"rotation":[
				-1.8972057258537234e-09,
				4.0863596950657666e-09,
				8.36735125631094e-11,
				1
			],
			"scale":[
				1,
				1.0000001192092896,
				1.0000001192092896
			],
			"translation":[
				1.1612428352236748e-08,
				0.1632479727268219,
				-2.561137080192566e-09
			]
		},
		{
			"children":[
				0
			],
			"name":"mixamorig:LeftToeBase",
			"rotation":[
				0.2702338695526123,
				-0.008717736229300499,
				0.002446983475238085,
				0.9627521634101868
			],
			"scale":[
				0.9999999403953552,
				1,
				1.000000238418579
			],
			"translation":[
				-2.0845618564635515e-09,
				0.41374337673187256,
				2.4563632905483246e-08
			]
		},
		{
			"children":[
				1
			],
			"name":"mixamorig:LeftFoot",
			"rotation":[
				0.49816423654556274,
				0.005490474868565798,
				-0.0031544759403914213,
				0.8670595288276672
			],
			"scale":[
				1,
				1.0000001192092896,
				1.0000001192092896
			],
			"translation":[
				8.74682193341414e-09,
				0.7395361661911011,
				-1.4290435501607135e-10
			]
		},
		{
			"children":[
				2
			],
			"name":"mixamorig:LeftLeg",
			"rotation":[
				-0.0019884007051587105,
				1.2446947039279621e-05,
				-0.0059335664846003056,
				0.9999804496765137
			],
			"scale":[
				1,
				0.9999999403953552,
				0.9999998807907104
			],
			"translation":[
				-1.5419210797062988e-08,
				0.8228166699409485,
				-2.1284707329982666e-10
			]
		},
		{
			"children":[
				3
			],
			"name":"mixamorig:LeftUpLeg",
			"rotation":[
				-3.23922745337768e-06,
				-0.00044187044841237366,
				-0.9999732375144958,
				0.007303109858185053
			],
			"scale":[
				0.9999999403953552,
				1.0000001192092896,
				1.0000001192092896
			],
			"translation":[
				0.1582760065793991,
				-0.1034156084060669,
				0.01661393977701664
			]
		},
		{
			"name":"mixamorig:RightToe_End",
			"rotation":[
				7.85166776040569e-09,
				-8.885764346544534e-10,
				2.983142899370961e-10,
				1
			],
			"scale":[
				0.9999999403953552,
				1,
				0.9999999403953552
			],
			"translation":[
				-9.080395102500916e-09,
				0.1632821261882782,
				-2.3283064365386963e-10
			]
		},
		{
			"children":[
				5
			],
			"name":"mixamorig:RightToeBase",
			"rotation":[
				0.26940494775772095,
				0.008714736439287663,
				-0.0024380150716751814,
				0.9629845023155212
			],
			"scale":[
				0.9999999403953552,
				1.0000001192092896,
				1
			],
			"translation":[
				-2.527667675167322e-08,
				0.414958119392395,
				-6.28642737865448e-09
			]
		},
		{
			"children":[
				6
			],
			"name":"mixamorig:RightFoot",
			"rotation":[
				0.49794575572013855,
				-0.005472833290696144,
				0.0031425501219928265,
				0.8671852350234985
			],
			"scale":[
				0.9999999403953552,
				0.9999998211860657,
				1
			],
			"translation":[
				-3.6310972006958764e-09,
				0.7395327687263489,
				2.3590018827235326e-10
			]
		},
		{
			"children":[
				7
			],
			"name":"mixamorig:RightLeg",
			"rotation":[
				0.0008540197741240263,
				4.664937023335369e-06,
				0.005933556240051985,
				0.9999820590019226
			],
			"translation":[
				-2.649633756846015e-08,
				0.8228190541267395,
				-2.8632207715872937e-10
			]
		},
		{
			"children":[
				8
			],
			"name":"mixamorig:RightUpLeg",
			"rotation":[
				9.440146641281899e-06,
				-0.001289169187657535,
				0.9999725222587585,
				0.007303083315491676
			],
			"scale":[
				0.9999999403953552,
				1.0000001192092896,
				1.0000001192092896
			],
			"translation":[
				-0.1582760065793991,
				-0.1034156084060669,
				0.01835537888109684
			]
		},
		{
			"name":"mixamorig:LeftHandIndex4",
			"rotation":[
				2.561137080192566e-09,
				2.3283064365386963e-09,
				1.7229467630386353e-08,
				1
			],
			"translation":[
				0.00491085322573781,
				0.031013287603855133,
				0.017112473025918007
			]
		},
		{
			"children":[
				10
			],
			"name":"mixamorig:LeftHandIndex3",
			"rotation":[
				6.174668669700623e-07,
				6.314367055892944e-07,
				-5.248002707958221e-07,
				1
			],
			"translation":[
				-0.00647113798186183,
				0.029737213626503944,
				-0.01178385503590107
			]
		},
		{
			"children":[
				11
			],
			"name":"mixamorig:LeftHandIndex2",
			"rotation":[
				3.6414718351807096e-07,
				2.0163135161510581e-07,
				3.664754615329002e-07,
				1
			],
			"scale":[
				1,
				0.9999998807907104,
				0.9999999403953552
			],
			"translation":[
				-2.8032809495925903e-07,
				0.04795137047767639,
				1.0151416063308716e-07
			]
		},
		{
			"children":[
				12
			],
			"name":"mixamorig:LeftHandIndex1",
			"rotation":[
				0.3426782488822937,
				-0.6384560465812683,
				0.380964070558548,
				0.5742925405502319
			],
			"scale":[
				0.9999998807907104,
				0.9999998807907104,
				0.9999998211860657
			],
			"translation":[
				3.725290298461914e-09,
				0.07939305156469345,
				1.5320256352424622e-07
			]
		},
		{
			"children":[
				13
			],
			"name":"mixamorig:LeftHand",
			"rotation":[
				0.027862906455993652,
				-0.002216491149738431,
				-0.07927132397890091,
				0.9964611530303955
			],
			"scale":[
				1.0000001192092896,
				1,
				1.0000001192092896
			],
			"translation":[
				-2.7939677238464355e-09,
				0.5786442756652832,
				-3.668246790766716e-07
			]
		},
		{
			"children":[
				14
			],
			"name":"mixamorig:LeftForeArm",
			"rotation":[
				-0.011607250198721886,
				-7.065179670462385e-05,
				0.006078585982322693,
				0.9999141693115234
			],
			"scale":[
				1,
				1,
				0.9999998807907104
			],
			"translation":[
				-5.587935447692871e-09,
				0.4926981031894684,
				4.831235855817795e-08
			]
		},
		{
			"children":[
				15
			],
			"name":"mixamorig:LeftArm",
			"rotation":[
				-0.13610881567001343,
				-0.0005333809531293809,
				0.0038823788054287434,
				0.9906861186027527
			],
			"scale":[
				0.9999998807907104,
				1.0000001192092896,
				1
			],
			"translation":[
				9.313225746154785e-10,
				0.21014611423015594,
				5.016336217522621e-07
			]
		},
		{
			"children":[
				16
			],
			"name":"mixamorig:LeftShoulder",
			"rotation":[
				0.5642513632774353,
				0.4237380027770996,
				-0.5721163749694824,
				0.418030321598053
			],
			"translation":[
				0.09985557943582535,
				0.24756719172000885,
				-0.0014056451618671417
			]
		},
		{
			"name":"mixamorig:HeadTop_End",
			"scale":[
				1,
				1.0000001192092896,
				1
			],
			"translation":[
				0,
				0.7877273559570312,
				0.05830211192369461
			]
		},
		{
			"children":[
				18
			],
			"name":"mixamorig:Head",
			"rotation":[
				1.1790639575792738e-09,
				0,
				0,
				1
			],
			"scale":[
				1,
				0.9999998807907104,
				1
			],
			"translation":[
				0,
				0.14742231369018555,
				0.010911165736615658
			]
		},
		{
			"children":[
				19
			],
			"name":"mixamorig:Neck",
			"rotation":[
				0.014509700238704681,
				0,
				0,
				0.9998947381973267
			],
			"scale":[
				1,
				1,
				0.9999999403953552
			],
			"translation":[
				0,
				0.2791673243045807,
				1.1175870895385742e-08
			]
		},
		{
			"name":"mixamorig:RightHandIndex4",
			"rotation":[
				3.2596294552433847e-09,
				-8.032658982415342e-09,
				7.217750841448378e-09,
				1
			],
			"scale":[
				0.9999998211860657,
				0.9999999403953552,
				0.9999999403953552
			],
			"translation":[
				0.0004744799807667732,
				3.4314580261707306e-06,
				-0.002837839536368847
			]
		},
		{
			"children":[
				21
			],
			"name":"mixamorig:RightHandIndex3",
			"rotation":[
				-3.079883981627063e-06,
				1.424923539161682e-07,
				-9.092036634683609e-07,
				1
			],
			"scale":[
				1,
				1,
				0.9999998807907104
			],
			"translation":[
				-0.003082004375755787,
				0.03155520185828209,
				0.012060758657753468
			]
		},
		{
			"children":[
				22
			],
			"name":"mixamorig:RightHandIndex2",
			"rotation":[
				8.02101510544162e-07,
				-4.441244172426195e-08,
				2.612359821796417e-07,
				1
			],
			"scale":[
				1,
				1,
				1.0000001192092896
			],
			"translation":[
				-4.6566128730773926e-09,
				0.05549483746290207,
				-3.390014171600342e-07
			]
		},
		{
			"children":[
				23
			],
			"name":"mixamorig:RightHandIndex1",
			"rotation":[
				0.02524152584373951,
				-0.9588541388511658,
				0.2679618299007416,
				0.09032230079174042
			],
			"scale":[
				1.0000001192092896,
				0.9999995827674866,
				1.0000001192092896
			],
			"translation":[
				-1.1175870895385742e-08,
				0.06705484539270401,
				1.8719583749771118e-07
			]
		},
		{
			"children":[
				24
			],
			"name":"mixamorig:RightHand",
			"rotation":[
				0.08201521635055542,
				-0.0014642871683463454,
				-0.017792103812098503,
				0.9964712262153625
			],
			"scale":[
				1,
				0.9999998807907104,
				1
			],
			"translation":[
				6.05359673500061e-09,
				0.5786409378051758,
				-6.495974957942963e-07
			]
		},
		{
			"children":[
				25
			],
			"name":"mixamorig:RightForeArm",
			"rotation":[
				-0.011542939580976963,
				0.00011179104330949485,
				-0.009679197333753109,
				0.9998865127563477
			],
			"scale":[
				1,
				1.0000001192092896,
				1
			],
			"translation":[
				4.6566128730773926e-09,
				0.4927385747432709,
				-8.498318493366241e-08
			]
		},
		{
			"children":[
				26
			],
			"name":"mixamorig:RightArm",
			"rotation":[
				-0.13636550307273865,
				-0.0007460601627826691,
				0.0054196203127503395,
				0.9906435012817383
			],
			"scale":[
				0.9999997019767761,
				0.9999997615814209,
				1
			],
			"translation":[
				-3.841705620288849e-09,
				0.21014603972434998,
				2.551823854446411e-07
			]
		},
		{
			"children":[
				27
			],
			"name":"mixamorig:RightShoulder",
			"rotation":[
				0.5670880675315857,
				-0.4216283857822418,
				0.5694231390953064,
				0.41999757289886475
			],
			"scale":[
				0.9999998807907104,
				0.9999997019767761,
				0.9999998807907104
			],
			"translation":[
				-0.09985557943582535,
				0.24753886461257935,
				-0.00042975693941116333
			]
		},
		{
			"children":[
				17,
				20,
				28
			],
			"name":"mixamorig:Spine2",
			"rotation":[
				-1.5366822481155396e-08,
				0,
				0,
				1
			],
			"translation":[
				0,
				0.2481488585472107,
				-1.1175870895385742e-08
			]
		},
		{
			"children":[
				29
			],
			"name":"mixamorig:Spine1",
			"rotation":[
				1.862645149230957e-09,
				0,
				0,
				1
			],
			"scale":[
				1,
				0.9999999403953552,
				1
			],
			"translation":[
				0,
				0.21713028848171234,
				9.313225746154785e-09
			]
		},
		{
			"children":[
				30
			],
			"name":"mixamorig:Spine",
			"rotation":[
				-0.014509688131511211,
				0,
				0,
				0.9998947381973267
			],
			"scale":[
				1,
				1.0000001192092896,
				1
			],
			"translation":[
				0,
				0.1860334873199463,
				-0.0054002790711820126
			]
		},
		{
			"children":[
				4,
				9,
				31
			],
			"name":"mixamorig:Hips",
			"rotation":[
				-0.7071067690849304,
				0,
				0,
				0.7071067690849304
			],
			"scale":[
				1,
				0.9999998807907104,
				1
			],
			"translation":[
				0,
				-0.013059865683317184,
				-1.8928730487823486
			]
		},
		{
			"mesh":0,
			"name":"\u7acb\u65b9\u4f53.002",
			"skin":0
		},
		{
			"children":[
				33,
				32
			],
			"name":"Armature",
			"rotation":[
				0.7071068286895752,
				0,
				0,
				0.7071068286895752
			],
			"scale":[
				0.009999999776482582,
				0.009999999776482582,
				0.009999999776482582
			]
		}
	],
	"animations":[
		{
			"channels":[
				{
					"sampler":0,
					"target":{
						"node":32,
						"path":"translation"
					}
				},
				{
					"sampler":1,
					"target":{
						"node":32,
						"path":"rotation"
					}
				},
				{
					"sampler":2,
					"target":{
						"node":32,
						"path":"scale"
					}
				},
				{
					"sampler":3,
					"target":{
						"node":4,
						"path":"translation"
					}
				},
				{
					"sampler":4,
					"target":{
						"node":4,
						"path":"rotation"
					}
				},
				{
					"sampler":5,
					"target":{
						"node":4,
						"path":"scale"
					}
				},
				{
					"sampler":6,
					"target":{
						"node":3,
						"path":"translation"
					}
				},
				{
					"sampler":7,
					"target":{
						"node":3,
						"path":"rotation"
					}
				},
				{
					"sampler":8,
					"target":{
						"node":3,
						"path":"scale"
					}
				},
				{
					"sampler":9,
					"target":{
						"node":2,
						"path":"translation"
					}
				},
				{
					"sampler":10,
					"target":{
						"node":2,
						"path":"rotation"
					}
				},
				{
					"sampler":11,
					"target":{
						"node":2,
						"path":"scale"
					}
				},
				{
					"sampler":12,
					"target":{
						"node":1,
						"path":"translation"
					}
				},
				{
					"sampler":13,
					"target":{
						"node":1,
						"path":"rotation"
					}
				},
				{
					"sampler":14,
					"target":{
						"node":1,
						"path":"scale"
					}
				},
				{
					"sampler":15,
					"target":{
						"node":0,
						"path":"translation"
					}
				},
				{
					"sampler":16,
					"target":{
						"node":0,
						"path":"rotation"
					}
				},
				{
					"sampler":17,
					"target":{
						"node":0,
						"path":"scale"
					}
				},
				{
					"sampler":18,
					"target":{
						"node":9,
						"path":"translation"
					}
				},
				{
					"sampler":19,
					"target":{
						"node":9,
						"path":"rotation"
					}
				},
				{
					"sampler":20,
					"target":{
						"node":9,
						"path":"scale"
					}
				},
				{
					"sampler":21,
					"target":{
						"node":8,
						"path":"translation"
					}
				},
				{
					"sampler":22,
					"target":{
						"node":8,
						"path":"rotation"
					}
				},
				{
					"sampler":23,
					"target":{
						"node":8,
						"path":"scale"
					}
				},
				{
					"sampler":24,
					"target":{
						"node":7,
						"path":"translation"
					}
				},
				{
					"sampler":25,
					"target":{
						"node":7,
						"path":"rotation"
					}
				},
				{
					"sampler":26,
					"target":{
						"node":7,
						"path":"scale"
					}
				},
				{
					"sampler":27,
					"target":{
						"node":6,
						"path":"translation"
					}
				},
				{
					"sampler":28,
					"target":{
						"node":6,
						"path":"rotation"
					}
				},
				{
					"sampler":29,
					"target":{
						"node":6,
						"path":"scale"
					}
				},
				{
					"sampler":30,
					"target":{
						"node":5,
						"path":"translation"
					}
				},
				{
					"sampler":31,
					"target":{
						"node":5,
						"path":"rotation"
					}
				},
				{
					"sampler":32,
					"target":{
						"node":5,
						"path":"scale"
					}
				},
				{
					"sampler":33,
					"target":{
						"node":31,
						"path":"translation"
					}
				},
				{
					"sampler":34,
					"target":{
						"node":31,
						"path":"rotation"
					}
				},
				{
					"sampler":35,
					"target":{
						"node":31,
						"path":"scale"
					}
				},
				{
					"sampler":36,
					"target":{
						"node":30,
						"path":"translation"
					}
				},
				{
					"sampler":37,
					"target":{
						"node":30,
						"path":"rotation"
					}
				},
				{
					"sampler":38,
					"target":{
						"node":30,
						"path":"scale"
					}
				},
				{
					"sampler":39,
					"target":{
						"node":29,
						"path":"translation"
					}
				},
				{
					"sampler":40,
					"target":{
						"node":29,
						"path":"rotation"
					}
				},
				{
					"sampler":41,
					"target":{
						"node":29,
						"path":"scale"
					}
				},
				{
					"sampler":42,
					"target":{
						"node":17,
						"path":"translation"
					}
				},
				{
					"sampler":43,
					"target":{
						"node":17,
						"path":"rotation"
					}
				},
				{
					"sampler":44,
					"target":{
						"node":17,
						"path":"scale"
					}
				},
				{
					"sampler":45,
					"target":{
						"node":16,
						"path":"translation"
					}
				},
				{
					"sampler":46,
					"target":{
						"node":16,
						"path":"rotation"
					}
				},
				{
					"sampler":47,
					"target":{
						"node":16,
						"path":"scale"
					}
				},
				{
					"sampler":48,
					"target":{
						"node":15,
						"path":"translation"
					}
				},
				{
					"sampler":49,
					"target":{
						"node":15,
						"path":"rotation"
					}
				},
				{
					"sampler":50,
					"target":{
						"node":15,
						"path":"scale"
					}
				},
				{
					"sampler":51,
					"target":{
						"node":14,
						"path":"translation"
					}
				},
				{
					"sampler":52,
					"target":{
						"node":14,
						"path":"rotation"
					}
				},
				{
					"sampler":53,
					"target":{
						"node":14,
						"path":"scale"
					}
				},
				{
					"sampler":54,
					"target":{
						"node":13,
						"path":"translation"
					}
				},
				{
					"sampler":55,
					"target":{
						"node":13,
						"path":"rotation"
					}
				},
				{
					"sampler":56,
					"target":{
						"node":13,
						"path":"scale"
					}
				},
				{
					"sampler":57,
					"target":{
						"node":12,
						"path":"translation"
					}
				},
				{
					"sampler":58,
					"target":{
						"node":12,
						"path":"rotation"
					}
				},
				{
					"sampler":59,
					"target":{
						"node":12,
						"path":"scale"
					}
				},
				{
					"sampler":60,
					"target":{
						"node":11,
						"path":"translation"
					}
				},
				{
					"sampler":61,
					"target":{
						"node":11,
						"path":"rotation"
					}
				},
				{
					"sampler":62,
					"target":{
						"node":11,
						"path":"scale"
					}
				},
				{
					"sampler":63,
					"target":{
						"node":10,
						"path":"translation"
					}
				},
				{
					"sampler":64,
					"target":{
						"node":10,
						"path":"rotation"
					}
				},
				{
					"sampler":65,
					"target":{
						"node":10,
						"path":"scale"
					}
				},
				{
					"sampler":66,
					"target":{
						"node":20,
						"path":"translation"
					}
				},
				{
					"sampler":67,
					"target":{
						"node":20,
						"path":"rotation"
					}
				},
				{
					"sampler":68,
					"target":{
						"node":20,
						"path":"scale"
					}
				},
				{
					"sampler":69,
					"target":{
						"node":19,
						"path":"translation"
					}
				},
				{
					"sampler":70,
					"target":{
						"node":19,
						"path":"rotation"
					}
				},
				{
					"sampler":71,
					"target":{
						"node":19,
						"path":"scale"
					}
				},
				{
					"sampler":72,
					"target":{
						"node":18,
						"path":"translation"
					}
				},
				{
					"sampler":73,
					"target":{
						"node":18,
						"path":"rotation"
					}
				},
				{
					"sampler":74,
					"target":{
						"node":18,
						"path":"scale"
					}
				},
				{
					"sampler":75,
					"target":{
						"node":28,
						"path":"translation"
					}
				},
				{
					"sampler":76,
					"target":{
						"node":28,
						"path":"rotation"
					}
				},
				{
					"sampler":77,
					"target":{
						"node":28,
						"path":"scale"
					}
				},
				{
					"sampler":78,
					"target":{
						"node":27,
						"path":"translation"
					}
				},
				{
					"sampler":79,
					"target":{
						"node":27,
						"path":"rotation"
					}
				},
				{
					"sampler":80,
					"target":{
						"node":27,
						"path":"scale"
					}
				},
				{
					"sampler":81,
					"target":{
						"node":26,
						"path":"translation"
					}
				},
				{
					"sampler":82,
					"target":{
						"node":26,
						"path":"rotation"
					}
				},
				{
					"sampler":83,
					"target":{
						"node":26,
						"path":"scale"
					}
				},
				{
					"sampler":84,
					"target":{
						"node":25,
						"path":"translation"
					}
				},
				{
					"sampler":85,
					"target":{
						"node":25,
						"path":"rotation"
					}
				},
				{
					"sampler":86,
					"target":{
						"node":25,
						"path":"scale"
					}
				},
				{
					"sampler":87,
					"target":{
						"node":24,
						"path":"translation"
					}
				},
				{
					"sampler":88,
					"target":{
						"node":24,
						"path":"rotation"
					}
				},
				{
					"sampler":89,
					"target":{
						"node":24,
						"path":"scale"
					}
				},
				{
					"sampler":90,
					"target":{
						"node":23,
						"path":"translation"
					}
				},
				{
					"sampler":91,
					"target":{
						"node":23,
						"path":"rotation"
					}
				},
				{
					"sampler":92,
					"target":{
						"node":23,
						"path":"scale"
					}
				},
				{
					"sampler":93,
					"target":{
						"node":22,
						"path":"translation"
					}
				},
				{
					"sampler":94,
					"target":{
						"node":22,
						"path":"rotation"
					}
				},
				{
					"sampler":95,
					"target":{
						"node":22,
						"path":"scale"
					}
				},
				{
					"sampler":96,
					"target":{
						"node":21,
						"path":"translation"
					}
				},
				{
					"sampler":97,
					"target":{
						"node":21,
						"path":"rotation"
					}
				},
				{
					"sampler":98,
					"target":{
						"node":21,
						"path":"scale"
					}
				}
			],
			"name":"mixamo.com",
			"samplers":[
				{
					"input":7,
					"interpolation":"LINEAR",
					"output":8
				},
				{
					"input":7,
					"interpolation":"LINEAR",
					"output":9
				},
				{
					"input":10,
					"interpolation":"STEP",
					"output":11
				},
				{
					"input":10,
					"interpolation":"LINEAR",
					"output":12
				},
				{
					"input":7,
					"interpolation":"LINEAR",
					"output":13
				},
				{
					"input":10,
					"interpolation":"STEP",
					"output":14
				},
				{
					"input":10,
					"interpolation":"LINEAR",
					"output":15
				},
				{
					"input":7,
					"interpolation":"LINEAR",
					"output":16
				},
				{
					"input":10,
					"interpolation":"LINEAR",
					"output":17
				},
				{
					"input":10,
					"interpolation":"LINEAR",
					"output":18
				},
				{
					"input":7,
					"interpolation":"LINEAR",
					"output":19
				},
				{
					"input":10,
					"interpolation":"STEP",
					"output":20
				},
				{
					"input":10,
					"interpolation":"LINEAR",
					"output":21
				},
				{
					"input":7,
					"interpolation":"LINEAR",
					"output":22
				},
				{
					"input":10,
					"interpolation":"LINEAR",
					"output":23
				},
				{
					"input":10,
					"interpolation":"STEP",
					"output":24
				},
				{
					"input":10,
					"interpolation":"STEP",
					"output":25
				},
				{
					"input":10,
					"interpolation":"STEP",
					"output":26
				},
				{
					"input":10,
					"interpolation":"LINEAR",
					"output":27
				},
				{
					"input":7,
					"interpolation":"LINEAR",
					"output":28
				},
				{
					"input":10,
					"interpolation":"LINEAR",
					"output":29
				},
				{
					"input":10,
					"interpolation":"LINEAR",
					"output":30
				},
				{
					"input":7,
					"interpolation":"LINEAR",
					"output":31
				},
				{
					"input":10,
					"interpolation":"STEP",
					"output":32
				},
				{
					"input":10,
					"interpolation":"LINEAR",
					"output":33
				},
				{
					"input":7,
					"interpolation":"LINEAR",
					"output":34
				},
				{
					"input":10,
					"interpolation":"LINEAR",
					"output":35
				},
				{
					"input":10,
					"interpolation":"LINEAR",
					"output":36
				},
				{
					"input":7,
					"interpolation":"LINEAR",
					"output":37
				},
				{
					"input":10,
					"interpolation":"LINEAR",
					"output":38
				},
				{
					"input":10,
					"interpolation":"STEP",
					"output":39
				},
				{
					"input":10,
					"interpolation":"STEP",
					"output":40
				},
				{
					"input":10,
					"interpolation":"STEP",
					"output":26
				},
				{
					"input":10,
					"interpolation":"LINEAR",
					"output":41
				},
				{
					"input":7,
					"interpolation":"LINEAR",
					"output":42
				},
				{
					"input":10,
					"interpolation":"LINEAR",
					"output":43
				},
				{
					"input":10,
					"interpolation":"LINEAR",
					"output":44
				},
				{
					"input":7,
					"interpolation":"LINEAR",
					"output":45
				},
				{
					"input":10,
					"interpolation":"STEP",
					"output":46
				},
				{
					"input":10,
					"interpolation":"LINEAR",
					"output":47
				},
				{
					"input":7,
					"interpolation":"LINEAR",
					"output":48
				},
				{
					"input":10,
					"interpolation":"STEP",
					"output":49
				},
				{
					"input":10,
					"interpolation":"LINEAR",
					"output":50
				},
				{
					"input":7,
					"interpolation":"LINEAR",
					"output":51
				},
				{
					"input":10,
					"interpolation":"LINEAR",
					"output":52
				},
				{
					"input":10,
					"interpolation":"LINEAR",
					"output":53
				},
				{
					"input":7,
					"interpolation":"LINEAR",
					"output":54
				},
				{
					"input":10,
					"interpolation":"STEP",
					"output":55
				},
				{
					"input":10,
					"interpolation":"LINEAR",
					"output":56
				},
				{
					"input":7,
					"interpolation":"LINEAR",
					"output":57
				},
				{
					"input":10,
					"interpolation":"STEP",
					"output":58
				},
				{
					"input":10,
					"interpolation":"LINEAR",
					"output":59
				},
				{
					"input":7,
					"interpolation":"LINEAR",
					"output":60
				},
				{
					"input":10,
					"interpolation":"STEP",
					"output":61
				},
				{
					"input":10,
					"interpolation":"LINEAR",
					"output":62
				},
				{
					"input":7,
					"interpolation":"LINEAR",
					"output":63
				},
				{
					"input":10,
					"interpolation":"STEP",
					"output":64
				},
				{
					"input":10,
					"interpolation":"LINEAR",
					"output":65
				},
				{
					"input":7,
					"interpolation":"LINEAR",
					"output":66
				},
				{
					"input":10,
					"interpolation":"LINEAR",
					"output":67
				},
				{
					"input":10,
					"interpolation":"LINEAR",
					"output":68
				},
				{
					"input":10,
					"interpolation":"LINEAR",
					"output":69
				},
				{
					"input":10,
					"interpolation":"LINEAR",
					"output":70
				},
				{
					"input":10,
					"interpolation":"STEP",
					"output":71
				},
				{
					"input":10,
					"interpolation":"STEP",
					"output":72
				},
				{
					"input":10,
					"interpolation":"STEP",
					"output":73
				},
				{
					"input":10,
					"interpolation":"LINEAR",
					"output":74
				},
				{
					"input":7,
					"interpolation":"LINEAR",
					"output":75
				},
				{
					"input":10,
					"interpolation":"LINEAR",
					"output":76
				},
				{
					"input":10,
					"interpolation":"LINEAR",
					"output":77
				},
				{
					"input":7,
					"interpolation":"LINEAR",
					"output":78
				},
				{
					"input":10,
					"interpolation":"LINEAR",
					"output":79
				},
				{
					"input":10,
					"interpolation":"STEP",
					"output":80
				},
				{
					"input":10,
					"interpolation":"STEP",
					"output":81
				},
				{
					"input":10,
					"interpolation":"STEP",
					"output":82
				},
				{
					"input":10,
					"interpolation":"LINEAR",
					"output":83
				},
				{
					"input":7,
					"interpolation":"LINEAR",
					"output":84
				},
				{
					"input":10,
					"interpolation":"LINEAR",
					"output":85
				},
				{
					"input":10,
					"interpolation":"LINEAR",
					"output":86
				},
				{
					"input":7,
					"interpolation":"LINEAR",
					"output":87
				},
				{
					"input":10,
					"interpolation":"STEP",
					"output":88
				},
				{
					"input":10,
					"interpolation":"LINEAR",
					"output":89
				},
				{
					"input":7,
					"interpolation":"LINEAR",
					"output":90
				},
				{
					"input":10,
					"interpolation":"LINEAR",
					"output":91
				},
				{
					"input":10,
					"interpolation":"LINEAR",
					"output":92
				},
				{
					"input":7,
					"interpolation":"LINEAR",
					"output":93
				},
				{
					"input":10,
					"interpolation":"STEP",
					"output":94
				},
				{
					"input":10,
					"interpolation":"LINEAR",
					"output":95
				},
				{
					"input":7,
					"interpolation":"LINEAR",
					"output":96
				},
				{
					"input":10,
					"interpolation":"STEP",
					"output":97
				},
				{
					"input":10,
					"interpolation":"LINEAR",
					"output":98
				},
				{
					"input":7,
					"interpolation":"LINEAR",
					"output":99
				},
				{
					"input":10,
					"interpolation":"STEP",
					"output":100
				},
				{
					"input":10,
					"interpolation":"LINEAR",
					"output":101
				},
				{
					"input":10,
					"interpolation":"LINEAR",
					"output":102
				},
				{
					"input":10,
					"interpolation":"STEP",
					"output":103
				},
				{
					"input":10,
					"interpolation":"STEP",
					"output":104
				},
				{
					"input":10,
					"interpolation":"STEP",
					"output":105
				},
				{
					"input":10,
					"interpolation":"STEP",
					"output":106
				}
			]
		},
		{
			"channels":[
				{
					"sampler":0,
					"target":{
						"node":32,
						"path":"translation"
					}
				},
				{
					"sampler":1,
					"target":{
						"node":32,
						"path":"rotation"
					}
				},
				{
					"sampler":2,
					"target":{
						"node":32,
						"path":"scale"
					}
				},
				{
					"sampler":3,
					"target":{
						"node":4,
						"path":"translation"
					}
				},
				{
					"sampler":4,
					"target":{
						"node":4,
						"path":"rotation"
					}
				},
				{
					"sampler":5,
					"target":{
						"node":4,
						"path":"scale"
					}
				},
				{
					"sampler":6,
					"target":{
						"node":3,
						"path":"translation"
					}
				},
				{
					"sampler":7,
					"target":{
						"node":3,
						"path":"rotation"
					}
				},
				{
					"sampler":8,
					"target":{
						"node":3,
						"path":"scale"
					}
				},
				{
					"sampler":9,
					"target":{
						"node":2,
						"path":"translation"
					}
				},
				{
					"sampler":10,
					"target":{
						"node":2,
						"path":"rotation"
					}
				},
				{
					"sampler":11,
					"target":{
						"node":2,
						"path":"scale"
					}
				},
				{
					"sampler":12,
					"target":{
						"node":1,
						"path":"translation"
					}
				},
				{
					"sampler":13,
					"target":{
						"node":1,
						"path":"rotation"
					}
				},
				{
					"sampler":14,
					"target":{
						"node":1,
						"path":"scale"
					}
				},
				{
					"sampler":15,
					"target":{
						"node":0,
						"path":"translation"
					}
				},
				{
					"sampler":16,
					"target":{
						"node":0,
						"path":"rotation"
					}
				},
				{
					"sampler":17,
					"target":{
						"node":0,
						"path":"scale"
					}
				},
				{
					"sampler":18,
					"target":{
						"node":9,
						"path":"translation"
					}
				},
				{
					"sampler":19,
					"target":{
						"node":9,
						"path":"rotation"
					}
				},
				{
					"sampler":20,
					"target":{
						"node":9,
						"path":"scale"
					}
				},
				{
					"sampler":21,
					"target":{
						"node":8,
						"path":"translation"
					}
				},
				{
					"sampler":22,
					"target":{
						"node":8,
						"path":"rotation"
					}
				},
				{
					"sampler":23,
					"target":{
						"node":8,
						"path":"scale"
					}
				},
				{
					"sampler":24,
					"target":{
						"node":7,
						"path":"translation"
					}
				},
				{
					"sampler":25,
					"target":{
						"node":7,
						"path":"rotation"
					}
				},
				{
					"sampler":26,
					"target":{
						"node":7,
						"path":"scale"
					}
				},
				{
					"sampler":27,
					"target":{
						"node":6,
						"path":"translation"
					}
				},
				{
					"sampler":28,
					"target":{
						"node":6,
						"path":"rotation"
					}
				},
				{
					"sampler":29,
					"target":{
						"node":6,
						"path":"scale"
					}
				},
				{
					"sampler":30,
					"target":{
						"node":5,
						"path":"translation"
					}
				},
				{
					"sampler":31,
					"target":{
						"node":5,
						"path":"rotation"
					}
				},
				{
					"sampler":32,
					"target":{
						"node":5,
						"path":"scale"
					}
				},
				{
					"sampler":33,
					"target":{
						"node":31,
						"path":"translation"
					}
				},
				{
					"sampler":34,
					"target":{
						"node":31,
						"path":"rotation"
					}
				},
				{
					"sampler":35,
					"target":{
						"node":31,
						"path":"scale"
					}
				},
				{
					"sampler":36,
					"target":{
						"node":30,
						"path":"translation"
					}
				},
				{
					"sampler":37,
					"target":{
						"node":30,
						"path":"rotation"
					}
				},
				{
					"sampler":38,
					"target":{
						"node":30,
						"path":"scale"
					}
				},
				{
					"sampler":39,
					"target":{
						"node":29,
						"path":"translation"
					}
				},
				{
					"sampler":40,
					"target":{
						"node":29,
						"path":"rotation"
					}
				},
				{
					"sampler":41,
					"target":{
						"node":29,
						"path":"scale"
					}
				},
				{
					"sampler":42,
					"target":{
						"node":17,
						"path":"translation"
					}
				},
				{
					"sampler":43,
					"target":{
						"node":17,
						"path":"rotation"
					}
				},
				{
					"sampler":44,
					"target":{
						"node":17,
						"path":"scale"
					}
				},
				{
					"sampler":45,
					"target":{
						"node":16,
						"path":"translation"
					}
				},
				{
					"sampler":46,
					"target":{
						"node":16,
						"path":"rotation"
					}
				},
				{
					"sampler":47,
					"target":{
						"node":16,
						"path":"scale"
					}
				},
				{
					"sampler":48,
					"target":{
						"node":15,
						"path":"translation"
					}
				},
				{
					"sampler":49,
					"target":{
						"node":15,
						"path":"rotation"
					}
				},
				{
					"sampler":50,
					"target":{
						"node":15,
						"path":"scale"
					}
				},
				{
					"sampler":51,
					"target":{
						"node":14,
						"path":"translation"
					}
				},
				{
					"sampler":52,
					"target":{
						"node":14,
						"path":"rotation"
					}
				},
				{
					"sampler":53,
					"target":{
						"node":14,
						"path":"scale"
					}
				},
				{
					"sampler":54,
					"target":{
						"node":13,
						"path":"translation"
					}
				},
				{
					"sampler":55,
					"target":{
						"node":13,
						"path":"rotation"
					}
				},
				{
					"sampler":56,
					"target":{
						"node":13,
						"path":"scale"
					}
				},
				{
					"sampler":57,
					"target":{
						"node":12,
						"path":"translation"
					}
				},
				{
					"sampler":58,
					"target":{
						"node":12,
						"path":"rotation"
					}
				},
				{
					"sampler":59,
					"target":{
						"node":12,
						"path":"scale"
					}
				},
				{
					"sampler":60,
					"target":{
						"node":11,
						"path":"translation"
					}
				},
				{
					"sampler":61,
					"target":{
						"node":11,
						"path":"rotation"
					}
				},
				{
					"sampler":62,
					"target":{
						"node":11,
						"path":"scale"
					}
				},
				{
					"sampler":63,
					"target":{
						"node":10,
						"path":"translation"
					}
				},
				{
					"sampler":64,
					"target":{
						"node":10,
						"path":"rotation"
					}
				},
				{
					"sampler":65,
					"target":{
						"node":10,
						"path":"scale"
					}
				},
				{
					"sampler":66,
					"target":{
						"node":20,
						"path":"translation"
					}
				},
				{
					"sampler":67,
					"target":{
						"node":20,
						"path":"rotation"
					}
				},
				{
					"sampler":68,
					"target":{
						"node":20,
						"path":"scale"
					}
				},
				{
					"sampler":69,
					"target":{
						"node":19,
						"path":"translation"
					}
				},
				{
					"sampler":70,
					"target":{
						"node":19,
						"path":"rotation"
					}
				},
				{
					"sampler":71,
					"target":{
						"node":19,
						"path":"scale"
					}
				},
				{
					"sampler":72,
					"target":{
						"node":18,
						"path":"translation"
					}
				},
				{
					"sampler":73,
					"target":{
						"node":18,
						"path":"rotation"
					}
				},
				{
					"sampler":74,
					"target":{
						"node":18,
						"path":"scale"
					}
				},
				{
					"sampler":75,
					"target":{
						"node":28,
						"path":"translation"
					}
				},
				{
					"sampler":76,
					"target":{
						"node":28,
						"path":"rotation"
					}
				},
				{
					"sampler":77,
					"target":{
						"node":28,
						"path":"scale"
					}
				},
				{
					"sampler":78,
					"target":{
						"node":27,
						"path":"translation"
					}
				},
				{
					"sampler":79,
					"target":{
						"node":27,
						"path":"rotation"
					}
				},
				{
					"sampler":80,
					"target":{
						"node":27,
						"path":"scale"
					}
				},
				{
					"sampler":81,
					"target":{
						"node":26,
						"path":"translation"
					}
				},
				{
					"sampler":82,
					"target":{
						"node":26,
						"path":"rotation"
					}
				},
				{
					"sampler":83,
					"target":{
						"node":26,
						"path":"scale"
					}
				},
				{
					"sampler":84,
					"target":{
						"node":25,
						"path":"translation"
					}
				},
				{
					"sampler":85,
					"target":{
						"node":25,
						"path":"rotation"
					}
				},
				{
					"sampler":86,
					"target":{
						"node":25,
						"path":"scale"
					}
				},
				{
					"sampler":87,
					"target":{
						"node":24,
						"path":"translation"
					}
				},
				{
					"sampler":88,
					"target":{
						"node":24,
						"path":"rotation"
					}
				},
				{
					"sampler":89,
					"target":{
						"node":24,
						"path":"scale"
					}
				},
				{
					"sampler":90,
					"target":{
						"node":23,
						"path":"translation"
					}
				},
				{
					"sampler":91,
					"target":{
						"node":23,
						"path":"rotation"
					}
				},
				{
					"sampler":92,
					"target":{
						"node":23,
						"path":"scale"
					}
				},
				{
					"sampler":93,
					"target":{
						"node":22,
						"path":"translation"
					}
				},
				{
					"sampler":94,
					"target":{
						"node":22,
						"path":"rotation"
					}
				},
				{
					"sampler":95,
					"target":{
						"node":22,
						"path":"scale"
					}
				},
				{
					"sampler":96,
					"target":{
						"node":21,
						"path":"translation"
					}
				},
				{
					"sampler":97,
					"target":{
						"node":21,
						"path":"rotation"
					}
				},
				{
					"sampler":98,
					"target":{
						"node":21,
						"path":"scale"
					}
				}
			],
			"name":"mixamo.com.001",
			"samplers":[
				{
					"input":7,
					"interpolation":"LINEAR",
					"output":8
				},
				{
					"input":7,
					"interpolation":"LINEAR",
					"output":9
				},
				{
					"input":10,
					"interpolation":"STEP",
					"output":11
				},
				{
					"input":10,
					"interpolation":"LINEAR",
					"output":12
				},
				{
					"input":7,
					"interpolation":"LINEAR",
					"output":13
				},
				{
					"input":10,
					"interpolation":"STEP",
					"output":14
				},
				{
					"input":10,
					"interpolation":"LINEAR",
					"output":15
				},
				{
					"input":7,
					"interpolation":"LINEAR",
					"output":16
				},
				{
					"input":10,
					"interpolation":"LINEAR",
					"output":17
				},
				{
					"input":10,
					"interpolation":"LINEAR",
					"output":18
				},
				{
					"input":7,
					"interpolation":"LINEAR",
					"output":19
				},
				{
					"input":10,
					"interpolation":"STEP",
					"output":20
				},
				{
					"input":10,
					"interpolation":"LINEAR",
					"output":21
				},
				{
					"input":7,
					"interpolation":"LINEAR",
					"output":22
				},
				{
					"input":10,
					"interpolation":"LINEAR",
					"output":23
				},
				{
					"input":10,
					"interpolation":"STEP",
					"output":24
				},
				{
					"input":10,
					"interpolation":"STEP",
					"output":25
				},
				{
					"input":10,
					"interpolation":"STEP",
					"output":26
				},
				{
					"input":10,
					"interpolation":"LINEAR",
					"output":27
				},
				{
					"input":7,
					"interpolation":"LINEAR",
					"output":28
				},
				{
					"input":10,
					"interpolation":"LINEAR",
					"output":29
				},
				{
					"input":10,
					"interpolation":"LINEAR",
					"output":30
				},
				{
					"input":7,
					"interpolation":"LINEAR",
					"output":31
				},
				{
					"input":10,
					"interpolation":"STEP",
					"output":32
				},
				{
					"input":10,
					"interpolation":"LINEAR",
					"output":33
				},
				{
					"input":7,
					"interpolation":"LINEAR",
					"output":34
				},
				{
					"input":10,
					"interpolation":"LINEAR",
					"output":35
				},
				{
					"input":10,
					"interpolation":"LINEAR",
					"output":36
				},
				{
					"input":7,
					"interpolation":"LINEAR",
					"output":37
				},
				{
					"input":10,
					"interpolation":"LINEAR",
					"output":38
				},
				{
					"input":10,
					"interpolation":"STEP",
					"output":39
				},
				{
					"input":10,
					"interpolation":"STEP",
					"output":40
				},
				{
					"input":10,
					"interpolation":"STEP",
					"output":26
				},
				{
					"input":10,
					"interpolation":"LINEAR",
					"output":41
				},
				{
					"input":7,
					"interpolation":"LINEAR",
					"output":42
				},
				{
					"input":10,
					"interpolation":"LINEAR",
					"output":43
				},
				{
					"input":10,
					"interpolation":"LINEAR",
					"output":44
				},
				{
					"input":7,
					"interpolation":"LINEAR",
					"output":45
				},
				{
					"input":10,
					"interpolation":"STEP",
					"output":46
				},
				{
					"input":10,
					"interpolation":"LINEAR",
					"output":47
				},
				{
					"input":7,
					"interpolation":"LINEAR",
					"output":48
				},
				{
					"input":10,
					"interpolation":"STEP",
					"output":49
				},
				{
					"input":10,
					"interpolation":"LINEAR",
					"output":50
				},
				{
					"input":7,
					"interpolation":"LINEAR",
					"output":51
				},
				{
					"input":10,
					"interpolation":"LINEAR",
					"output":52
				},
				{
					"input":10,
					"interpolation":"LINEAR",
					"output":53
				},
				{
					"input":7,
					"interpolation":"LINEAR",
					"output":54
				},
				{
					"input":10,
					"interpolation":"STEP",
					"output":55
				},
				{
					"input":10,
					"interpolation":"LINEAR",
					"output":56
				},
				{
					"input":7,
					"interpolation":"LINEAR",
					"output":57
				},
				{
					"input":10,
					"interpolation":"STEP",
					"output":58
				},
				{
					"input":10,
					"interpolation":"LINEAR",
					"output":59
				},
				{
					"input":7,
					"interpolation":"LINEAR",
					"output":60
				},
				{
					"input":10,
					"interpolation":"STEP",
					"output":61
				},
				{
					"input":10,
					"interpolation":"LINEAR",
					"output":62
				},
				{
					"input":7,
					"interpolation":"LINEAR",
					"output":63
				},
				{
					"input":10,
					"interpolation":"STEP",
					"output":64
				},
				{
					"input":10,
					"interpolation":"LINEAR",
					"output":65
				},
				{
					"input":7,
					"interpolation":"LINEAR",
					"output":66
				},
				{
					"input":10,
					"interpolation":"LINEAR",
					"output":67
				},
				{
					"input":10,
					"interpolation":"LINEAR",
					"output":68
				},
				{
					"input":10,
					"interpolation":"LINEAR",
					"output":69
				},
				{
					"input":10,
					"interpolation":"LINEAR",
					"output":70
				},
				{
					"input":10,
					"interpolation":"STEP",
					"output":71
				},
				{
					"input":10,
					"interpolation":"STEP",
					"output":72
				},
				{
					"input":10,
					"interpolation":"STEP",
					"output":73
				},
				{
					"input":10,
					"interpolation":"LINEAR",
					"output":74
				},
				{
					"input":7,
					"interpolation":"LINEAR",
					"output":75
				},
				{
					"input":10,
					"interpolation":"LINEAR",
					"output":76
				},
				{
					"input":10,
					"interpolation":"LINEAR",
					"output":77
				},
				{
					"input":7,
					"interpolation":"LINEAR",
					"output":78
				},
				{
					"input":10,
					"interpolation":"LINEAR",
					"output":79
				},
				{
					"input":10,
					"interpolation":"STEP",
					"output":80
				},
				{
					"input":10,
					"interpolation":"STEP",
					"output":81
				},
				{
					"input":10,
					"interpolation":"STEP",
					"output":82
				},
				{
					"input":10,
					"interpolation":"LINEAR",
					"output":83
				},
				{
					"input":7,
					"interpolation":"LINEAR",
					"output":84
				},
				{
					"input":10,
					"interpolation":"LINEAR",
					"output":85
				},
				{
					"input":10,
					"interpolation":"LINEAR",
					"output":86
				},
				{
					"input":7,
					"interpolation":"LINEAR",
					"output":87
				},
				{
					"input":10,
					"interpolation":"STEP",
					"output":88
				},
				{
					"input":10,
					"interpolation":"LINEAR",
					"output":89
				},
				{
					"input":7,
					"interpolation":"LINEAR",
					"output":90
				},
				{
					"input":10,
					"interpolation":"LINEAR",
					"output":91
				},
				{
					"input":10,
					"interpolation":"LINEAR",
					"output":92
				},
				{
					"input":7,
					"interpolation":"LINEAR",
					"output":93
				},
				{
					"input":10,
					"interpolation":"STEP",
					"output":94
				},
				{
					"input":10,
					"interpolation":"LINEAR",
					"output":95
				},
				{
					"input":7,
					"interpolation":"LINEAR",
					"output":96
				},
				{
					"input":10,
					"interpolation":"STEP",
					"output":97
				},
				{
					"input":10,
					"interpolation":"LINEAR",
					"output":98
				},
				{
					"input":7,
					"interpolation":"LINEAR",
					"output":99
				},
				{
					"input":10,
					"interpolation":"STEP",
					"output":100
				},
				{
					"input":10,
					"interpolation":"LINEAR",
					"output":101
				},
				{
					"input":10,
					"interpolation":"LINEAR",
					"output":102
				},
				{
					"input":10,
					"interpolation":"STEP",
					"output":103
				},
				{
					"input":10,
					"interpolation":"STEP",
					"output":104
				},
				{
					"input":10,
					"interpolation":"STEP",
					"output":105
				},
				{
					"input":10,
					"interpolation":"STEP",
					"output":106
				}
			]
		}
	],
	"meshes":[
		{
			"name":"\u7acb\u65b9\u4f53.002mesh",
			"primitives":[
				{
					"attributes":{
						"POSITION":0,
						"NORMAL":1,
						"TEXCOORD_0":2,
						"JOINTS_0":3,
						"WEIGHTS_0":4
					},
					"indices":5
				}
			]
		}
	],
	"skins":[
		{
			"inverseBindMatrices":6,
			"joints":[
				32,
				4,
				3,
				2,
				1,
				0,
				9,
				8,
				7,
				6,
				5,
				31,
				30,
				29,
				17,
				16,
				15,
				14,
				13,
				12,
				11,
				10,
				20,
				19,
				18,
				28,
				27,
				26,
				25,
				24,
				23,
				22,
				21
			],
			"name":"Armature"
		}
	],
	"accessors":[
		{
			"bufferView":0,
			"componentType":5126,
			"count":1077,
			"max":[
				0.015140559524297714,
				0.037633080035448074,
				0.005527529399842024
			],
			"min":[
				-0.015140559524297714,
				4.852989877690561e-05,
				-0.0037777824327349663
			],
			"type":"VEC3"
		},
		{
			"bufferView":1,
			"componentType":5126,
			"count":1077,
			"type":"VEC3"
		},
		{
			"bufferView":2,
			"componentType":5126,
			"count":1077,
			"type":"VEC2"
		},
		{
			"bufferView":3,
			"componentType":5121,
			"count":1077,
			"type":"VEC4"
		},
		{
			"bufferView":4,
			"componentType":5126,
			"count":1077,
			"type":"VEC4"
		},
		{
			"bufferView":5,
			"componentType":5123,
			"count":1716,
			"type":"SCALAR"
		},
		{
			"bufferView":6,
			"componentType":5126,
			"count":33,
			"type":"MAT4"
		},
		{
			"bufferView":7,
			"componentType":5126,
			"count":61,
			"max":[
				2.033333333333333
			],
			"min":[
				0.03333333333333333
			],
			"type":"SCALAR"
		},
		{
			"bufferView":8,
			"componentType":5126,
			"count":61,
			"type":"VEC3"
		},
		{
			"bufferView":9,
			"componentType":5126,
			"count":61,
			"type":"VEC4"
		},
		{
			"bufferView":10,
			"componentType":5126,
			"count":2,
			"max":[
				2.033333333333333
			],
			"min":[
				0.03333333333333333
			],
			"type":"SCALAR"
		},
		{
			"bufferView":11,
			"componentType":5126,
			"count":2,
			"type":"VEC3"
		},
		{
			"bufferView":12,
			"componentType":5126,
			"count":2,
			"type":"VEC3"
		},
		{
			"bufferView":13,
			"componentType":5126,
			"count":61,
			"type":"VEC4"
		},
		{
			"bufferView":14,
			"componentType":5126,
			"count":2,
			"type":"VEC3"
		},
		{
			"bufferView":15,
			"componentType":5126,
			"count":2,
			"type":"VEC3"
		},
		{
			"bufferView":16,
			"componentType":5126,
			"count":61,
			"type":"VEC4"
		},
		{
			"bufferView":17,
			"componentType":5126,
			"count":2,
			"type":"VEC3"
		},
		{
			"bufferView":18,
			"componentType":5126,
			"count":2,
			"type":"VEC3"
		},
		{
			"bufferView":19,
			"componentType":5126,
			"count":61,
			"type":"VEC4"
		},
		{
			"bufferView":20,
			"componentType":5126,
			"count":2,
			"type":"VEC3"
		},
		{
			"bufferView":21,
			"componentType":5126,
			"count":2,
			"type":"VEC3"
		},
		{
			"bufferView":22,
			"componentType":5126,
			"count":61,
			"type":"VEC4"
		},
		{
			"bufferView":23,
			"componentType":5126,
			"count":2,
			"type":"VEC3"
		},
		{
			"bufferView":24,
			"componentType":5126,
			"count":2,
			"type":"VEC3"
		},
		{
			"bufferView":25,
			"componentType":5126,
			"count":2,
			"type":"VEC4"
		},
		{
			"bufferView":26,
			"componentType":5126,
			"count":2,
			"type":"VEC3"
		},
		{
			"bufferView":27,
			"componentType":5126,
			"count":2,
			"type":"VEC3"
		},
		{
			"bufferView":28,
			"componentType":5126,
			"count":61,
			"type":"VEC4"
		},
		{
			"bufferView":29,
			"componentType":5126,
			"count":2,
			"type":"VEC3"
		},
		{
			"bufferView":30,
			"componentType":5126,
			"count":2,
			"type":"VEC3"
		},
		{
			"bufferView":31,
			"componentType":5126,
			"count":61,
			"type":"VEC4"
		},
		{
			"bufferView":32,
			"componentType":5126,
			"count":2,
			"type":"VEC3"
		},
		{
			"bufferView":33,
			"componentType":5126,
			"count":2,
			"type":"VEC3"
		},
		{
			"bufferView":34,
			"componentType":5126,
			"count":61,
			"type":"VEC4"
		},
		{
			"bufferView":35,
			"componentType":5126,
			"count":2,
			"type":"VEC3"
		},
		{
			"bufferView":36,
			"componentType":5126,
			"count":2,
			"type":"VEC3"
		},
		{
			"bufferView":37,
			"componentType":5126,
			"count":61,
			"type":"VEC4"
		},
		{
			"bufferView":38,
			"componentType":5126,
			"count":2,
			"type":"VEC3"
		},
		{
			"bufferView":39,
			"componentType":5126,
			"count":2,
			"type":"VEC3"
		},
		{
			"bufferView":40,
			"componentType":5126,
			"count":2,
			"type":"VEC4"
		},
		{
			"bufferView":41,
			"componentType":5126,
			"count":2,
			"type":"VEC3"
		},
		{
			"bufferView":42,
			"componentType":5126,
			"count":61,
			"type":"VEC4"
		},
		{
			"bufferView":43,
			"componentType":5126,
			"count":2,
			"type":"VEC3"
		},
		{
			"bufferView":44,
			"componentType":5126,
			"count":2,
			"type":"VEC3"
		},
		{
			"bufferView":45,
			"componentType":5126,
			"count":61,
			"type":"VEC4"
		},
		{
			"bufferView":46,
			"componentType":5126,
			"count":2,
			"type":"VEC3"
		},
		{
			"bufferView":47,
			"componentType":5126,
			"count":2,
			"type":"VEC3"
		},
		{
			"bufferView":48,
			"componentType":5126,
			"count":61,
			"type":"VEC4"
		},
		{
			"bufferView":49,
			"componentType":5126,
			"count":2,
			"type":"VEC3"
		},
		{
			"bufferView":50,
			"componentType":5126,
			"count":2,
			"type":"VEC3"
		},
		{
			"bufferView":51,
			"componentType":5126,
			"count":61,
			"type":"VEC4"
		},
		{
			"bufferView":52,
			"componentType":5126,
			"count":2,
			"type":"VEC3"
		},
		{
			"bufferView":53,
			"componentType":5126,
			"count":2,
			"type":"VEC3"
		},
		{
			"bufferView":54,
			"componentType":5126,
			"count":61,
			"type":"VEC4"
		},
		{
			"bufferView":55,
			"componentType":5126,
			"count":2,
			"type":"VEC3"
		},
		{
			"bufferView":56,
			"componentType":5126,
			"count":2,
			"type":"VEC3"
		},
		{
			"bufferView":57,
			"componentType":5126,
			"count":61,
			"type":"VEC4"
		},
		{
			"bufferView":58,
			"componentType":5126,
			"count":2,
			"type":"VEC3"
		},
		{
			"bufferView":59,
			"componentType":5126,
			"count":2,
			"type":"VEC3"
		},
		{
			"bufferView":60,
			"componentType":5126,
			"count":61,
			"type":"VEC4"
		},
		{
			"bufferView":61,
			"componentType":5126,
			"count":2,
			"type":"VEC3"
		},
		{
			"bufferView":62,
			"componentType":5126,
			"count":2,
			"type":"VEC3"
		},
		{
			"bufferView":63,
			"componentType":5126,
			"count":61,
			"type":"VEC4"
		},
		{
			"bufferView":64,
			"componentType":5126,
			"count":2,
			"type":"VEC3"
		},
		{
			"bufferView":65,
			"componentType":5126,
			"count":2,
			"type":"VEC3"
		},
		{
			"bufferView":66,
			"componentType":5126,
			"count":61,
			"type":"VEC4"
		},
		{
			"bufferView":67,
			"componentType":5126,
			"count":2,
			"type":"VEC3"
		},
		{
			"bufferView":68,
			"componentType":5126,
			"count":2,
			"type":"VEC3"
		},
		{
			"bufferView":69,
			"componentType":5126,
			"count":2,
			"type":"VEC4"
		},
		{
			"bufferView":70,
			"componentType":5126,
			"count":2,
			"type":"VEC3"
		},
		{
			"bufferView":71,
			"componentType":5126,
			"count":2,
			"type":"VEC3"
		},
		{
			"bufferView":72,
			"componentType":5126,
			"count":2,
			"type":"VEC4"
		},
		{
			"bufferView":73,
			"componentType":5126,
			"count":2,
			"type":"VEC3"
		},
		{
			"bufferView":74,
			"componentType":5126,
			"count":2,
			"type":"VEC3"
		},
		{
			"bufferView":75,
			"componentType":5126,
			"count":61,
			"type":"VEC4"
		},
		{
			"bufferView":76,
			"componentType":5126,
			"count":2,
			"type":"VEC3"
		},
		{
			"bufferView":77,
			"componentType":5126,
			"count":2,
			"type":"VEC3"
		},
		{
			"bufferView":78,
			"componentType":5126,
			"count":61,
			"type":"VEC4"
		},
		{
			"bufferView":79,
			"componentType":5126,
			"count":2,
			"type":"VEC3"
		},
		{
			"bufferView":80,
			"componentType":5126,
			"count":2,
			"type":"VEC3"
		},
		{
			"bufferView":81,
			"componentType":5126,
			"count":2,
			"type":"VEC4"
		},
		{
			"bufferView":82,
			"componentType":5126,
			"count":2,
			"type":"VEC3"
		},
		{
			"bufferView":83,
			"componentType":5126,
			"count":2,
			"type":"VEC3"
		},
		{
			"bufferView":84,
			"componentType":5126,
			"count":61,
			"type":"VEC4"
		},
		{
			"bufferView":85,
			"componentType":5126,
			"count":2,
			"type":"VEC3"
		},
		{
			"bufferView":86,
			"componentType":5126,
			"count":2,
			"type":"VEC3"
		},
		{
			"bufferView":87,
			"componentType":5126,
			"count":61,
			"type":"VEC4"
		},
		{
			"bufferView":88,
			"componentType":5126,
			"count":2,
			"type":"VEC3"
		},
		{
			"bufferView":89,
			"componentType":5126,
			"count":2,
			"type":"VEC3"
		},
		{
			"bufferView":90,
			"componentType":5126,
			"count":61,
			"type":"VEC4"
		},
		{
			"bufferView":91,
			"componentType":5126,
			"count":2,
			"type":"VEC3"
		},
		{
			"bufferView":92,
			"componentType":5126,
			"count":2,
			"type":"VEC3"
		},
		{
			"bufferView":93,
			"componentType":5126,
			"count":61,
			"type":"VEC4"
		},
		{
			"bufferView":94,
			"componentType":5126,
			"count":2,
			"type":"VEC3"
		},
		{
			"bufferView":95,
			"componentType":5126,
			"count":2,
			"type":"VEC3"
		},
		{
			"bufferView":96,
			"componentType":5126,
			"count":61,
			"type":"VEC4"
		},
		{
			"bufferView":97,
			"componentType":5126,
			"count":2,
			"type":"VEC3"
		},
		{
			"bufferView":98,
			"componentType":5126,
			"count":2,
			"type":"VEC3"
		},
		{
			"bufferView":99,
			"componentType":5126,
			"count":61,
			"type":"VEC4"
		},
		{
			"bufferView":100,
			"componentType":5126,
			"count":2,
			"type":"VEC3"
		},
		{
			"bufferView":101,
			"componentType":5126,
			"count":2,
			"type":"VEC3"
		},
		{
			"bufferView":102,
			"componentType":5126,
			"count":2,
			"type":"VEC4"
		},
		{
			"bufferView":103,
			"componentType":5126,
			"count":2,
			"type":"VEC3"
		},
		{
			"bufferView":104,
			"componentType":5126,
			"count":2,
			"type":"VEC3"
		},
		{
			"bufferView":105,
			"componentType":5126,
			"count":2,
			"type":"VEC4"
		},
		{
			"bufferView":106,
			"componentType":5126,
			"count":2,
			"type":"VEC3"
		}
	],
	"bufferViews":[
		{
			"buffer":0,
			"byteLength":12924,
			"byteOffset":0,
			"target":34962
		},
		{
			"buffer":0,
			"byteLength":12924,
			"byteOffset":12924,
			"target":34962
		},
		{
			"buffer":0,
			"byteLength":8616,
			"byteOffset":25848,
			"target":34962
		},
		{
			"buffer":0,
			"byteLength":4308,
			"byteOffset":34464,
			"target":34962
		},
		{
			"buffer":0,
			"byteLength":17232,
			"byteOffset":38772,
			"target":34962
		},
		{
			"buffer":0,
			"byteLength":3432,
			"byteOffset":56004,
			"target":34963
		},
		{
			"buffer":0,
			"byteLength":2112,
			"byteOffset":59436
		},
		{
			"buffer":0,
			"byteLength":244,
			"byteOffset":61548
		},
		{
			"buffer":0,
			"byteLength":732,
			"byteOffset":61792
		},
		{
			"buffer":0,
			"byteLength":976,
			"byteOffset":62524
		},
		{
			"buffer":0,
			"byteLength":8,
			"byteOffset":63500
		},
		{
			"buffer":0,
			"byteLength":24,
			"byteOffset":63508
		},
		{
			"buffer":0,
			"byteLength":24,
			"byteOffset":63532
		},
		{
			"buffer":0,
			"byteLength":976,
			"byteOffset":63556
		},
		{
			"buffer":0,
			"byteLength":24,
			"byteOffset":64532
		},
		{
			"buffer":0,
			"byteLength":24,
			"byteOffset":64556
		},
		{
			"buffer":0,
			"byteLength":976,
			"byteOffset":64580
		},
		{
			"buffer":0,
			"byteLength":24,
			"byteOffset":65556
		},
		{
			"buffer":0,
			"byteLength":24,
			"byteOffset":65580
		},
		{
			"buffer":0,
			"byteLength":976,
			"byteOffset":65604
		},
		{
			"buffer":0,
			"byteLength":24,
			"byteOffset":66580
		},
		{
			"buffer":0,
			"byteLength":24,
			"byteOffset":66604
		},
		{
			"buffer":0,
			"byteLength":976,
			"byteOffset":66628
		},
		{
			"buffer":0,
			"byteLength":24,
			"byteOffset":67604
		},
		{
			"buffer":0,
			"byteLength":24,
			"byteOffset":67628
		},
		{
			"buffer":0,
			"byteLength":32,
			"byteOffset":67652
		},
		{
			"buffer":0,
			"byteLength":24,
			"byteOffset":67684
		},
		{
			"buffer":0,
			"byteLength":24,
			"byteOffset":67708
		},
		{
			"buffer":0,
			"byteLength":976,
			"byteOffset":67732
		},
		{
			"buffer":0,
			"byteLength":24,
			"byteOffset":68708
		},
		{
			"buffer":0,
			"byteLength":24,
			"byteOffset":68732
		},
		{
			"buffer":0,
			"byteLength":976,
			"byteOffset":68756
		},
		{
			"buffer":0,
			"byteLength":24,
			"byteOffset":69732
		},
		{
			"buffer":0,
			"byteLength":24,
			"byteOffset":69756
		},
		{
			"buffer":0,
			"byteLength":976,
			"byteOffset":69780
		},
		{
			"buffer":0,
			"byteLength":24,
			"byteOffset":70756
		},
		{
			"buffer":0,
			"byteLength":24,
			"byteOffset":70780
		},
		{
			"buffer":0,
			"byteLength":976,
			"byteOffset":70804
		},
		{
			"buffer":0,
			"byteLength":24,
			"byteOffset":71780
		},
		{
			"buffer":0,
			"byteLength":24,
			"byteOffset":71804
		},
		{
			"buffer":0,
			"byteLength":32,
			"byteOffset":71828
		},
		{
			"buffer":0,
			"byteLength":24,
			"byteOffset":71860
		},
		{
			"buffer":0,
			"byteLength":976,
			"byteOffset":71884
		},
		{
			"buffer":0,
			"byteLength":24,
			"byteOffset":72860
		},
		{
			"buffer":0,
			"byteLength":24,
			"byteOffset":72884
		},
		{
			"buffer":0,
			"byteLength":976,
			"byteOffset":72908
		},
		{
			"buffer":0,
			"byteLength":24,
			"byteOffset":73884
		},
		{
			"buffer":0,
			"byteLength":24,
			"byteOffset":73908
		},
		{
			"buffer":0,
			"byteLength":976,
			"byteOffset":73932
		},
		{
			"buffer":0,
			"byteLength":24,
			"byteOffset":74908
		},
		{
			"buffer":0,
			"byteLength":24,
			"byteOffset":74932
		},
		{
			"buffer":0,
			"byteLength":976,
			"byteOffset":74956
		},
		{
			"buffer":0,
			"byteLength":24,
			"byteOffset":75932
		},
		{
			"buffer":0,
			"byteLength":24,
			"byteOffset":75956
		},
		{
			"buffer":0,
			"byteLength":976,
			"byteOffset":75980
		},
		{
			"buffer":0,
			"byteLength":24,
			"byteOffset":76956
		},
		{
			"buffer":0,
			"byteLength":24,
			"byteOffset":76980
		},
		{
			"buffer":0,
			"byteLength":976,
			"byteOffset":77004
		},
		{
			"buffer":0,
			"byteLength":24,
			"byteOffset":77980
		},
		{
			"buffer":0,
			"byteLength":24,
			"byteOffset":78004
		},
		{
			"buffer":0,
			"byteLength":976,
			"byteOffset":78028
		},
		{
			"buffer":0,
			"byteLength":24,
			"byteOffset":79004
		},
		{
			"buffer":0,
			"byteLength":24,
			"byteOffset":79028
		},
		{
			"buffer":0,
			"byteLength":976,
			"byteOffset":79052
		},
		{
			"buffer":0,
			"byteLength":24,
			"byteOffset":80028
		},
		{
			"buffer":0,
			"byteLength":24,
			"byteOffset":80052
		},
		{
			"buffer":0,
			"byteLength":976,
			"byteOffset":80076
		},
		{
			"buffer":0,
			"byteLength":24,
			"byteOffset":81052
		},
		{
			"buffer":0,
			"byteLength":24,
			"byteOffset":81076
		},
		{
			"buffer":0,
			"byteLength":32,
			"byteOffset":81100
		},
		{
			"buffer":0,
			"byteLength":24,
			"byteOffset":81132
		},
		{
			"buffer":0,
			"byteLength":24,
			"byteOffset":81156
		},
		{
			"buffer":0,
			"byteLength":32,
			"byteOffset":81180
		},
		{
			"buffer":0,
			"byteLength":24,
			"byteOffset":81212
		},
		{
			"buffer":0,
			"byteLength":24,
			"byteOffset":81236
		},
		{
			"buffer":0,
			"byteLength":976,
			"byteOffset":81260
		},
		{
			"buffer":0,
			"byteLength":24,
			"byteOffset":82236
		},
		{
			"buffer":0,
			"byteLength":24,
			"byteOffset":82260
		},
		{
			"buffer":0,
			"byteLength":976,
			"byteOffset":82284
		},
		{
			"buffer":0,
			"byteLength":24,
			"byteOffset":83260
		},
		{
			"buffer":0,
			"byteLength":24,
			"byteOffset":83284
		},
		{
			"buffer":0,
			"byteLength":32,
			"byteOffset":83308
		},
		{
			"buffer":0,
			"byteLength":24,
			"byteOffset":83340
		},
		{
			"buffer":0,
			"byteLength":24,
			"byteOffset":83364
		},
		{
			"buffer":0,
			"byteLength":976,
			"byteOffset":83388
		},
		{
			"buffer":0,
			"byteLength":24,
			"byteOffset":84364
		},
		{
			"buffer":0,
			"byteLength":24,
			"byteOffset":84388
		},
		{
			"buffer":0,
			"byteLength":976,
			"byteOffset":84412
		},
		{
			"buffer":0,
			"byteLength":24,
			"byteOffset":85388
		},
		{
			"buffer":0,
			"byteLength":24,
			"byteOffset":85412
		},
		{
			"buffer":0,
			"byteLength":976,
			"byteOffset":85436
		},
		{
			"buffer":0,
			"byteLength":24,
			"byteOffset":86412
		},
		{
			"buffer":0,
			"byteLength":24,
			"byteOffset":86436
		},
		{
			"buffer":0,
			"byteLength":976,
			"byteOffset":86460
		},
		{
			"buffer":0,
			"byteLength":24,
			"byteOffset":87436
		},
		{
			"buffer":0,
			"byteLength":24,
			"byteOffset":87460
		},
		{
			"buffer":0,
			"byteLength":976,
			"byteOffset":87484
		},
		{
			"buffer":0,
			"byteLength":24,
			"byteOffset":88460
		},
		{
			"buffer":0,
			"byteLength":24,
			"byteOffset":88484
		},
		{
			"buffer":0,
			"byteLength":976,
			"byteOffset":88508
		},
		{
			"buffer":0,
			"byteLength":24,
			"byteOffset":89484
		},
		{
			"buffer":0,
			"byteLength":24,
			"byteOffset":89508
		},
		{
			"buffer":0,
			"byteLength":32,
			"byteOffset":89532
		},
		{
			"buffer":0,
			"byteLength":24,
			"byteOffset":89564
		},
		{
			"buffer":0,
			"byteLength":24,
			"byteOffset":89588
		},
		{
			"buffer":0,
			"byteLength":32,
			"byteOffset":89612
		},
		{
			"buffer":0,
			"byteLength":24,
			"byteOffset":89644
		}
	],
	"buffers":[
		{
			"byteLength":89668,
			"uri":"Climbing.bin"
		}
	]
}
