{
	"asset":{
		"generator":"Khronos glTF Blender I/O v5.2.39",
		"version":"2.0"
	},
	"scene":0,
	"scenes":[
		{
			"name":"Scene",
			"nodes":[
				50
			]
		}
	],
	"nodes":[
		{
			"name":"mixamorig:LeftToe_End",
			"rotation":[
				-1.67319758048734e-08,
				5.948095349594951e-10,
				-4.765752237290144e-10,
				1
			],
			"scale":[
				1,
				0.9999998807907104,
				0.9999999403953552
			],
			"translation":[
				-2.051820047199726e-08,
				0.16324804723262787,
				-9.080395102500916e-09
			]
		},
		{
			"children":[
				0
			],
			"name":"mixamorig:LeftToeBase",
			"rotation":[
				0.2702338993549347,
				-0.008731288835406303,
				0.002450804226100445,
				0.9627520442008972
			],
			"scale":[
				0.9999999403953552,
				0.9999999403953552,
				0.9999998807907104
			],
			"translation":[
				1.9674189388751984e-08,
				0.41374337673187256,
				2.2584572434425354e-08
			]
		},
		{
			"children":[
				1
			],
			"name":"mixamorig:LeftFoot",
			"rotation":[
				0.4980694055557251,
				0.005497185979038477,
				-0.003157640341669321,
				0.8671140074729919
			],
			"scale":[
				0.9999999403953552,
				1,
				1
			],
			"translation":[
				-2.0647066278911552e-08,
				0.7467660307884216,
				-2.063416104647331e-10
			]
		},
		{
			"children":[
				2
			],
			"name":"mixamorig:LeftLeg",
			"rotation":[
				-0.0020102562848478556,
				1.5362573321908712e-05,
				-0.007263134233653545,
				0.9999716281890869
			],
			"translation":[
				1.6965913118838216e-08,
				0.8446428775787354,
				-6.085592030302678e-10
			]
		},
		{
			"children":[
				3
			],
			"name":"mixamorig:LeftUpLeg",
			"rotation":[
				-4.965998414263595e-06,
				-0.0005731283454224467,
				-0.9999624490737915,
				0.008644010871648788
			],
			"scale":[
				1,
				1,
				0.9999999403953552
			],
			"translation":[
				0.15565620362758636,
				-0.0999915599822998,
				0.016136981546878815
			]
		},
		{
			"name":"mixamorig:RightToe_End",
			"rotation":[
				1.2090822565369308e-08,
				-1.433363649994135e-09,
				-6.548361852765083e-10,
				1
			],
			"translation":[
				-5.774199962615967e-08,
				0.1632821410894394,
				1.1641532182693481e-09
			]
		},
		{
			"children":[
				5
			],
			"name":"mixamorig:RightToeBase",
			"rotation":[
				0.2694048583507538,
				0.008726341649889946,
				-0.002441295189782977,
				0.9629843831062317
			],
			"scale":[
				1,
				1.0000001192092896,
				1
			],
			"translation":[
				-7.9016899690032e-09,
				0.414958119392395,
				6.076879799365997e-08
			]
		},
		{
			"children":[
				6
			],
			"name":"mixamorig:RightFoot",
			"rotation":[
				0.4979743957519531,
				-0.005476192105561495,
				0.003144726622849703,
				0.8671687841415405
			],
			"scale":[
				1,
				1,
				1.0000001192092896
			],
			"translation":[
				5.8350693166175915e-09,
				0.7467634081840515,
				-1.0584244591882452e-10
			]
		},
		{
			"children":[
				7
			],
			"name":"mixamorig:RightLeg",
			"rotation":[
				0.0016146298730745912,
				1.1358912161085755e-05,
				0.0072630648501217365,
				0.9999723434448242
			],
			"scale":[
				1,
				0.9999999403953552,
				1
			],
			"translation":[
				-2.2605149752052967e-08,
				0.8446498513221741,
				-2.376318031238611e-10
			]
		},
		{
			"children":[
				8
			],
			"name":"mixamorig:RightUpLeg",
			"rotation":[
				1.800131576601416e-05,
				-0.002082556951791048,
				0.9999604821205139,
				0.00864392053335905
			],
			"scale":[
				1,
				0.9999998807907104,
				1
			],
			"translation":[
				-0.15565620362758636,
				-0.09999144077301025,
				0.019712364301085472
			]
		},
		{
			"name":"mixamorig:LeftHandIndex4",
			"rotation":[
				8.881784197001252e-16,
				-7.450580596923828e-09,
				3.91155481338501e-08,
				1
			],
			"scale":[
				1,
				1.0000001192092896,
				1
			],
			"translation":[
				-0.000492023304104805,
				0.0019525699317455292,
				2.3096799850463867e-07
			]
		},
		{
			"children":[
				10
			],
			"name":"mixamorig:LeftHandIndex3",
			"rotation":[
				0.7074918150901794,
				1.5533190378391737e-07,
				6.42389693439327e-07,
				0.7067215442657471
			],
			"scale":[
				1,
				0.9999998807907104,
				0.9999999403953552
			],
			"translation":[
				-0.0010375576093792915,
				0.015570200979709625,
				2.384185791015625e-07
			]
		},
		{
			"children":[
				11
			],
			"name":"mixamorig:LeftHandIndex2",
			"rotation":[
				-0.31020429730415344,
				4.055745534969901e-07,
				-1.0335293865182393e-07,
				0.9506699442863464
			],
			"translation":[
				0.0015292586758732796,
				0.03236769884824753,
				-1.4156103134155273e-07
			]
		},
		{
			"children":[
				12
			],
			"name":"mixamorig:LeftHandIndex1",
			"rotation":[
				-0.08482307940721512,
				-0.027008898556232452,
				0.302198588848114,
				0.9490793347358704
			],
			"scale":[
				0.9999999403953552,
				0.9999998807907104,
				0.9999999403953552
			],
			"translation":[
				-0.004830304998904467,
				0.26500940322875977,
				0.0024026092141866684
			]
		},
		{
			"name":"mixamorig:LeftHandMiddle4",
			"rotation":[
				3.725290298461914e-09,
				9.313225746154785e-09,
				-3.725290298461914e-09,
				1
			],
			"translation":[
				-3.0351337045431137e-05,
				0.009905386716127396,
				1.8812716007232666e-07
			]
		},
		{
			"children":[
				14
			],
			"name":"mixamorig:LeftHandMiddle3",
			"rotation":[
				0.6666592955589294,
				4.2107788544853975e-07,
				3.2961527267616475e-06,
				0.7453625798225403
			],
			"scale":[
				1,
				1.0000001192092896,
				1
			],
			"translation":[
				2.6415102183818817e-05,
				0.03654002398252487,
				-2.9802322387695312e-08
			]
		},
		{
			"children":[
				15
			],
			"name":"mixamorig:LeftHandMiddle2",
			"rotation":[
				-0.0829339474439621,
				-3.457805348716647e-07,
				-1.3370959095482249e-06,
				0.9965550303459167
			],
			"scale":[
				1,
				1,
				0.9999999403953552
			],
			"translation":[
				4.9229711294174194e-06,
				0.11214520782232285,
				1.043081283569336e-07
			]
		},
		{
			"children":[
				16
			],
			"name":"mixamorig:LeftHandMiddle1",
			"rotation":[
				0.027252178639173508,
				-0.013569492846727371,
				-0.4455210864543915,
				0.8947536945343018
			],
			"scale":[
				0.9999998807907104,
				1,
				1
			],
			"translation":[
				0.004829259589314461,
				0.1254081279039383,
				-0.0027045677416026592
			]
		},
		{
			"name":"mixamorig:LeftHandThumb4",
			"rotation":[
				3.259629011154175e-09,
				-3.725290298461914e-09,
				2.6193447411060333e-08,
				1
			],
			"translation":[
				-0.007113193161785603,
				0.02083028480410576,
				1.4901161193847656e-08
			]
		},
		{
			"children":[
				18
			],
			"name":"mixamorig:LeftHandThumb3",
			"rotation":[
				0.023008331656455994,
				-2.2357660611760366e-08,
				-9.03622066061871e-08,
				0.9997352957725525
			],
			"scale":[
				1,
				0.9999999403953552,
				1
			],
			"translation":[
				-0.00324527220800519,
				0.08691686391830444,
				-3.725290298461914e-09
			]
		},
		{
			"children":[
				19
			],
			"name":"mixamorig:LeftHandThumb2",
			"rotation":[
				-0.0534575879573822,
				2.1684256168441607e-08,
				1.367040795230423e-06,
				0.9985701441764832
			],
			"translation":[
				0.010358324274420738,
				0.051784075796604156,
				5.774199962615967e-08
			]
		},
		{
			"children":[
				20
			],
			"name":"mixamorig:LeftHandThumb1",
			"rotation":[
				-0.016833242028951645,
				-0.006456049624830484,
				0.3580295443534851,
				0.933536171913147
			],
			"scale":[
				1,
				0.9999998807907104,
				0.9999998807907104
			],
			"translation":[
				-0.03362768143415451,
				0.05675702542066574,
				-0.0023336261510849
			]
		},
		{
			"children":[
				13,
				17,
				21
			],
			"name":"mixamorig:LeftHand",
			"rotation":[
				0.008045243099331856,
				-0.6334277391433716,
				-0.007735819090157747,
				0.7737213373184204
			],
			"scale":[
				1,
				0.9999999403953552,
				1
			],
			"translation":[
				-1.146690919995308e-08,
				0.47259581089019775,
				-4.313187673687935e-07
			]
		},
		{
			"children":[
				22
			],
			"name":"mixamorig:LeftForeArm",
			"rotation":[
				-0.004178455099463463,
				-2.6127701858058572e-05,
				0.00621907040476799,
				0.9999719262123108
			],
			"scale":[
				1,
				0.9999998211860657,
				0.9999999403953552
			],
			"translation":[
				-4.190951585769653e-08,
				0.44241026043891907,
				3.741588443517685e-07
			]
		},
		{
			"children":[
				23
			],
			"name":"mixamorig:LeftArm",
			"rotation":[
				-0.14946849644184113,
				7.424210343742743e-05,
				-0.0004908738192170858,
				0.9887663722038269
			],
			"scale":[
				0.9999998807907104,
				0.9999999403953552,
				0.9999999403953552
			],
			"translation":[
				-4.423782229423523e-09,
				0.20789702236652374,
				-7.122289389371872e-07
			]
		},
		{
			"children":[
				24
			],
			"name":"mixamorig:LeftShoulder",
			"rotation":[
				0.5686115622520447,
				0.4182703495025635,
				-0.5750781297683716,
				0.4135407507419586
			],
			"scale":[
				1.0000001192092896,
				1.0000001192092896,
				1
			],
			"translation":[
				0.09910736232995987,
				0.23908711969852448,
				-0.0011157989501953125
			]
		},
		{
			"name":"mixamorig:HeadTop_End",
			"rotation":[
				0,
				1.6940378236821493e-21,
				-4.835198594073529e-23,
				1
			],
			"translation":[
				1.2994947343561523e-22,
				0.5257816314697266,
				0.038394272327423096
			]
		},
		{
			"children":[
				26
			],
			"name":"mixamorig:Head",
			"rotation":[
				0,
				-1.4210856409267898e-14,
				5.0209551424139037e-23,
				1
			],
			"translation":[
				-8.536046523755728e-16,
				0.4112875461578369,
				0.030033543705940247
			]
		},
		{
			"children":[
				27
			],
			"name":"mixamorig:Neck",
			"rotation":[
				0.014815058559179306,
				1.4098286577610749e-14,
				2.1217945041637689e-16,
				0.9998902678489685
			],
			"scale":[
				1,
				0.9999999403953552,
				0.9999998807907104
			],
			"translation":[
				-8.271806125530277e-25,
				0.27092042565345764,
				3.725290298461914e-09
			]
		},
		{
			"name":"mixamorig:RightHandIndex4",
			"rotation":[
				1.3969839507410597e-08,
				5.494803190231323e-08,
				2.584420144557953e-08,
				1
			],
			"scale":[
				1,
				0.9999999403953552,
				1
			],
			"translation":[
				-2.0325416699051857e-05,
				0.0003572581335902214,
				2.9802322387695312e-08
			]
		},
		{
			"children":[
				29
			],
			"name":"mixamorig:RightHandIndex3",
			"rotation":[
				0.9910344481468201,
				2.6751688437798293e-06,
				-5.236747711023781e-07,
				0.13360661268234253
			],
			"scale":[
				1.0000001192092896,
				1,
				0.9999966621398926
			],
			"translation":[
				8.577224798500538e-05,
				0.032486800104379654,
				-5.960464477539063e-08
			]
		},
		{
			"children":[
				30
			],
			"name":"mixamorig:RightHandIndex2",
			"rotation":[
				0.0052314759232103825,
				6.985014788796207e-10,
				-1.0191719184149406e-06,
				0.9999862909317017
			],
			"translation":[
				-6.548222154378891e-05,
				0.09286624938249588,
				1.862645149230957e-09
			]
		},
		{
			"children":[
				31
			],
			"name":"mixamorig:RightHandIndex1",
			"rotation":[
				-0.06706048548221588,
				0.02402251958847046,
				-0.33638110756874084,
				0.9390280246734619
			],
			"scale":[
				1,
				1,
				0.9999999403953552
			],
			"translation":[
				0.009854305535554886,
				0.19658473134040833,
				0.005276691168546677
			]
		},
		{
			"name":"mixamorig:RightHandMiddle4",
			"rotation":[
				2.0954757928848267e-09,
				2.3283064365386963e-09,
				-3.597233444452286e-08,
				1
			],
			"scale":[
				1,
				1,
				0.9999999403953552
			],
			"translation":[
				-3.0801165848970413e-06,
				0.0010016087908297777,
				-2.2351741790771484e-08
			]
		},
		{
			"children":[
				33
			],
			"name":"mixamorig:RightHandMiddle3",
			"rotation":[
				-0.022554542869329453,
				-3.260458569798175e-08,
				2.537917680456303e-06,
				0.9997456073760986
			],
			"translation":[
				-3.160163760185242e-05,
				0.03181857615709305,
				2.9802322387695312e-08
			]
		},
		{
			"children":[
				34
			],
			"name":"mixamorig:RightHandMiddle2",
			"rotation":[
				-0.015403211116790771,
				-8.196610679078731e-08,
				1.5310284879888059e-06,
				0.999881386756897
			],
			"translation":[
				3.4495024010539055e-05,
				0.0729801207780838,
				1.4901161193847656e-08
			]
		},
		{
			"children":[
				35
			],
			"name":"mixamorig:RightHandMiddle1",
			"rotation":[
				0.02247912436723709,
				0.010065902024507523,
				0.4085562527179718,
				0.9124007821083069
			],
			"scale":[
				0.9999999403953552,
				1,
				0.9999999403953552
			],
			"translation":[
				-0.009854435920715332,
				0.1954805701971054,
				-0.0014484785497188568
			]
		},
		{
			"name":"mixamorig:RightHandThumb4",
			"rotation":[
				2.421438694000244e-08,
				7.916241884231567e-09,
				4.807952791452408e-08,
				1
			],
			"translation":[
				0.005996626801788807,
				0.006992015987634659,
				-5.960464477539063e-08
			]
		},
		{
			"children":[
				37
			],
			"name":"mixamorig:RightHandThumb3",
			"rotation":[
				-0.14134076237678528,
				-1.825087565521244e-07,
				-4.217130936012836e-06,
				0.9899610280990601
			],
			"scale":[
				1,
				1,
				0.9999998807907104
			],
			"translation":[
				0.005303559824824333,
				0.03366326540708542,
				-5.8673322200775146e-08
			]
		},
		{
			"children":[
				38
			],
			"name":"mixamorig:RightHandThumb2",
			"rotation":[
				0.008844302035868168,
				-8.091181946667803e-09,
				4.033039715523046e-07,
				0.9999608993530273
			],
			"scale":[
				0.9999999403953552,
				0.9999999403953552,
				0.9999998807907104
			],
			"translation":[
				-0.011300128884613514,
				0.06093210354447365,
				1.210719347000122e-08
			]
		},
		{
			"children":[
				39
			],
			"name":"mixamorig:RightHandThumb1",
			"rotation":[
				-0.04086398705840111,
				0.024364275857806206,
				-0.5115337371826172,
				0.8579450845718384
			],
			"scale":[
				0.9999999403953552,
				0.9999999403953552,
				0.9999999403953552
			],
			"translation":[
				0.05998549982905388,
				0.04847704991698265,
				-0.007239110767841339
			]
		},
		{
			"children":[
				32,
				36,
				40
			],
			"name":"mixamorig:RightHand",
			"rotation":[
				0.08173540234565735,
				0.6627970337867737,
				0.049217332154512405,
				0.7426958680152893
			],
			"translation":[
				-3.91155481338501e-08,
				0.47264552116394043,
				8.775386959314346e-07
			]
		},
		{
			"children":[
				41
			],
			"name":"mixamorig:RightForeArm",
			"rotation":[
				-0.004507239907979965,
				-2.1627949536195956e-05,
				0.004763811361044645,
				0.9999784827232361
			],
			"scale":[
				0.9999999403953552,
				0.9999998807907104,
				0.9999997615814209
			],
			"translation":[
				1.3504177331924438e-08,
				0.44238385558128357,
				3.841705620288849e-09
			]
		},
		{
			"children":[
				42
			],
			"name":"mixamorig:RightArm",
			"rotation":[
				-0.1494135856628418,
				0.00021382297563832253,
				-0.0014134423108771443,
				0.988773763179779
			],
			"scale":[
				1,
				1.0000001192092896,
				0.9999999403953552
			],
			"translation":[
				-1.4668330550193787e-08,
				0.2078970968723297,
				-7.498310878872871e-07
			]
		},
		{
			"children":[
				43
			],
			"name":"mixamorig:RightShoulder",
			"rotation":[
				0.5696319937705994,
				-0.41751983761787415,
				0.5741100907325745,
				0.41423922777175903
			],
			"scale":[
				1,
				1,
				0.9999998807907104
			],
			"translation":[
				-0.09910741448402405,
				0.23907619714736938,
				-0.0007715784013271332
			]
		},
		{
			"children":[
				25,
				28,
				44
			],
			"name":"mixamorig:Spine2",
			"rotation":[
				4.656612873077393e-10,
				-9.313224635931761e-10,
				7.3295533160377e-19,
				1
			],
			"translation":[
				0,
				0.2408178448677063,
				0
			]
		},
		{
			"children":[
				45
			],
			"name":"mixamorig:Spine1",
			"rotation":[
				1.3969838619232178e-09,
				2.7755575615628914e-17,
				2.6020852139652106e-18,
				1
			],
			"translation":[
				0,
				0.21071593463420868,
				0
			]
		},
		{
			"children":[
				46
			],
			"name":"mixamorig:Spine",
			"rotation":[
				-0.014814971946179867,
				9.312204896083642e-10,
				-1.3797516948410582e-11,
				0.9998902678489685
			],
			"scale":[
				1,
				1,
				0.9999999403953552
			],
			"translation":[
				0,
				0.18053436279296875,
				-0.0053509920835494995
			]
		},
		{
			"children":[
				4,
				9,
				47
			],
			"name":"mixamorig:Hips",
			"rotation":[
				-0.7071067690849304,
				0,
				0,
				0.7071067690849304
			],
			"translation":[
				0,
				-0.012964960187673569,
				-1.9184675216674805
			]
		},
		{
			"mesh":0,
			"name":"\u7acb\u65b9\u4f53.002",
			"skin":0
		},
		{
			"children":[
				49,
				48
			],
			"name":"Armature",
			"rotation":[
				0.70710688829422,
				0,
				0,
				0.7071066498756409
			]
		}
	],
	"animations":[
		{
			"channels":[
				{
					"sampler":0,
					"target":{
						"node":48,
						"path":"translation"
					}
				},
				{
					"sampler":1,
					"target":{
						"node":48,
						"path":"rotation"
					}
				},
				{
					"sampler":2,
					"target":{
						"node":48,
						"path":"scale"
					}
				},
				{
					"sampler":3,
					"target":{
						"node":4,
						"path":"translation"
					}
				},
				{
					"sampler":4,
					"target":{
						"node":4,
						"path":"rotation"
					}
				},
				{
					"sampler":5,
					"target":{
						"node":4,
						"path":"scale"
					}
				},
				{
					"sampler":6,
					"target":{
						"node":3,
						"path":"translation"
					}
				},
				{
					"sampler":7,
					"target":{
						"node":3,
						"path":"rotation"
					}
				},
				{
					"sampler":8,
					"target":{
						"node":3,
						"path":"scale"
					}
				},
				{
					"sampler":9,
					"target":{
						"node":2,
						"path":"translation"
					}
				},
				{
					"sampler":10,
					"target":{
						"node":2,
						"path":"rotation"
					}
				},
				{
					"sampler":11,
					"target":{
						"node":2,
						"path":"scale"
					}
				},
				{
					"sampler":12,
					"target":{
						"node":1,
						"path":"translation"
					}
				},
				{
					"sampler":13,
					"target":{
						"node":1,
						"path":"rotation"
					}
				},
				{
					"sampler":14,
					"target":{
						"node":1,
						"path":"scale"
					}
				},
				{
					"sampler":15,
					"target":{
						"node":0,
						"path":"translation"
					}
				},
				{
					"sampler":16,
					"target":{
						"node":0,
						"path":"rotation"
					}
				},
				{
					"sampler":17,
					"target":{
						"node":0,
						"path":"scale"
					}
				},
				{
					"sampler":18,
					"target":{
						"node":9,
						"path":"translation"
					}
				},
				{
					"sampler":19,
					"target":{
						"node":9,
						"path":"rotation"
					}
				},
				{
					"sampler":20,
					"target":{
						"node":9,
						"path":"scale"
					}
				},
				{
					"sampler":21,
					"target":{
						"node":8,
						"path":"translation"
					}
				},
				{
					"sampler":22,
					"target":{
						"node":8,
						"path":"rotation"
					}
				},
				{
					"sampler":23,
					"target":{
						"node":8,
						"path":"scale"
					}
				},
				{
					"sampler":24,
					"target":{
						"node":7,
						"path":"translation"
					}
				},
				{
					"sampler":25,
					"target":{
						"node":7,
						"path":"rotation"
					}
				},
				{
					"sampler":26,
					"target":{
						"node":7,
						"path":"scale"
					}
				},
				{
					"sampler":27,
					"target":{
						"node":6,
						"path":"translation"
					}
				},
				{
					"sampler":28,
					"target":{
						"node":6,
						"path":"rotation"
					}
				},
				{
					"sampler":29,
					"target":{
						"node":6,
						"path":"scale"
					}
				},
				{
					"sampler":30,
					"target":{
						"node":5,
						"path":"translation"
					}
				},
				{
					"sampler":31,
					"target":{
						"node":5,
						"path":"rotation"
					}
				},
				{
					"sampler":32,
					"target":{
						"node":5,
						"path":"scale"
					}
				},
				{
					"sampler":33,
					"target":{
						"node":47,
						"path":"translation"
					}
				},
				{
					"sampler":34,
					"target":{
						"node":47,
						"path":"rotation"
					}
				},
				{
					"sampler":35,
					"target":{
						"node":47,
						"path":"scale"
					}
				},
				{
					"sampler":36,
					"target":{
						"node":46,
						"path":"translation"
					}
				},
				{
					"sampler":37,
					"target":{
						"node":46,
						"path":"rotation"
					}
				},
				{
					"sampler":38,
					"target":{
						"node":46,
						"path":"scale"
					}
				},
				{
					"sampler":39,
					"target":{
						"node":45,
						"path":"translation"
					}
				},
				{
					"sampler":40,
					"target":{
						"node":45,
						"path":"rotation"
					}
				},
				{
					"sampler":41,
					"target":{
						"node":45,
						"path":"scale"
					}
				},
				{
					"sampler":42,
					"target":{
						"node":25,
						"path":"translation"
					}
				},
				{
					"sampler":43,
					"target":{
						"node":25,
						"path":"rotation"
					}
				},
				{
					"sampler":44,
					"target":{
						"node":25,
						"path":"scale"
					}
				},
				{
					"sampler":45,
					"target":{
						"node":24,
						"path":"translation"
					}
				},
				{
					"sampler":46,
					"target":{
						"node":24,
						"path":"rotation"
					}
				},
				{
					"sampler":47,
					"target":{
						"node":24,
						"path":"scale"
					}
				},
				{
					"sampler":48,
					"target":{
						"node":23,
						"path":"translation"
					}
				},
				{
					"sampler":49,
					"target":{
						"node":23,
						"path":"rotation"
					}
				},
				{
					"sampler":50,
					"target":{
						"node":23,
						"path":"scale"
					}
				},
				{
					"sampler":51,
					"target":{
						"node":22,
						"path":"translation"
					}
				},
				{
					"sampler":52,
					"target":{
						"node":22,
						"path":"rotation"
					}
				},
				{
					"sampler":53,
					"target":{
						"node":22,
						"path":"scale"
					}
				},
				{
					"sampler":54,
					"target":{
						"node":13,
						"path":"translation"
					}
				},
				{
					"sampler":55,
					"target":{
						"node":13,
						"path":"rotation"
					}
				},
				{
					"sampler":56,
					"target":{
						"node":13,
						"path":"scale"
					}
				},
				{
					"sampler":57,
					"target":{
						"node":12,
						"path":"translation"
					}
				},
				{
					"sampler":58,
					"target":{
						"node":12,
						"path":"rotation"
					}
				},
				{
					"sampler":59,
					"target":{
						"node":12,
						"path":"scale"
					}
				},
				{
					"sampler":60,
					"target":{
						"node":11,
						"path":"translation"
					}
				},
				{
					"sampler":61,
					"target":{
						"node":11,
						"path":"rotation"
					}
				},
				{
					"sampler":62,
					"target":{
						"node":11,
						"path":"scale"
					}
				},
				{
					"sampler":63,
					"target":{
						"node":10,
						"path":"translation"
					}
				},
				{
					"sampler":64,
					"target":{
						"node":10,
						"path":"rotation"
					}
				},
				{
					"sampler":65,
					"target":{
						"node":10,
						"path":"scale"
					}
				},
				{
					"sampler":66,
					"target":{
						"node":17,
						"path":"translation"
					}
				},
				{
					"sampler":67,
					"target":{
						"node":17,
						"path":"rotation"
					}
				},
				{
					"sampler":68,
					"target":{
						"node":17,
						"path":"scale"
					}
				},
				{
					"sampler":69,
					"target":{
						"node":16,
						"path":"translation"
					}
				},
				{
					"sampler":70,
					"target":{
						"node":16,
						"path":"rotation"
					}
				},
				{
					"sampler":71,
					"target":{
						"node":16,
						"path":"scale"
					}
				},
				{
					"sampler":72,
					"target":{
						"node":15,
						"path":"translation"
					}
				},
				{
					"sampler":73,
					"target":{
						"node":15,
						"path":"rotation"
					}
				},
				{
					"sampler":74,
					"target":{
						"node":15,
						"path":"scale"
					}
				},
				{
					"sampler":75,
					"target":{
						"node":14,
						"path":"translation"
					}
				},
				{
					"sampler":76,
					"target":{
						"node":14,
						"path":"rotation"
					}
				},
				{
					"sampler":77,
					"target":{
						"node":14,
						"path":"scale"
					}
				},
				{
					"sampler":78,
					"target":{
						"node":21,
						"path":"translation"
					}
				},
				{
					"sampler":79,
					"target":{
						"node":21,
						"path":"rotation"
					}
				},
				{
					"sampler":80,
					"target":{
						"node":21,
						"path":"scale"
					}
				},
				{
					"sampler":81,
					"target":{
						"node":20,
						"path":"translation"
					}
				},
				{
					"sampler":82,
					"target":{
						"node":20,
						"path":"rotation"
					}
				},
				{
					"sampler":83,
					"target":{
						"node":20,
						"path":"scale"
					}
				},
				{
					"sampler":84,
					"target":{
						"node":19,
						"path":"translation"
					}
				},
				{
					"sampler":85,
					"target":{
						"node":19,
						"path":"rotation"
					}
				},
				{
					"sampler":86,
					"target":{
						"node":19,
						"path":"scale"
					}
				},
				{
					"sampler":87,
					"target":{
						"node":18,
						"path":"translation"
					}
				},
				{
					"sampler":88,
					"target":{
						"node":18,
						"path":"rotation"
					}
				},
				{
					"sampler":89,
					"target":{
						"node":18,
						"path":"scale"
					}
				},
				{
					"sampler":90,
					"target":{
						"node":28,
						"path":"translation"
					}
				},
				{
					"sampler":91,
					"target":{
						"node":28,
						"path":"rotation"
					}
				},
				{
					"sampler":92,
					"target":{
						"node":28,
						"path":"scale"
					}
				},
				{
					"sampler":93,
					"target":{
						"node":27,
						"path":"translation"
					}
				},
				{
					"sampler":94,
					"target":{
						"node":27,
						"path":"rotation"
					}
				},
				{
					"sampler":95,
					"target":{
						"node":27,
						"path":"scale"
					}
				},
				{
					"sampler":96,
					"target":{
						"node":26,
						"path":"translation"
					}
				},
				{
					"sampler":97,
					"target":{
						"node":26,
						"path":"rotation"
					}
				},
				{
					"sampler":98,
					"target":{
						"node":26,
						"path":"scale"
					}
				},
				{
					"sampler":99,
					"target":{
						"node":44,
						"path":"translation"
					}
				},
				{
					"sampler":100,
					"target":{
						"node":44,
						"path":"rotation"
					}
				},
				{
					"sampler":101,
					"target":{
						"node":44,
						"path":"scale"
					}
				},
				{
					"sampler":102,
					"target":{
						"node":43,
						"path":"translation"
					}
				},
				{
					"sampler":103,
					"target":{
						"node":43,
						"path":"rotation"
					}
				},
				{
					"sampler":104,
					"target":{
						"node":43,
						"path":"scale"
					}
				},
				{
					"sampler":105,
					"target":{
						"node":42,
						"path":"translation"
					}
				},
				{
					"sampler":106,
					"target":{
						"node":42,
						"path":"rotation"
					}
				},
				{
					"sampler":107,
					"target":{
						"node":42,
						"path":"scale"
					}
				},
				{
					"sampler":108,
					"target":{
						"node":41,
						"path":"translation"
					}
				},
				{
					"sampler":109,
					"target":{
						"node":41,
						"path":"rotation"
					}
				},
				{
					"sampler":110,
					"target":{
						"node":41,
						"path":"scale"
					}
				},
				{
					"sampler":111,
					"target":{
						"node":32,
						"path":"translation"
					}
				},
				{
					"sampler":112,
					"target":{
						"node":32,
						"path":"rotation"
					}
				},
				{
					"sampler":113,
					"target":{
						"node":32,
						"path":"scale"
					}
				},
				{
					"sampler":114,
					"target":{
						"node":31,
						"path":"translation"
					}
				},
				{
					"sampler":115,
					"target":{
						"node":31,
						"path":"rotation"
					}
				},
				{
					"sampler":116,
					"target":{
						"node":31,
						"path":"scale"
					}
				},
				{
					"sampler":117,
					"target":{
						"node":30,
						"path":"translation"
					}
				},
				{
					"sampler":118,
					"target":{
						"node":30,
						"path":"rotation"
					}
				},
				{
					"sampler":119,
					"target":{
						"node":30,
						"path":"scale"
					}
				},
				{
					"sampler":120,
					"target":{
						"node":29,
						"path":"translation"
					}
				},
				{
					"sampler":121,
					"target":{
						"node":29,
						"path":"rotation"
					}
				},
				{
					"sampler":122,
					"target":{
						"node":29,
						"path":"scale"
					}
				},
				{
					"sampler":123,
					"target":{
						"node":36,
						"path":"translation"
					}
				},
				{
					"sampler":124,
					"target":{
						"node":36,
						"path":"rotation"
					}
				},
				{
					"sampler":125,
					"target":{
						"node":36,
						"path":"scale"
					}
				},
				{
					"sampler":126,
					"target":{
						"node":35,
						"path":"translation"
					}
				},
				{
					"sampler":127,
					"target":{
						"node":35,
						"path":"rotation"
					}
				},
				{
					"sampler":128,
					"target":{
						"node":35,
						"path":"scale"
					}
				},
				{
					"sampler":129,
					"target":{
						"node":34,
						"path":"translation"
					}
				},
				{
					"sampler":130,
					"target":{
						"node":34,
						"path":"rotation"
					}
				},
				{
					"sampler":131,
					"target":{
						"node":34,
						"path":"scale"
					}
				},
				{
					"sampler":132,
					"target":{
						"node":33,
						"path":"translation"
					}
				},
				{
					"sampler":133,
					"target":{
						"node":33,
						"path":"rotation"
					}
				},
				{
					"sampler":134,
					"target":{
						"node":33,
						"path":"scale"
					}
				},
				{
					"sampler":135,
					"target":{
						"node":40,
						"path":"translation"
					}
				},
				{
					"sampler":136,
					"target":{
						"node":40,
						"path":"rotation"
					}
				},
				{
					"sampler":137,
					"target":{
						"node":40,
						"path":"scale"
					}
				},
				{
					"sampler":138,
					"target":{
						"node":39,
						"path":"translation"
					}
				},
				{
					"sampler":139,
					"target":{
						"node":39,
						"path":"rotation"
					}
				},
				{
					"sampler":140,
					"target":{
						"node":39,
						"path":"scale"
					}
				},
				{
					"sampler":141,
					"target":{
						"node":38,
						"path":"translation"
					}
				},
				{
					"sampler":142,
					"target":{
						"node":38,
						"path":"rotation"
					}
				},
				{
					"sampler":143,
					"target":{
						"node":38,
						"path":"scale"
					}
				},
				{
					"sampler":144,
					"target":{
						"node":37,
						"path":"translation"
					}
				},
				{
					"sampler":145,
					"target":{
						"node":37,
						"path":"rotation"
					}
				},
				{
					"sampler":146,
					"target":{
						"node":37,
						"path":"scale"
					}
				}
			],
			"name":"mixamo.com",
			"samplers":[
				{
					"input":7,
					"interpolation":"LINEAR",
					"output":8
				},
				{
					"input":7,
					"interpolation":"LINEAR",
					"output":9
				},
				{
					"input":10,
					"interpolation":"STEP",
					"output":11
				},
				{
					"input":10,
					"interpolation":"STEP",
					"output":12
				},
				{
					"input":7,
					"interpolation":"LINEAR",
					"output":13
				},
				{
					"input":10,
					"interpolation":"STEP",
					"output":14
				},
				{
					"input":10,
					"interpolation":"STEP",
					"output":15
				},
				{
					"input":7,
					"interpolation":"LINEAR",
					"output":16
				},
				{
					"input":10,
					"interpolation":"STEP",
					"output":17
				},
				{
					"input":10,
					"interpolation":"STEP",
					"output":18
				},
				{
					"input":7,
					"interpolation":"LINEAR",
					"output":19
				},
				{
					"input":10,
					"interpolation":"STEP",
					"output":20
				},
				{
					"input":10,
					"interpolation":"STEP",
					"output":21
				},
				{
					"input":7,
					"interpolation":"LINEAR",
					"output":22
				},
				{
					"input":10,
					"interpolation":"STEP",
					"output":23
				},
				{
					"input":10,
					"interpolation":"STEP",
					"output":24
				},
				{
					"input":10,
					"interpolation":"STEP",
					"output":25
				},
				{
					"input":10,
					"interpolation":"STEP",
					"output":26
				},
				{
					"input":10,
					"interpolation":"STEP",
					"output":27
				},
				{
					"input":7,
					"interpolation":"LINEAR",
					"output":28
				},
				{
					"input":10,
					"interpolation":"STEP",
					"output":29
				},
				{
					"input":10,
					"interpolation":"STEP",
					"output":30
				},
				{
					"input":7,
					"interpolation":"LINEAR",
					"output":31
				},
				{
					"input":10,
					"interpolation":"STEP",
					"output":32
				},
				{
					"input":10,
					"interpolation":"STEP",
					"output":33
				},
				{
					"input":7,
					"interpolation":"LINEAR",
					"output":34
				},
				{
					"input":10,
					"interpolation":"STEP",
					"output":35
				},
				{
					"input":10,
					"interpolation":"STEP",
					"output":36
				},
				{
					"input":7,
					"interpolation":"LINEAR",
					"output":37
				},
				{
					"input":10,
					"interpolation":"STEP",
					"output":38
				},
				{
					"input":10,
					"interpolation":"STEP",
					"output":39
				},
				{
					"input":10,
					"interpolation":"STEP",
					"output":40
				},
				{
					"input":10,
					"interpolation":"STEP",
					"output":41
				},
				{
					"input":10,
					"interpolation":"STEP",
					"output":42
				},
				{
					"input":7,
					"interpolation":"LINEAR",
					"output":43
				},
				{
					"input":10,
					"interpolation":"STEP",
					"output":44
				},
				{
					"input":10,
					"interpolation":"STEP",
					"output":45
				},
				{
					"input":7,
					"interpolation":"LINEAR",
					"output":46
				},
				{
					"input":10,
					"interpolation":"STEP",
					"output":47
				},
				{
					"input":10,
					"interpolation":"STEP",
					"output":48
				},
				{
					"input":7,
					"interpolation":"LINEAR",
					"output":49
				},
				{
					"input":10,
					"interpolation":"STEP",
					"output":50
				},
				{
					"input":10,
					"interpolation":"STEP",
					"output":51
				},
				{
					"input":7,
					"interpolation":"LINEAR",
					"output":52
				},
				{
					"input":10,
					"interpolation":"STEP",
					"output":53
				},
				{
					"input":10,
					"interpolation":"STEP",
					"output":54
				},
				{
					"input":7,
					"interpolation":"LINEAR",
					"output":55
				},
				{
					"input":10,
					"interpolation":"STEP",
					"output":56
				},
				{
					"input":10,
					"interpolation":"STEP",
					"output":57
				},
				{
					"input":7,
					"interpolation":"LINEAR",
					"output":58
				},
				{
					"input":10,
					"interpolation":"STEP",
					"output":59
				},
				{
					"input":10,
					"interpolation":"STEP",
					"output":60
				},
				{
					"input":7,
					"interpolation":"LINEAR",
					"output":61
				},
				{
					"input":10,
					"interpolation":"STEP",
					"output":62
				},
				{
					"input":10,
					"interpolation":"STEP",
					"output":63
				},
				{
					"input":7,
					"interpolation":"LINEAR",
					"output":64
				},
				{
					"input":10,
					"interpolation":"STEP",
					"output":65
				},
				{
					"input":10,
					"interpolation":"STEP",
					"output":66
				},
				{
					"input":10,
					"interpolation":"LINEAR",
					"output":67
				},
				{
					"input":10,
					"interpolation":"STEP",
					"output":68
				},
				{
					"input":10,
					"interpolation":"STEP",
					"output":69
				},
				{
					"input":10,
					"interpolation":"STEP",
					"output":70
				},
				{
					"input":10,
					"interpolation":"STEP",
					"output":71
				},
				{
					"input":10,
					"interpolation":"STEP",
					"output":72
				},
				{
					"input":10,
					"interpolation":"STEP",
					"output":73
				},
				{
					"input":10,
					"interpolation":"STEP",
					"output":74
				},
				{
					"input":10,
					"interpolation":"STEP",
					"output":75
				},
				{
					"input":7,
					"interpolation":"LINEAR",
					"output":76
				},
				{
					"input":10,
					"interpolation":"STEP",
					"output":77
				},
				{
					"input":10,
					"interpolation":"STEP",
					"output":78
				},
				{
					"input":7,
					"interpolation":"LINEAR",
					"output":79
				},
				{
					"input":10,
					"interpolation":"STEP",
					"output":80
				},
				{
					"input":10,
					"interpolation":"STEP",
					"output":81
				},
				{
					"input":10,
					"interpolation":"STEP",
					"output":82
				},
				{
					"input":10,
					"interpolation":"STEP",
					"output":83
				},
				{
					"input":10,
					"interpolation":"STEP",
					"output":84
				},
				{
					"input":10,
					"interpolation":"STEP",
					"output":85
				},
				{
					"input":10,
					"interpolation":"STEP",
					"output":86
				},
				{
					"input":10,
					"interpolation":"STEP",
					"output":87
				},
				{
					"input":7,
					"interpolation":"LINEAR",
					"output":88
				},
				{
					"input":10,
					"interpolation":"STEP",
					"output":89
				},
				{
					"input":10,
					"interpolation":"STEP",
					"output":90
				},
				{
					"input":10,
					"interpolation":"LINEAR",
					"output":91
				},
				{
					"input":10,
					"interpolation":"STEP",
					"output":92
				},
				{
					"input":10,
					"interpolation":"STEP",
					"output":93
				},
				{
					"input":10,
					"interpolation":"STEP",
					"output":94
				},
				{
					"input":10,
					"interpolation":"STEP",
					"output":95
				},
				{
					"input":10,
					"interpolation":"STEP",
					"output":96
				},
				{
					"input":10,
					"interpolation":"STEP",
					"output":97
				},
				{
					"input":10,
					"interpolation":"STEP",
					"output":98
				},
				{
					"input":10,
					"interpolation":"STEP",
					"output":99
				},
				{
					"input":7,
					"interpolation":"LINEAR",
					"output":100
				},
				{
					"input":10,
					"interpolation":"STEP",
					"output":101
				},
				{
					"input":10,
					"interpolation":"STEP",
					"output":102
				},
				{
					"input":7,
					"interpolation":"LINEAR",
					"output":103
				},
				{
					"input":10,
					"interpolation":"STEP",
					"output":104
				},
				{
					"input":10,
					"interpolation":"STEP",
					"output":105
				},
				{
					"input":10,
					"interpolation":"STEP",
					"output":106
				},
				{
					"input":10,
					"interpolation":"STEP",
					"output":107
				},
				{
					"input":10,
					"interpolation":"STEP",
					"output":108
				},
				{
					"input":7,
					"interpolation":"LINEAR",
					"output":109
				},
				{
					"input":10,
					"interpolation":"STEP",
					"output":110
				},
				{
					"input":10,
					"interpolation":"STEP",
					"output":111
				},
				{
					"input":7,
					"interpolation":"LINEAR",
					"output":112
				},
				{
					"input":10,
					"interpolation":"STEP",
					"output":113
				},
				{
					"input":10,
					"interpolation":"STEP",
					"output":114
				},
				{
					"input":7,
					"interpolation":"LINEAR",
					"output":115
				},
				{
					"input":10,
					"interpolation":"STEP",
					"output":116
				},
				{
					"input":10,
					"interpolation":"STEP",
					"output":117
				},
				{
					"input":7,
					"interpolation":"LINEAR",
					"output":118
				},
				{
					"input":10,
					"interpolation":"STEP",
					"output":119
				},
				{
					"input":10,
					"interpolation":"STEP",
					"output":120
				},
				{
					"input":7,
					"interpolation":"LINEAR",
					"output":121
				},
				{
					"input":10,
					"interpolation":"STEP",
					"output":122
				},
				{
					"input":10,
					"interpolation":"STEP",
					"output":123
				},
				{
					"input":10,
					"interpolation":"LINEAR",
					"output":124
				},
				{
					"input":10,
					"interpolation":"STEP",
					"output":125
				},
				{
					"input":10,
					"interpolation":"STEP",
					"output":126
				},
				{
					"input":10,
					"interpolation":"STEP",
					"output":127
				},
				{
					"input":10,
					"interpolation":"STEP",
					"output":128
				},
				{
					"input":10,
					"interpolation":"STEP",
					"output":129
				},
				{
					"input":10,
					"interpolation":"STEP",
					"output":130
				},
				{
					"input":10,
					"interpolation":"STEP",
					"output":131
				},
				{
					"input":10,
					"interpolation":"STEP",
					"output":132
				},
				{
					"input":7,
					"interpolation":"LINEAR",
					"output":133
				},
				{
					"input":10,
					"interpolation":"STEP",
					"output":134
				},
				{
					"input":10,
					"interpolation":"STEP",
					"output":135
				},
				{
					"input":7,
					"interpolation":"LINEAR",
					"output":136
				},
				{
					"input":10,
					"interpolation":"STEP",
					"output":137
				},
				{
					"input":10,
					"interpolation":"STEP",
					"output":138
				},
				{
					"input":10,
					"interpolation":"STEP",
					"output":139
				},
				{
					"input":10,
					"interpolation":"STEP",
					"output":140
				},
				{
					"input":10,
					"interpolation":"STEP",
					"output":141
				},
				{
					"input":10,
					"interpolation":"STEP",
					"output":142
				},
				{
					"input":10,
					"interpolation":"STEP",
					"output":143
				},
				{
					"input":10,
					"interpolation":"STEP",
					"output":144
				},
				{
					"input":7,
					"interpolation":"LINEAR",
					"output":145
				},
				{
					"input":10,
					"interpolation":"STEP",
					"output":146
				},
				{
					"input":10,
					"interpolation":"STEP",
					"output":147
				},
				{
					"input":7,
					"interpolation":"LINEAR",
					"output":148
				},
				{
					"input":10,
					"interpolation":"STEP",
					"output":149
				},
				{
					"input":10,
					"interpolation":"STEP",
					"output":150
				},
				{
					"input":10,
					"interpolation":"STEP",
					"output":151
				},
				{
					"input":10,
					"interpolation":"STEP",
					"output":152
				},
				{
					"input":10,
					"interpolation":"STEP",
					"output":153
				},
				{
					"input":10,
					"interpolation":"STEP",
					"output":154
				},
				{
					"input":10,
					"interpolation":"STEP",
					"output":155
				}
			]
		}
	],
	"meshes":[
		{
			"name":"\u7acb\u65b9\u4f53.002mesh",
			"primitives":[
				{
					"attributes":{
						"POSITION":0,
						"NORMAL":1,
						"TEXCOORD_0":2,
						"JOINTS_0":3,
						"WEIGHTS_0":4
					},
					"indices":5
				}
			]
		}
	],
	"skins":[
		{
			"inverseBindMatrices":6,
			"joints":[
				48,
				4,
				3,
				2,
				1,
				0,
				9,
				8,
				7,
				6,
				5,
				47,
				46,
				45,
				25,
				24,
				23,
				22,
				13,
				12,
				11,
				10,
				17,
				16,
				15,
				14,
				21,
				20,
				19,
				18,
				28,
				27,
				26,
				44,
				43,
				42,
				41,
				32,
				31,
				30,
				29,
				36,
				35,
				34,
				33,
				40,
				39,
				38,
				37
			],
			"name":"Armature"
		}
	],
	"accessors":[
		{
			"bufferView":0,
			"componentType":5126,
			"count":1173,
			"max":[
				1.5140562057495117,
				3.7633087635040283,
				0.5527529120445251
			],
			"min":[
				-1.5140565633773804,
				0.004852843005210161,
				-0.3777775466442108
			],
			"type":"VEC3"
		},
		{
			"bufferView":1,
			"componentType":5126,
			"count":1173,
			"type":"VEC3"
		},
		{
			"bufferView":2,
			"componentType":5126,
			"count":1173,
			"type":"VEC2"
		},
		{
			"bufferView":3,
			"componentType":5121,
			"count":1173,
			"type":"VEC4"
		},
		{
			"bufferView":4,
			"componentType":5126,
			"count":1173,
			"type":"VEC4"
		},
		{
			"bufferView":5,
			"componentType":5123,
			"count":1716,
			"type":"SCALAR"
		},
		{
			"bufferView":6,
			"componentType":5126,
			"count":49,
			"type":"MAT4"
		},
		{
			"bufferView":7,
			"componentType":5126,
			"count":12,
			"max":[
				0.4583333333333333
			],
			"min":[
				0
			],
			"type":"SCALAR"
		},
		{
			"bufferView":8,
			"componentType":5126,
			"count":12,
			"type":"VEC3"
		},
		{
			"bufferView":9,
			"componentType":5126,
			"count":12,
			"type":"VEC4"
		},
		{
			"bufferView":10,
			"componentType":5126,
			"count":2,
			"max":[
				0.4583333333333333
			],
			"min":[
				0
			],
			"type":"SCALAR"
		},
		{
			"bufferView":11,
			"componentType":5126,
			"count":2,
			"type":"VEC3"
		},
		{
			"bufferView":12,
			"componentType":5126,
			"count":2,
			"type":"VEC3"
		},
		{
			"bufferView":13,
			"componentType":5126,
			"count":12,
			"type":"VEC4"
		},
		{
			"bufferView":14,
			"componentType":5126,
			"count":2,
			"type":"VEC3"
		},
		{
			"bufferView":15,
			"componentType":5126,
			"count":2,
			"type":"VEC3"
		},
		{
			"bufferView":16,
			"componentType":5126,
			"count":12,
			"type":"VEC4"
		},
		{
			"bufferView":17,
			"componentType":5126,
			"count":2,
			"type":"VEC3"
		},
		{
			"bufferView":18,
			"componentType":5126,
			"count":2,
			"type":"VEC3"
		},
		{
			"bufferView":19,
			"componentType":5126,
			"count":12,
			"type":"VEC4"
		},
		{
			"bufferView":20,
			"componentType":5126,
			"count":2,
			"type":"VEC3"
		},
		{
			"bufferView":21,
			"componentType":5126,
			"count":2,
			"type":"VEC3"
		},
		{
			"bufferView":22,
			"componentType":5126,
			"count":12,
			"type":"VEC4"
		},
		{
			"bufferView":23,
			"componentType":5126,
			"count":2,
			"type":"VEC3"
		},
		{
			"bufferView":24,
			"componentType":5126,
			"count":2,
			"type":"VEC3"
		},
		{
			"bufferView":25,
			"componentType":5126,
			"count":2,
			"type":"VEC4"
		},
		{
			"bufferView":26,
			"componentType":5126,
			"count":2,
			"type":"VEC3"
		},
		{
			"bufferView":27,
			"componentType":5126,
			"count":2,
			"type":"VEC3"
		},
		{
			"bufferView":28,
			"componentType":5126,
			"count":12,
			"type":"VEC4"
		},
		{
			"bufferView":29,
			"componentType":5126,
			"count":2,
			"type":"VEC3"
		},
		{
			"bufferView":30,
			"componentType":5126,
			"count":2,
			"type":"VEC3"
		},
		{
			"bufferView":31,
			"componentType":5126,
			"count":12,
			"type":"VEC4"
		},
		{
			"bufferView":32,
			"componentType":5126,
			"count":2,
			"type":"VEC3"
		},
		{
			"bufferView":33,
			"componentType":5126,
			"count":2,
			"type":"VEC3"
		},
		{
			"bufferView":34,
			"componentType":5126,
			"count":12,
			"type":"VEC4"
		},
		{
			"bufferView":35,
			"componentType":5126,
			"count":2,
			"type":"VEC3"
		},
		{
			"bufferView":36,
			"componentType":5126,
			"count":2,
			"type":"VEC3"
		},
		{
			"bufferView":37,
			"componentType":5126,
			"count":12,
			"type":"VEC4"
		},
		{
			"bufferView":38,
			"componentType":5126,
			"count":2,
			"type":"VEC3"
		},
		{
			"bufferView":39,
			"componentType":5126,
			"count":2,
			"type":"VEC3"
		},
		{
			"bufferView":40,
			"componentType":5126,
			"count":2,
			"type":"VEC4"
		},
		{
			"bufferView":41,
			"componentType":5126,
			"count":2,
			"type":"VEC3"
		},
		{
			"bufferView":42,
			"componentType":5126,
			"count":2,
			"type":"VEC3"
		},
		{
			"bufferView":43,
			"componentType":5126,
			"count":12,
			"type":"VEC4"
		},
		{
			"bufferView":44,
			"componentType":5126,
			"count":2,
			"type":"VEC3"
		},
		{
			"bufferView":45,
			"componentType":5126,
			"count":2,
			"type":"VEC3"
		},
		{
			"bufferView":46,
			"componentType":5126,
			"count":12,
			"type":"VEC4"
		},
		{
			"bufferView":47,
			"componentType":5126,
			"count":2,
			"type":"VEC3"
		},
		{
			"bufferView":48,
			"componentType":5126,
			"count":2,
			"type":"VEC3"
		},
		{
			"bufferView":49,
			"componentType":5126,
			"count":12,
			"type":"VEC4"
		},
		{
			"bufferView":50,
			"componentType":5126,
			"count":2,
			"type":"VEC3"
		},
		{
			"bufferView":51,
			"componentType":5126,
			"count":2,
			"type":"VEC3"
		},
		{
			"bufferView":52,
			"componentType":5126,
			"count":12,
			"type":"VEC4"
		},
		{
			"bufferView":53,
			"componentType":5126,
			"count":2,
			"type":"VEC3"
		},
		{
			"bufferView":54,
			"componentType":5126,
			"count":2,
			"type":"VEC3"
		},
		{
			"bufferView":55,
			"componentType":5126,
			"count":12,
			"type":"VEC4"
		},
		{
			"bufferView":56,
			"componentType":5126,
			"count":2,
			"type":"VEC3"
		},
		{
			"bufferView":57,
			"componentType":5126,
			"count":2,
			"type":"VEC3"
		},
		{
			"bufferView":58,
			"componentType":5126,
			"count":12,
			"type":"VEC4"
		},
		{
			"bufferView":59,
			"componentType":5126,
			"count":2,
			"type":"VEC3"
		},
		{
			"bufferView":60,
			"componentType":5126,
			"count":2,
			"type":"VEC3"
		},
		{
			"bufferView":61,
			"componentType":5126,
			"count":12,
			"type":"VEC4"
		},
		{
			"bufferView":62,
			"componentType":5126,
			"count":2,
			"type":"VEC3"
		},
		{
			"bufferView":63,
			"componentType":5126,
			"count":2,
			"type":"VEC3"
		},
		{
			"bufferView":64,
			"componentType":5126,
			"count":12,
			"type":"VEC4"
		},
		{
			"bufferView":65,
			"componentType":5126,
			"count":2,
			"type":"VEC3"
		},
		{
			"bufferView":66,
			"componentType":5126,
			"count":2,
			"type":"VEC3"
		},
		{
			"bufferView":67,
			"componentType":5126,
			"count":2,
			"type":"VEC4"
		},
		{
			"bufferView":68,
			"componentType":5126,
			"count":2,
			"type":"VEC3"
		},
		{
			"bufferView":69,
			"componentType":5126,
			"count":2,
			"type":"VEC3"
		},
		{
			"bufferView":70,
			"componentType":5126,
			"count":2,
			"type":"VEC4"
		},
		{
			"bufferView":71,
			"componentType":5126,
			"count":2,
			"type":"VEC3"
		},
		{
			"bufferView":72,
			"componentType":5126,
			"count":2,
			"type":"VEC3"
		},
		{
			"bufferView":73,
			"componentType":5126,
			"count":2,
			"type":"VEC4"
		},
		{
			"bufferView":74,
			"componentType":5126,
			"count":2,
			"type":"VEC3"
		},
		{
			"bufferView":75,
			"componentType":5126,
			"count":2,
			"type":"VEC3"
		},
		{
			"bufferView":76,
			"componentType":5126,
			"count":12,
			"type":"VEC4"
		},
		{
			"bufferView":77,
			"componentType":5126,
			"count":2,
			"type":"VEC3"
		},
		{
			"bufferView":78,
			"componentType":5126,
			"count":2,
			"type":"VEC3"
		},
		{
			"bufferView":79,
			"componentType":5126,
			"count":12,
			"type":"VEC4"
		},
		{
			"bufferView":80,
			"componentType":5126,
			"count":2,
			"type":"VEC3"
		},
		{
			"bufferView":81,
			"componentType":5126,
			"count":2,
			"type":"VEC3"
		},
		{
			"bufferView":82,
			"componentType":5126,
			"count":2,
			"type":"VEC4"
		},
		{
			"bufferView":83,
			"componentType":5126,
			"count":2,
			"type":"VEC3"
		},
		{
			"bufferView":84,
			"componentType":5126,
			"count":2,
			"type":"VEC3"
		},
		{
			"bufferView":85,
			"componentType":5126,
			"count":2,
			"type":"VEC4"
		},
		{
			"bufferView":86,
			"componentType":5126,
			"count":2,
			"type":"VEC3"
		},
		{
			"bufferView":87,
			"componentType":5126,
			"count":2,
			"type":"VEC3"
		},
		{
			"bufferView":88,
			"componentType":5126,
			"count":12,
			"type":"VEC4"
		},
		{
			"bufferView":89,
			"componentType":5126,
			"count":2,
			"type":"VEC3"
		},
		{
			"bufferView":90,
			"componentType":5126,
			"count":2,
			"type":"VEC3"
		},
		{
			"bufferView":91,
			"componentType":5126,
			"count":2,
			"type":"VEC4"
		},
		{
			"bufferView":92,
			"componentType":5126,
			"count":2,
			"type":"VEC3"
		},
		{
			"bufferView":93,
			"componentType":5126,
			"count":2,
			"type":"VEC3"
		},
		{
			"bufferView":94,
			"componentType":5126,
			"count":2,
			"type":"VEC4"
		},
		{
			"bufferView":95,
			"componentType":5126,
			"count":2,
			"type":"VEC3"
		},
		{
			"bufferView":96,
			"componentType":5126,
			"count":2,
			"type":"VEC3"
		},
		{
			"bufferView":97,
			"componentType":5126,
			"count":2,
			"type":"VEC4"
		},
		{
			"bufferView":98,
			"componentType":5126,
			"count":2,
			"type":"VEC3"
		},
		{
			"bufferView":99,
			"componentType":5126,
			"count":2,
			"type":"VEC3"
		},
		{
			"bufferView":100,
			"componentType":5126,
			"count":12,
			"type":"VEC4"
		},
		{
			"bufferView":101,
			"componentType":5126,
			"count":2,
			"type":"VEC3"
		},
		{
			"bufferView":102,
			"componentType":5126,
			"count":2,
			"type":"VEC3"
		},
		{
			"bufferView":103,
			"componentType":5126,
			"count":12,
			"type":"VEC4"
		},
		{
			"bufferView":104,
			"componentType":5126,
			"count":2,
			"type":"VEC3"
		},
		{
			"bufferView":105,
			"componentType":5126,
			"count":2,
			"type":"VEC3"
		},
		{
			"bufferView":106,
			"componentType":5126,
			"count":2,
			"type":"VEC4"
		},
		{
			"bufferView":107,
			"componentType":5126,
			"count":2,
			"type":"VEC3"
		},
		{
			"bufferView":108,
			"componentType":5126,
			"count":2,
			"type":"VEC3"
		},
		{
			"bufferView":109,
			"componentType":5126,
			"count":12,
			"type":"VEC4"
		},
		{
			"bufferView":110,
			"componentType":5126,
			"count":2,
			"type":"VEC3"
		},
		{
			"bufferView":111,
			"componentType":5126,
			"count":2,
			"type":"VEC3"
		},
		{
			"bufferView":112,
			"componentType":5126,
			"count":12,
			"type":"VEC4"
		},
		{
			"bufferView":113,
			"componentType":5126,
			"count":2,
			"type":"VEC3"
		},
		{
			"bufferView":114,
			"componentType":5126,
			"count":2,
			"type":"VEC3"
		},
		{
			"bufferView":115,
			"componentType":5126,
			"count":12,
			"type":"VEC4"
		},
		{
			"bufferView":116,
			"componentType":5126,
			"count":2,
			"type":"VEC3"
		},
		{
			"bufferView":117,
			"componentType":5126,
			"count":2,
			"type":"VEC3"
		},
		{
			"bufferView":118,
			"componentType":5126,
			"count":12,
			"type":"VEC4"
		},
		{
			"bufferView":119,
			"componentType":5126,
			"count":2,
			"type":"VEC3"
		},
		{
			"bufferView":120,
			"componentType":5126,
			"count":2,
			"type":"VEC3"
		},
		{
			"bufferView":121,
			"componentType":5126,
			"count":12,
			"type":"VEC4"
		},
		{
			"bufferView":122,
			"componentType":5126,
			"count":2,
			"type":"VEC3"
		},
		{
			"bufferView":123,
			"componentType":5126,
			"count":2,
			"type":"VEC3"
		},
		{
			"bufferView":124,
			"componentType":5126,
			"count":2,
			"type":"VEC4"
		},
		{
			"bufferView":125,
			"componentType":5126,
			"count":2,
			"type":"VEC3"
		},
		{
			"bufferView":126,
			"componentType":5126,
			"count":2,
			"type":"VEC3"
		},
		{
			"bufferView":127,
			"componentType":5126,
			"count":2,
			"type":"VEC4"
		},
		{
			"bufferView":128,
			"componentType":5126,
			"count":2,
			"type":"VEC3"
		},
		{
			"bufferView":129,
			"componentType":5126,
			"count":2,
			"type":"VEC3"
		},
		{
			"bufferView":130,
			"componentType":5126,
			"count":2,
			"type":"VEC4"
		},
		{
			"bufferView":131,
			"componentType":5126,
			"count":2,
			"type":"VEC3"
		},
		{
			"bufferView":132,
			"componentType":5126,
			"count":2,
			"type":"VEC3"
		},
		{
			"bufferView":133,
			"componentType":5126,
			"count":12,
			"type":"VEC4"
		},
		{
			"bufferView":134,
			"componentType":5126,
			"count":2,
			"type":"VEC3"
		},
		{
			"bufferView":135,
			"componentType":5126,
			"count":2,
			"type":"VEC3"
		},
		{
			"bufferView":136,
			"componentType":5126,
			"count":12,
			"type":"VEC4"
		},
		{
			"bufferView":137,
			"componentType":5126,
			"count":2,
			"type":"VEC3"
		},
		{
			"bufferView":138,
			"componentType":5126,
			"count":2,
			"type":"VEC3"
		},
		{
			"bufferView":139,
			"componentType":5126,
			"count":2,
			"type":"VEC4"
		},
		{
			"bufferView":140,
			"componentType":5126,
			"count":2,
			"type":"VEC3"
		},
		{
			"bufferView":141,
			"componentType":5126,
			"count":2,
			"type":"VEC3"
		},
		{
			"bufferView":142,
			"componentType":5126,
			"count":2,
			"type":"VEC4"
		},
		{
			"bufferView":143,
			"componentType":5126,
			"count":2,
			"type":"VEC3"
		},
		{
			"bufferView":144,
			"componentType":5126,
			"count":2,
			"type":"VEC3"
		},
		{
			"bufferView":145,
			"componentType":5126,
			"count":12,
			"type":"VEC4"
		},
		{
			"bufferView":146,
			"componentType":5126,
			"count":2,
			"type":"VEC3"
		},
		{
			"bufferView":147,
			"componentType":5126,
			"count":2,
			"type":"VEC3"
		},
		{
			"bufferView":148,
			"componentType":5126,
			"count":12,
			"type":"VEC4"
		},
		{
			"bufferView":149,
			"componentType":5126,
			"count":2,
			"type":"VEC3"
		},
		{
			"bufferView":150,
			"componentType":5126,
			"count":2,
			"type":"VEC3"
		},
		{
			"bufferView":151,
			"componentType":5126,
			"count":2,
			"type":"VEC4"
		},
		{
			"bufferView":152,
			"componentType":5126,
			"count":2,
			"type":"VEC3"
		},
		{
			"bufferView":153,
			"componentType":5126,
			"count":2,
			"type":"VEC3"
		},
		{
			"bufferView":154,
			"componentType":5126,
			"count":2,
			"type":"VEC4"
		},
		{
			"bufferView":155,
			"componentType":5126,
			"count":2,
			"type":"VEC3"
		}
	],
	"bufferViews":[
		{
			"buffer":0,
			"byteLength":14076,
			"byteOffset":0,
			"target":34962
		},
		{
			"buffer":0,
			"byteLength":14076,
			"byteOffset":14076,
			"target":34962
		},
		{
			"buffer":0,
			"byteLength":9384,
			"byteOffset":28152,
			"target":34962
		},
		{
			"buffer":0,
			"byteLength":4692,
			"byteOffset":37536,
			"target":34962
		},
		{
			"buffer":0,
			"byteLength":18768,
			"byteOffset":42228,
			"target":34962
		},
		{
			"buffer":0,
			"byteLength":3432,
			"byteOffset":60996,
			"target":34963
		},
		{
			"buffer":0,
			"byteLength":3136,
			"byteOffset":64428
		},
		{
			"buffer":0,
			"byteLength":48,
			"byteOffset":67564
		},
		{
			"buffer":0,
			"byteLength":144,
			"byteOffset":67612
		},
		{
			"buffer":0,
			"byteLength":192,
			"byteOffset":67756
		},
		{
			"buffer":0,
			"byteLength":8,
			"byteOffset":67948
		},
		{
			"buffer":0,
			"byteLength":24,
			"byteOffset":67956
		},
		{
			"buffer":0,
			"byteLength":24,
			"byteOffset":67980
		},
		{
			"buffer":0,
			"byteLength":192,
			"byteOffset":68004
		},
		{
			"buffer":0,
			"byteLength":24,
			"byteOffset":68196
		},
		{
			"buffer":0,
			"byteLength":24,
			"byteOffset":68220
		},
		{
			"buffer":0,
			"byteLength":192,
			"byteOffset":68244
		},
		{
			"buffer":0,
			"byteLength":24,
			"byteOffset":68436
		},
		{
			"buffer":0,
			"byteLength":24,
			"byteOffset":68460
		},
		{
			"buffer":0,
			"byteLength":192,
			"byteOffset":68484
		},
		{
			"buffer":0,
			"byteLength":24,
			"byteOffset":68676
		},
		{
			"buffer":0,
			"byteLength":24,
			"byteOffset":68700
		},
		{
			"buffer":0,
			"byteLength":192,
			"byteOffset":68724
		},
		{
			"buffer":0,
			"byteLength":24,
			"byteOffset":68916
		},
		{
			"buffer":0,
			"byteLength":24,
			"byteOffset":68940
		},
		{
			"buffer":0,
			"byteLength":32,
			"byteOffset":68964
		},
		{
			"buffer":0,
			"byteLength":24,
			"byteOffset":68996
		},
		{
			"buffer":0,
			"byteLength":24,
			"byteOffset":69020
		},
		{
			"buffer":0,
			"byteLength":192,
			"byteOffset":69044
		},
		{
			"buffer":0,
			"byteLength":24,
			"byteOffset":69236
		},
		{
			"buffer":0,
			"byteLength":24,
			"byteOffset":69260
		},
		{
			"buffer":0,
			"byteLength":192,
			"byteOffset":69284
		},
		{
			"buffer":0,
			"byteLength":24,
			"byteOffset":69476
		},
		{
			"buffer":0,
			"byteLength":24,
			"byteOffset":69500
		},
		{
			"buffer":0,
			"byteLength":192,
			"byteOffset":69524
		},
		{
			"buffer":0,
			"byteLength":24,
			"byteOffset":69716
		},
		{
			"buffer":0,
			"byteLength":24,
			"byteOffset":69740
		},
		{
			"buffer":0,
			"byteLength":192,
			"byteOffset":69764
		},
		{
			"buffer":0,
			"byteLength":24,
			"byteOffset":69956
		},
		{
			"buffer":0,
			"byteLength":24,
			"byteOffset":69980
		},
		{
			"buffer":0,
			"byteLength":32,
			"byteOffset":70004
		},
		{
			"buffer":0,
			"byteLength":24,
			"byteOffset":70036
		},
		{
			"buffer":0,
			"byteLength":24,
			"byteOffset":70060
		},
		{
			"buffer":0,
			"byteLength":192,
			"byteOffset":70084
		},
		{
			"buffer":0,
			"byteLength":24,
			"byteOffset":70276
		},
		{
			"buffer":0,
			"byteLength":24,
			"byteOffset":70300
		},
		{
			"buffer":0,
			"byteLength":192,
			"byteOffset":70324
		},
		{
			"buffer":0,
			"byteLength":24,
			"byteOffset":70516
		},
		{
			"buffer":0,
			"byteLength":24,
			"byteOffset":70540
		},
		{
			"buffer":0,
			"byteLength":192,
			"byteOffset":70564
		},
		{
			"buffer":0,
			"byteLength":24,
			"byteOffset":70756
		},
		{
			"buffer":0,
			"byteLength":24,
			"byteOffset":70780
		},
		{
			"buffer":0,
			"byteLength":192,
			"byteOffset":70804
		},
		{
			"buffer":0,
			"byteLength":24,
			"byteOffset":70996
		},
		{
			"buffer":0,
			"byteLength":24,
			"byteOffset":71020
		},
		{
			"buffer":0,
			"byteLength":192,
			"byteOffset":71044
		},
		{
			"buffer":0,
			"byteLength":24,
			"byteOffset":71236
		},
		{
			"buffer":0,
			"byteLength":24,
			"byteOffset":71260
		},
		{
			"buffer":0,
			"byteLength":192,
			"byteOffset":71284
		},
		{
			"buffer":0,
			"byteLength":24,
			"byteOffset":71476
		},
		{
			"buffer":0,
			"byteLength":24,
			"byteOffset":71500
		},
		{
			"buffer":0,
			"byteLength":192,
			"byteOffset":71524
		},
		{
			"buffer":0,
			"byteLength":24,
			"byteOffset":71716
		},
		{
			"buffer":0,
			"byteLength":24,
			"byteOffset":71740
		},
		{
			"buffer":0,
			"byteLength":192,
			"byteOffset":71764
		},
		{
			"buffer":0,
			"byteLength":24,
			"byteOffset":71956
		},
		{
			"buffer":0,
			"byteLength":24,
			"byteOffset":71980
		},
		{
			"buffer":0,
			"byteLength":32,
			"byteOffset":72004
		},
		{
			"buffer":0,
			"byteLength":24,
			"byteOffset":72036
		},
		{
			"buffer":0,
			"byteLength":24,
			"byteOffset":72060
		},
		{
			"buffer":0,
			"byteLength":32,
			"byteOffset":72084
		},
		{
			"buffer":0,
			"byteLength":24,
			"byteOffset":72116
		},
		{
			"buffer":0,
			"byteLength":24,
			"byteOffset":72140
		},
		{
			"buffer":0,
			"byteLength":32,
			"byteOffset":72164
		},
		{
			"buffer":0,
			"byteLength":24,
			"byteOffset":72196
		},
		{
			"buffer":0,
			"byteLength":24,
			"byteOffset":72220
		},
		{
			"buffer":0,
			"byteLength":192,
			"byteOffset":72244
		},
		{
			"buffer":0,
			"byteLength":24,
			"byteOffset":72436
		},
		{
			"buffer":0,
			"byteLength":24,
			"byteOffset":72460
		},
		{
			"buffer":0,
			"byteLength":192,
			"byteOffset":72484
		},
		{
			"buffer":0,
			"byteLength":24,
			"byteOffset":72676
		},
		{
			"buffer":0,
			"byteLength":24,
			"byteOffset":72700
		},
		{
			"buffer":0,
			"byteLength":32,
			"byteOffset":72724
		},
		{
			"buffer":0,
			"byteLength":24,
			"byteOffset":72756
		},
		{
			"buffer":0,
			"byteLength":24,
			"byteOffset":72780
		},
		{
			"buffer":0,
			"byteLength":32,
			"byteOffset":72804
		},
		{
			"buffer":0,
			"byteLength":24,
			"byteOffset":72836
		},
		{
			"buffer":0,
			"byteLength":24,
			"byteOffset":72860
		},
		{
			"buffer":0,
			"byteLength":192,
			"byteOffset":72884
		},
		{
			"buffer":0,
			"byteLength":24,
			"byteOffset":73076
		},
		{
			"buffer":0,
			"byteLength":24,
			"byteOffset":73100
		},
		{
			"buffer":0,
			"byteLength":32,
			"byteOffset":73124
		},
		{
			"buffer":0,
			"byteLength":24,
			"byteOffset":73156
		},
		{
			"buffer":0,
			"byteLength":24,
			"byteOffset":73180
		},
		{
			"buffer":0,
			"byteLength":32,
			"byteOffset":73204
		},
		{
			"buffer":0,
			"byteLength":24,
			"byteOffset":73236
		},
		{
			"buffer":0,
			"byteLength":24,
			"byteOffset":73260
		},
		{
			"buffer":0,
			"byteLength":32,
			"byteOffset":73284
		},
		{
			"buffer":0,
			"byteLength":24,
			"byteOffset":73316
		},
		{
			"buffer":0,
			"byteLength":24,
			"byteOffset":73340
		},
		{
			"buffer":0,
			"byteLength":192,
			"byteOffset":73364
		},
		{
			"buffer":0,
			"byteLength":24,
			"byteOffset":73556
		},
		{
			"buffer":0,
			"byteLength":24,
			"byteOffset":73580
		},
		{
			"buffer":0,
			"byteLength":192,
			"byteOffset":73604
		},
		{
			"buffer":0,
			"byteLength":24,
			"byteOffset":73796
		},
		{
			"buffer":0,
			"byteLength":24,
			"byteOffset":73820
		},
		{
			"buffer":0,
			"byteLength":32,
			"byteOffset":73844
		},
		{
			"buffer":0,
			"byteLength":24,
			"byteOffset":73876
		},
		{
			"buffer":0,
			"byteLength":24,
			"byteOffset":73900
		},
		{
			"buffer":0,
			"byteLength":192,
			"byteOffset":73924
		},
		{
			"buffer":0,
			"byteLength":24,
			"byteOffset":74116
		},
		{
			"buffer":0,
			"byteLength":24,
			"byteOffset":74140
		},
		{
			"buffer":0,
			"byteLength":192,
			"byteOffset":74164
		},
		{
			"buffer":0,
			"byteLength":24,
			"byteOffset":74356
		},
		{
			"buffer":0,
			"byteLength":24,
			"byteOffset":74380
		},
		{
			"buffer":0,
			"byteLength":192,
			"byteOffset":74404
		},
		{
			"buffer":0,
			"byteLength":24,
			"byteOffset":74596
		},
		{
			"buffer":0,
			"byteLength":24,
			"byteOffset":74620
		},
		{
			"buffer":0,
			"byteLength":192,
			"byteOffset":74644
		},
		{
			"buffer":0,
			"byteLength":24,
			"byteOffset":74836
		},
		{
			"buffer":0,
			"byteLength":24,
			"byteOffset":74860
		},
		{
			"buffer":0,
			"byteLength":192,
			"byteOffset":74884
		},
		{
			"buffer":0,
			"byteLength":24,
			"byteOffset":75076
		},
		{
			"buffer":0,
			"byteLength":24,
			"byteOffset":75100
		},
		{
			"buffer":0,
			"byteLength":32,
			"byteOffset":75124
		},
		{
			"buffer":0,
			"byteLength":24,
			"byteOffset":75156
		},
		{
			"buffer":0,
			"byteLength":24,
			"byteOffset":75180
		},
		{
			"buffer":0,
			"byteLength":32,
			"byteOffset":75204
		},
		{
			"buffer":0,
			"byteLength":24,
			"byteOffset":75236
		},
		{
			"buffer":0,
			"byteLength":24,
			"byteOffset":75260
		},
		{
			"buffer":0,
			"byteLength":32,
			"byteOffset":75284
		},
		{
			"buffer":0,
			"byteLength":24,
			"byteOffset":75316
		},
		{
			"buffer":0,
			"byteLength":24,
			"byteOffset":75340
		},
		{
			"buffer":0,
			"byteLength":192,
			"byteOffset":75364
		},
		{
			"buffer":0,
			"byteLength":24,
			"byteOffset":75556
		},
		{
			"buffer":0,
			"byteLength":24,
			"byteOffset":75580
		},
		{
			"buffer":0,
			"byteLength":192,
			"byteOffset":75604
		},
		{
			"buffer":0,
			"byteLength":24,
			"byteOffset":75796
		},
		{
			"buffer":0,
			"byteLength":24,
			"byteOffset":75820
		},
		{
			"buffer":0,
			"byteLength":32,
			"byteOffset":75844
		},
		{
			"buffer":0,
			"byteLength":24,
			"byteOffset":75876
		},
		{
			"buffer":0,
			"byteLength":24,
			"byteOffset":75900
		},
		{
			"buffer":0,
			"byteLength":32,
			"byteOffset":75924
		},
		{
			"buffer":0,
			"byteLength":24,
			"byteOffset":75956
		},
		{
			"buffer":0,
			"byteLength":24,
			"byteOffset":75980
		},
		{
			"buffer":0,
			"byteLength":192,
			"byteOffset":76004
		},
		{
			"buffer":0,
			"byteLength":24,
			"byteOffset":76196
		},
		{
			"buffer":0,
			"byteLength":24,
			"byteOffset":76220
		},
		{
			"buffer":0,
			"byteLength":192,
			"byteOffset":76244
		},
		{
			"buffer":0,
			"byteLength":24,
			"byteOffset":76436
		},
		{
			"buffer":0,
			"byteLength":24,
			"byteOffset":76460
		},
		{
			"buffer":0,
			"byteLength":32,
			"byteOffset":76484
		},
		{
			"buffer":0,
			"byteLength":24,
			"byteOffset":76516
		},
		{
			"buffer":0,
			"byteLength":24,
			"byteOffset":76540
		},
		{
			"buffer":0,
			"byteLength":32,
			"byteOffset":76564
		},
		{
			"buffer":0,
			"byteLength":24,
			"byteOffset":76596
		}
	],
	"buffers":[
		{
			"byteLength":76620,
			"uri":"landing.bin"
		}
	]
}
